<svg width="29" height="32" viewBox="0 0 29 32" fill="none" xmlns="http://www.w3.org/2000/svg">
<rect x="0.5" width="28" height="32" rx="3" fill="white" fill-opacity="0.01"/>
<path d="M10.4287 21.0674C10.9209 21.0674 11.3174 20.6641 11.3174 20.1787C11.3174 19.6865 10.9209 19.29 10.4287 19.29C9.94336 19.29 9.54004 19.6865 9.54004 20.1787C9.54004 20.6641 9.94336 21.0674 10.4287 21.0674ZM14.501 21.0674C14.9932 21.0674 15.3896 20.6641 15.3896 20.1787C15.3896 19.6865 14.9932 19.29 14.501 19.29C14.0156 19.29 13.6123 19.6865 13.6123 20.1787C13.6123 20.6641 14.0156 21.0674 14.501 21.0674ZM18.5732 21.0674C19.0654 21.0674 19.4619 20.6641 19.4619 20.1787C19.4619 19.6865 19.0654 19.29 18.5732 19.29C18.0879 19.29 17.6845 19.6865 17.6845 20.1787C17.6845 20.6641 18.0879 21.0674 18.5732 21.0674Z" fill="#5B5B5B"/>
<path d="M10.4287 21.0674C10.9209 21.0674 11.3174 20.6641 11.3174 20.1787C11.3174 19.6865 10.9209 19.29 10.4287 19.29C9.94336 19.29 9.54004 19.6865 9.54004 20.1787C9.54004 20.6641 9.94336 21.0674 10.4287 21.0674ZM14.501 21.0674C14.9932 21.0674 15.3896 20.6641 15.3896 20.1787C15.3896 19.6865 14.9932 19.29 14.501 19.29C14.0156 19.29 13.6123 19.6865 13.6123 20.1787C13.6123 20.6641 14.0156 21.0674 14.501 21.0674ZM18.5732 21.0674C19.0654 21.0674 19.4619 20.6641 19.4619 20.1787C19.4619 19.6865 19.0654 19.29 18.5732 19.29C18.0879 19.29 17.6845 19.6865 17.6845 20.1787C17.6845 20.6641 18.0879 21.0674 18.5732 21.0674Z" fill="#2E75AD" fill-opacity="0.07"/>
</svg>
