<svg width="33" height="32" viewBox="0 0 33 32" fill="none" xmlns="http://www.w3.org/2000/svg">
<rect width="32" height="32" transform="translate(0.5)" fill="white" fill-opacity="0.01"/>
<rect width="24" height="24" transform="translate(4.5 4)" fill="white" fill-opacity="0.01"/>
<path fill-rule="evenodd" clip-rule="evenodd" d="M13.5047 14.9951L18.0977 10.4021C18.1893 10.3086 18.2985 10.2342 18.419 10.1832C18.5395 10.1322 18.6689 10.1057 18.7998 10.105C18.9306 10.1043 19.0603 10.1296 19.1813 10.1794C19.3023 10.2292 19.4123 10.3024 19.5048 10.3949C19.5973 10.4875 19.6706 10.5974 19.7204 10.7184C19.7701 10.8395 19.7954 10.9691 19.7948 11.1C19.7941 11.2308 19.7675 11.3602 19.7165 11.4808C19.6655 11.6013 19.5912 11.7105 19.4977 11.8021L15.5977 15.7021L19.4977 19.6021C19.6803 19.7883 19.7819 20.0392 19.7806 20.3C19.7793 20.5608 19.6751 20.8106 19.4907 20.995C19.3062 21.1795 19.0565 21.2837 18.7956 21.285C18.5348 21.2863 18.284 21.1846 18.0977 21.0021L13.5047 16.4101C13.3172 16.2225 13.2119 15.9682 13.2119 15.7031C13.2119 15.4379 13.3172 15.1836 13.5047 14.9961V14.9951Z" fill="#BBBBBB"/>
<path fill-rule="evenodd" clip-rule="evenodd" d="M13.5047 14.9951L18.0977 10.4021C18.1893 10.3086 18.2985 10.2342 18.419 10.1832C18.5395 10.1322 18.6689 10.1057 18.7998 10.105C18.9306 10.1043 19.0603 10.1296 19.1813 10.1794C19.3023 10.2292 19.4123 10.3024 19.5048 10.3949C19.5973 10.4875 19.6706 10.5974 19.7204 10.7184C19.7701 10.8395 19.7954 10.9691 19.7948 11.1C19.7941 11.2308 19.7675 11.3602 19.7165 11.4808C19.6655 11.6013 19.5912 11.7105 19.4977 11.8021L15.5977 15.7021L19.4977 19.6021C19.6803 19.7883 19.7819 20.0392 19.7806 20.3C19.7793 20.5608 19.6751 20.8106 19.4907 20.995C19.3062 21.1795 19.0565 21.2837 18.7956 21.285C18.5348 21.2863 18.284 21.1846 18.0977 21.0021L13.5047 16.4101C13.3172 16.2225 13.2119 15.9682 13.2119 15.7031C13.2119 15.4379 13.3172 15.1836 13.5047 14.9961V14.9951Z" fill="#2E75AD" fill-opacity="0.03"/>
</svg>
