<svg width="32" height="64" viewBox="0 0 32 64" fill="none" xmlns="http://www.w3.org/2000/svg">
<path d="M17.0414 3.16665C16.5334 2.53332 15.4667 2.53332 14.9587 3.16665L4.29204 16.5C4.13556 16.6963 4.0376 16.9327 4.00942 17.1821C3.98123 17.4316 4.02396 17.6839 4.1327 17.9101C4.24144 18.1364 4.41178 18.3274 4.62416 18.4612C4.83654 18.595 5.08235 18.6662 5.33337 18.6666H9.66671C10.1381 18.6666 10.3738 18.6666 10.5203 18.8131C10.6667 18.9595 10.6667 19.1952 10.6667 19.6666V28C10.6667 28.3536 10.8072 28.6927 11.0572 28.9428C11.3073 29.1928 11.6464 29.3333 12 29.3333H20C20.3537 29.3333 20.6928 29.1928 20.9428 28.9428C21.1929 28.6927 21.3334 28.3536 21.3334 28V19.6666C21.3334 19.1952 21.3334 18.9595 21.4798 18.8131C21.6263 18.6666 21.862 18.6666 22.3334 18.6666H26.6667C26.9177 18.6662 27.1635 18.595 27.3759 18.4612C27.5883 18.3274 27.7586 18.1364 27.8674 17.9101C27.9761 17.6839 28.0188 17.4316 27.9907 17.1821C27.9625 16.9327 27.8645 16.6963 27.708 16.5L17.0414 3.16665ZM20 16H19.6667C19.1953 16 18.9596 16 18.8132 16.1464C18.6667 16.2929 18.6667 16.5286 18.6667 17V25.6666C18.6667 26.1381 18.6667 26.3738 18.5203 26.5202C18.3738 26.6667 18.1381 26.6667 17.6667 26.6667H14.3334C13.862 26.6667 13.6263 26.6667 13.4798 26.5202C13.3334 26.3738 13.3334 26.1381 13.3334 25.6667V17C13.3334 16.5286 13.3334 16.2929 13.1869 16.1464C13.0405 16 12.8048 16 12.3334 16H10.1886C9.28547 16 8.83389 16 8.69768 15.7166C8.56147 15.4332 8.84356 15.0806 9.40774 14.3753L15.2192 7.11078C15.5795 6.6603 15.7597 6.43506 16 6.43506C16.2404 6.43506 16.4205 6.6603 16.7809 7.11078L22.5923 14.3753C23.1565 15.0806 23.4386 15.4332 23.3024 15.7166C23.1662 16 22.7146 16 21.8115 16H20Z" fill="#262626"/>
<path d="M17.0414 3.16665C16.5334 2.53332 15.4667 2.53332 14.9587 3.16665L4.29204 16.5C4.13556 16.6963 4.0376 16.9327 4.00942 17.1821C3.98123 17.4316 4.02396 17.6839 4.1327 17.9101C4.24144 18.1364 4.41178 18.3274 4.62416 18.4612C4.83654 18.595 5.08235 18.6662 5.33337 18.6666H9.66671C10.1381 18.6666 10.3738 18.6666 10.5203 18.8131C10.6667 18.9595 10.6667 19.1952 10.6667 19.6666V28C10.6667 28.3536 10.8072 28.6927 11.0572 28.9428C11.3073 29.1928 11.6464 29.3333 12 29.3333H20C20.3537 29.3333 20.6928 29.1928 20.9428 28.9428C21.1929 28.6927 21.3334 28.3536 21.3334 28V19.6666C21.3334 19.1952 21.3334 18.9595 21.4798 18.8131C21.6263 18.6666 21.862 18.6666 22.3334 18.6666H26.6667C26.9177 18.6662 27.1635 18.595 27.3759 18.4612C27.5883 18.3274 27.7586 18.1364 27.8674 17.9101C27.9761 17.6839 28.0188 17.4316 27.9907 17.1821C27.9625 16.9327 27.8645 16.6963 27.708 16.5L17.0414 3.16665ZM20 16H19.6667C19.1953 16 18.9596 16 18.8132 16.1464C18.6667 16.2929 18.6667 16.5286 18.6667 17V25.6666C18.6667 26.1381 18.6667 26.3738 18.5203 26.5202C18.3738 26.6667 18.1381 26.6667 17.6667 26.6667H14.3334C13.862 26.6667 13.6263 26.6667 13.4798 26.5202C13.3334 26.3738 13.3334 26.1381 13.3334 25.6667V17C13.3334 16.5286 13.3334 16.2929 13.1869 16.1464C13.0405 16 12.8048 16 12.3334 16H10.1886C9.28547 16 8.83389 16 8.69768 15.7166C8.56147 15.4332 8.84356 15.0806 9.40774 14.3753L15.2192 7.11078C15.5795 6.6603 15.7597 6.43506 16 6.43506C16.2404 6.43506 16.4205 6.6603 16.7809 7.11078L22.5923 14.3753C23.1565 15.0806 23.4386 15.4332 23.3024 15.7166C23.1662 16 22.7146 16 21.8115 16H20Z" fill="#2E75AD" fill-opacity="0.09"/>
<path d="M14.9586 60.8333C15.4666 61.4667 16.5333 61.4667 17.0413 60.8333L27.708 47.5C27.8644 47.3037 27.9624 47.0673 27.9906 46.8179C28.0188 46.5684 27.976 46.3161 27.8673 46.0899C27.7586 45.8636 27.5882 45.6726 27.3758 45.5388C27.1635 45.405 26.9176 45.3338 26.6666 45.3334H22.3333C21.8619 45.3334 21.6262 45.3334 21.4797 45.1869C21.3333 45.0405 21.3333 44.8048 21.3333 44.3334L21.3333 36C21.3333 35.6464 21.1928 35.3073 20.9428 35.0572C20.6927 34.8072 20.3536 34.6667 20 34.6667H12C11.6463 34.6667 11.3072 34.8072 11.0572 35.0572C10.8071 35.3073 10.6666 35.6464 10.6666 36V44.3334C10.6666 44.8048 10.6666 45.0405 10.5202 45.1869C10.3737 45.3334 10.138 45.3334 9.66663 45.3334H5.33329C5.08227 45.3338 4.83646 45.405 4.62408 45.5388C4.4117 45.6726 4.24136 45.8636 4.13262 46.0899C4.02388 46.3161 3.98115 46.5684 4.00934 46.8179C4.03752 47.0673 4.13548 47.3037 4.29196 47.5L14.9586 60.8333ZM12 48H12.3333C12.8047 48 13.0404 48 13.1868 47.8536C13.3333 47.7071 13.3333 47.4714 13.3333 47L13.3333 38.3334C13.3333 37.8619 13.3333 37.6262 13.4797 37.4798C13.6262 37.3333 13.8619 37.3333 14.3333 37.3333H17.6666C18.138 37.3333 18.3737 37.3333 18.5202 37.4798C18.6666 37.6262 18.6666 37.8619 18.6666 38.3333L18.6666 47C18.6666 47.4714 18.6666 47.7071 18.8131 47.8536C18.9595 48 19.1952 48 19.6666 48H21.8114C22.7145 48 23.1661 48 23.3023 48.2834C23.4385 48.5668 23.1564 48.9194 22.5923 49.6247L16.7808 56.8892C16.4205 57.3397 16.2403 57.5649 16 57.5649C15.7596 57.5649 15.5795 57.3397 15.2191 56.8892L9.40766 49.6247C8.84348 48.9194 8.56139 48.5668 8.6976 48.2834C8.83381 48 9.28539 48 10.1885 48H12Z" fill="#262626"/>
<path d="M14.9586 60.8333C15.4666 61.4667 16.5333 61.4667 17.0413 60.8333L27.708 47.5C27.8644 47.3037 27.9624 47.0673 27.9906 46.8179C28.0188 46.5684 27.976 46.3161 27.8673 46.0899C27.7586 45.8636 27.5882 45.6726 27.3758 45.5388C27.1635 45.405 26.9176 45.3338 26.6666 45.3334H22.3333C21.8619 45.3334 21.6262 45.3334 21.4797 45.1869C21.3333 45.0405 21.3333 44.8048 21.3333 44.3334L21.3333 36C21.3333 35.6464 21.1928 35.3073 20.9428 35.0572C20.6927 34.8072 20.3536 34.6667 20 34.6667H12C11.6463 34.6667 11.3072 34.8072 11.0572 35.0572C10.8071 35.3073 10.6666 35.6464 10.6666 36V44.3334C10.6666 44.8048 10.6666 45.0405 10.5202 45.1869C10.3737 45.3334 10.138 45.3334 9.66663 45.3334H5.33329C5.08227 45.3338 4.83646 45.405 4.62408 45.5388C4.4117 45.6726 4.24136 45.8636 4.13262 46.0899C4.02388 46.3161 3.98115 46.5684 4.00934 46.8179C4.03752 47.0673 4.13548 47.3037 4.29196 47.5L14.9586 60.8333ZM12 48H12.3333C12.8047 48 13.0404 48 13.1868 47.8536C13.3333 47.7071 13.3333 47.4714 13.3333 47L13.3333 38.3334C13.3333 37.8619 13.3333 37.6262 13.4797 37.4798C13.6262 37.3333 13.8619 37.3333 14.3333 37.3333H17.6666C18.138 37.3333 18.3737 37.3333 18.5202 37.4798C18.6666 37.6262 18.6666 37.8619 18.6666 38.3333L18.6666 47C18.6666 47.4714 18.6666 47.7071 18.8131 47.8536C18.9595 48 19.1952 48 19.6666 48H21.8114C22.7145 48 23.1661 48 23.3023 48.2834C23.4385 48.5668 23.1564 48.9194 22.5923 49.6247L16.7808 56.8892C16.4205 57.3397 16.2403 57.5649 16 57.5649C15.7596 57.5649 15.5795 57.3397 15.2191 56.8892L9.40766 49.6247C8.84348 48.9194 8.56139 48.5668 8.6976 48.2834C8.83381 48 9.28539 48 10.1885 48H12Z" fill="#2E75AD" fill-opacity="0.09"/>
</svg>
