<svg width="48" height="48" viewBox="0 0 48 48" fill="none" xmlns="http://www.w3.org/2000/svg">
<path d="M33.7853 27.32L32.452 25.1066C32.172 24.6133 31.9186 23.68 31.9186 23.1333V19.76C31.9186 16.6266 30.0786 13.92 27.4253 12.6533C26.732 11.4266 25.452 10.6666 23.9853 10.6666C22.532 10.6666 21.2253 11.4533 20.532 12.6933C17.932 13.9866 16.132 16.6666 16.132 19.76V23.1333C16.132 23.68 15.8786 24.6133 15.5986 25.0933L14.252 27.32C13.7186 28.2133 13.5986 29.2 13.932 30.1066C14.252 31 15.012 31.6933 15.9986 32.0266C18.5853 32.9066 21.3053 33.3333 24.0253 33.3333C26.7453 33.3333 29.4653 32.9066 32.052 32.04C32.9853 31.7333 33.7053 31.0266 34.052 30.1066C34.3986 29.1866 34.3053 28.1733 33.7853 27.32Z" fill="white"/>
<path d="M27.7716 34.68C27.2116 36.2266 25.7316 37.3333 23.9983 37.3333C22.9449 37.3333 21.9049 36.9066 21.1716 36.1466C20.7449 35.7466 20.4249 35.2133 20.2383 34.6666C20.4116 34.6933 20.5849 34.7066 20.7716 34.7333C21.0783 34.7733 21.3983 34.8133 21.7183 34.84C22.4783 34.9066 23.2516 34.9466 24.0249 34.9466C24.7849 34.9466 25.5449 34.9066 26.2916 34.84C26.5716 34.8133 26.8516 34.8 27.1183 34.76C27.3316 34.7333 27.5449 34.7066 27.7716 34.68Z" fill="white"/>
</svg>
