<svg width="25" height="24" viewBox="0 0 25 24" fill="none" xmlns="http://www.w3.org/2000/svg">
<path d="M12.3457 21.75C6.6957 21.75 2.0957 17.15 2.0957 11.5C2.0957 5.85 6.6957 1.25 12.3457 1.25C17.9957 1.25 22.5957 5.85 22.5957 11.5C22.5957 17.15 17.9957 21.75 12.3457 21.75ZM12.3457 2.75C7.5157 2.75 3.5957 6.68 3.5957 11.5C3.5957 16.32 7.5157 20.25 12.3457 20.25C17.1757 20.25 21.0957 16.32 21.0957 11.5C21.0957 6.68 17.1757 2.75 12.3457 2.75Z" fill="#AAAAAA"/>
<path d="M12.3457 21.75C6.6957 21.75 2.0957 17.15 2.0957 11.5C2.0957 5.85 6.6957 1.25 12.3457 1.25C17.9957 1.25 22.5957 5.85 22.5957 11.5C22.5957 17.15 17.9957 21.75 12.3457 21.75ZM12.3457 2.75C7.5157 2.75 3.5957 6.68 3.5957 11.5C3.5957 16.32 7.5157 20.25 12.3457 20.25C17.1757 20.25 21.0957 16.32 21.0957 11.5C21.0957 6.68 17.1757 2.75 12.3457 2.75Z" fill="#2E75AD" fill-opacity="0.03"/>
<path d="M22.8461 22.7499C22.6561 22.7499 22.4661 22.6799 22.3161 22.5299L20.3161 20.5299C20.0261 20.2399 20.0261 19.7599 20.3161 19.4699C20.6061 19.1799 21.0861 19.1799 21.3761 19.4699L23.3761 21.4699C23.6661 21.7599 23.6661 22.2399 23.3761 22.5299C23.2261 22.6799 23.0361 22.7499 22.8461 22.7499Z" fill="#AAAAAA"/>
<path d="M22.8461 22.7499C22.6561 22.7499 22.4661 22.6799 22.3161 22.5299L20.3161 20.5299C20.0261 20.2399 20.0261 19.7599 20.3161 19.4699C20.6061 19.1799 21.0861 19.1799 21.3761 19.4699L23.3761 21.4699C23.6661 21.7599 23.6661 22.2399 23.3761 22.5299C23.2261 22.6799 23.0361 22.7499 22.8461 22.7499Z" fill="#2E75AD" fill-opacity="0.03"/>
</svg>
