<svg width="64" height="64" viewBox="0 0 64 64" fill="none" xmlns="http://www.w3.org/2000/svg">
<path fill-rule="evenodd" clip-rule="evenodd" d="M5.33301 11.7056C5.33301 10.6694 6.10637 9.79471 7.1385 9.66354L56.3375 3.4108C57.573 3.25377 58.6663 4.21248 58.6663 5.45287V52.1332C58.6663 53.3391 57.6301 54.2868 56.4235 54.1844L45.8415 53.2857C45.0732 53.2205 44.5755 52.4406 44.6055 51.6702C44.6081 51.6015 44.6095 51.5324 44.6095 51.463V35.8174C44.6095 32.9182 42.2495 30.5679 39.3382 30.5679C36.4269 30.5679 34.0669 32.9182 34.0669 35.8174V51.463C34.0669 51.886 33.7247 52.2568 33.3033 52.221L29.9838 51.9391C29.3703 51.887 28.8989 51.3739 28.8989 50.7582V39.3171C28.8989 36.7589 26.8165 34.6852 24.2477 34.6852C21.679 34.6852 19.5966 36.7589 19.5966 39.3171V51.9068L19.3003 60.8298L11.5308 50.3721L7.22456 50.0065C6.15485 49.9156 5.33301 49.0244 5.33301 47.9553V11.7056ZM29.9325 27.6858C29.9325 30.5282 27.6187 32.8324 24.7645 32.8324C21.9103 32.8324 19.5966 30.5282 19.5966 27.6858C19.5966 24.8434 21.9103 22.5392 24.7645 22.5392C27.6187 22.5392 29.9325 24.8434 29.9325 27.6858ZM39.4415 27.0682C42.2957 27.0682 44.6095 24.764 44.6095 21.9216C44.6095 19.0793 42.2957 16.775 39.4415 16.775C36.5874 16.775 34.2736 19.0793 34.2736 21.9216C34.2736 24.764 36.5874 27.0682 39.4415 27.0682Z" fill="#FF902E"/>
</svg>
