<svg width="200" height="200" viewBox="0 0 200 200" fill="none" xmlns="http://www.w3.org/2000/svg">
<rect width="200" height="200" rx="100" fill="#262626"/>
<rect width="200" height="200" rx="100" fill="#2E75AD" fill-opacity="0.09"/>
<path d="M100.002 30.5555C81.8073 30.5555 67.0156 45.3472 67.0156 63.5416C67.0156 81.3889 80.974 95.8333 99.1684 96.4583C99.724 96.3889 100.28 96.3889 100.696 96.4583C100.835 96.4583 100.905 96.4583 101.043 96.4583C101.113 96.4583 101.113 96.4583 101.182 96.4583C118.96 95.8333 132.918 81.3889 132.988 63.5416C132.988 45.3472 118.196 30.5555 100.002 30.5555Z" fill="white"/>
<path d="M135.28 114.931C115.905 102.014 84.3077 102.014 64.7938 114.931C55.9744 120.833 51.1133 128.819 51.1133 137.361C51.1133 145.903 55.9744 153.819 64.7244 159.653C74.4466 166.181 87.2244 169.444 100.002 169.444C112.78 169.444 125.558 166.181 135.28 159.653C144.03 153.75 148.891 145.833 148.891 137.222C148.822 128.681 144.03 120.764 135.28 114.931Z" fill="white"/>
</svg>
