<svg width="84" height="202" viewBox="0 0 84 202" fill="none" xmlns="http://www.w3.org/2000/svg">
<path d="M82.4158 126.403C82.1216 128.055 81.7012 131.859 80.6564 136.086C80.4162 137.151 80.1786 138.242 79.9421 139.348C79.7057 140.453 79.3446 141.529 79.0519 142.612C78.4105 144.757 77.9437 146.886 77.2834 148.68C72.0124 165.499 62.8355 181.23 50.2681 193.536C48.2321 195.39 44.9495 198.7 42.9231 196.409C40.8197 194.017 41.5764 190.629 44.7313 187.548C52.156 179.82 58.8993 171.017 63.111 161.054C66.1364 153.786 68.8539 146.412 70.7227 138.791C72.6061 131.182 73.8388 123.417 74.1458 115.602C74.4173 108.576 73.9587 101.563 73.0327 94.62C71.9993 87.6871 70.18 80.8948 67.8237 74.3008C66.541 71.2641 65.4021 68.1731 63.8351 65.2845C63.0638 63.8255 62.4111 62.3287 61.5629 60.9174L59.0587 56.6798C55.5405 51.1412 51.7797 45.7604 47.5274 40.7771C43.9792 36.3788 40.0907 32.2556 36.101 28.2096L32.9643 25.3308C31.9019 24.3862 30.9003 23.3683 29.7649 22.5117C27.5306 20.7546 25.367 18.8825 22.9633 17.3442C21.8512 16.5938 20.5401 15.8891 19.2156 15.1854C17.8424 14.5404 16.4316 13.9259 15.1719 13.1892C13.1274 11.8749 9.44174 10.2382 7.38512 8.93859C6.50525 8.35633 5.54007 7.87683 4.55198 7.58896C0.0379224 6.3675 -0.765308 4.85739 1.89825 2.17368C2.49437 1.59045 2.44629 0.484227 3.74153 0.432246C3.79524 0.427283 3.90254 0.417367 3.95625 0.412404C6.0251 0.0858034 7.87918 0.5106 9.63454 1.188C11.3449 1.96436 12.9567 2.99325 14.6817 3.78179C31.4864 11.8303 46.1839 24.0416 57.6426 38.7186C64.6417 47.7815 70.2313 57.8547 74.8055 68.374C75.3998 69.8223 76.2038 71.1971 76.7481 72.6906C77.318 74.1682 77.8488 75.6629 78.2101 77.2275L78.1917 77.1749C78.7959 78.7306 79.2427 80.3416 79.7029 81.9512C80.1497 83.5621 80.6504 85.1679 80.991 86.8021C83.5061 99.218 84.2131 112.586 82.5742 124.601C82.4943 125.055 82.5137 125.703 82.4158 126.403Z" fill="#2E75AD"/>
<path d="M54.144 190.213C55.1862 189.913 58.8777 188.827 61.1262 187.807C66.3578 185.509 71.2894 182.751 76.4937 180.158C77.3086 179.744 78.5244 178.832 80.3862 181.247C82.3237 183.749 82.5652 185.921 81.0808 186.857C77.4692 189.1 73.5526 190.681 70.1011 193.045C65.024 196.574 59.0543 198.358 53.1821 200.025C51.8642 200.418 50.5107 200.719 49.1694 201.005L47.1336 201.396C46.3878 201.533 45.6115 201.632 44.8046 201.693C43.1909 201.815 41.4717 201.825 39.4749 201.319C38.532 201.081 37.3093 200.598 36.3402 199.929C35.3576 199.262 34.4933 198.407 33.8326 197.412C33.2049 196.481 32.7418 195.427 32.4899 194.313C32.2208 193.16 32.1814 192.148 32.191 191.226C32.2506 189.379 32.5964 187.844 32.9557 186.456L33.4983 184.564L34.0255 182.796C34.3913 181.624 34.7706 180.452 35.2059 179.301C36.6943 175.331 38.8852 171.635 40.6118 167.751C41.0145 166.834 40.9063 165.516 41.3272 164.502C41.6837 163.671 42.2164 162.254 42.7708 161.512C43.012 161.192 43.2923 160.854 43.3112 160.473C43.4282 158.661 44.6147 158.606 47.6878 160.353C48.3598 160.738 49.3538 160.944 49.705 161.521C49.7209 161.547 49.7528 161.598 49.7675 161.61C51.3135 163.539 49.9463 164.424 49.5343 165.681C47.5303 171.838 45.3175 177.933 43.1876 184.048L42.1868 186.849C41.8537 187.787 41.4817 188.742 41.2424 189.523C40.9908 190.318 40.843 191.063 40.8158 191.647C40.815 191.932 40.8252 192.188 40.8803 192.346C40.9318 192.463 40.9756 192.5 41.049 192.561C41.1345 192.607 41.2835 192.607 41.3884 192.57C41.4946 192.547 41.519 192.517 41.4777 192.656C41.5705 192.634 41.5361 192.556 41.7803 192.56C41.9695 192.557 42.2528 192.544 42.5544 192.584C43.1552 192.637 43.9363 192.592 44.7773 192.46C45.5524 192.347 46.7047 192.065 47.6762 191.88C49.6777 191.411 51.6656 190.943 53.5622 190.51C53.7745 190.464 53.9329 190.273 54.144 190.213Z" fill="#2E75AD"/>
</svg>
