<svg width="1440" height="4000" viewBox="0 0 1440 4000" fill="none" xmlns="http://www.w3.org/2000/svg">
<g clip-path="url(#clip0_5001_5328)">
<rect width="1440" height="4000" fill="#FFFBFE"/>
<rect width="1440" height="4000" fill="#2E75AD" fill-opacity="0.05"/>
<path d="M2078.09 3613.97C2069.89 3582.98 2056.59 3553.58 2038.75 3526.95C2020.82 3500.53 1999.15 3476.86 1974.41 3456.68C1957.44 3443.06 1939.28 3431 1920.15 3420.64L1912.96 3416.84C1910.54 3415.57 1908.15 3414.13 1905.66 3413.18L1890.82 3406.37L1875.65 3400.4C1873.12 3399.34 1870.55 3398.48 1867.97 3397.69L1860.21 3395.14C1839.46 3388.48 1818.16 3383.71 1796.55 3380.89C1774.95 3378.28 1753.17 3377.43 1731.43 3378.37C1726.01 3378.72 1720.58 3378.78 1715.15 3379.37L1698.87 3381L1682.76 3383.39C1677.33 3384.15 1672.07 3385.4 1666.72 3386.37C1645.42 3390.76 1624.45 3396.66 1603.99 3404.04C1583.58 3411.54 1563.7 3420.45 1544.51 3430.68L1544.22 3430.85C1531.57 3432.35 1519.03 3434.63 1506.66 3437.68C1450.61 3451.7 1399.51 3480.92 1359 3522.12C1338.81 3542.69 1321.82 3566.18 1308.62 3591.8C1295.54 3617.46 1286.27 3644.88 1281.08 3673.2C1275.39 3704.69 1274.47 3736.86 1278.36 3768.63C1282.09 3800.46 1290.91 3831.48 1304.49 3860.5C1318.27 3889.41 1336.52 3915.97 1358.57 3939.19C1380.7 3962.14 1405.72 3982.11 1433 3998.61C1460.23 4014.92 1489.13 4028.28 1519.2 4038.44C1526.74 4040.77 1534.2 4043.46 1541.88 4045.44L1553.31 4048.61L1564.86 4051.33C1572.52 4053.31 1580.36 4054.5 1588.12 4056.02C1592 4056.73 1595.88 4057.54 1599.78 4058.14L1611.56 4059.69C1642.95 4063.81 1674.65 4064.98 1706.26 4063.19C1737.87 4061.23 1769.22 4056.16 1799.84 4048.05C1830.53 4039.94 1860.26 4028.55 1888.51 4014.07C1916.84 3999.57 1943.22 3981.55 1967.03 3960.43C1991.09 3939.46 2012.05 3915.18 2029.28 3888.31C2046.65 3861.6 2060.45 3832.73 2070.33 3802.44C2080.33 3772.16 2086.19 3740.67 2087.75 3708.83C2089.33 3676.9 2086.07 3644.92 2078.09 3613.97ZM1612.1 3449.49C1657.44 3455.74 1700.63 3472.73 1738.08 3499.03C1756.73 3512.13 1773.84 3527.3 1789.09 3544.24L1794.68 3550.67C1796.53 3552.84 1798.45 3554.93 1800.11 3557.23L1810.34 3570.8L1819.59 3585.04C1822.58 3589.87 1825.02 3594.92 1827.95 3599.83C1849.01 3639.96 1860.04 3684.59 1860.07 3729.91C1860.02 3777.57 1847.22 3824.35 1823.01 3865.41C1803.77 3898.61 1778.21 3927.71 1747.77 3951.07C1753.85 3945.37 1759.63 3939.4 1765.11 3933.16C1801.01 3891.43 1822.94 3839.5 1827.81 3784.66C1830.34 3757.36 1828.15 3729.82 1821.33 3703.26C1814.34 3676.64 1802.56 3651.51 1786.57 3629.11C1754.39 3584.47 1708.92 3551.17 1656.66 3533.95C1630.7 3525.26 1603.47 3520.94 1576.1 3521.17C1548.6 3521.43 1521.4 3526.8 1495.86 3536.99C1444.94 3557.29 1402.06 3594.95 1373.47 3641.13C1372.19 3643.16 1371 3645.25 1369.8 3647.31C1370.13 3646.34 1370.48 3645.39 1370.81 3644.41C1371.46 3642.54 1372.05 3640.67 1372.76 3638.85L1374.99 3633.42C1376.53 3629.79 1377.83 3626.07 1379.57 3622.57C1386.05 3608.18 1393.57 3594.27 1402.06 3580.97C1410.63 3567.67 1420.05 3554.94 1430.26 3542.85C1440.56 3530.8 1451.55 3519.35 1463.17 3508.55C1474.89 3497.83 1487.17 3487.74 1499.96 3478.33C1512.83 3469 1526.16 3460.32 1539.9 3452.33C1541.56 3451.39 1543.21 3450.49 1544.87 3449.62C1567.17 3446.62 1589.78 3446.57 1612.1 3449.49ZM1705.96 3960.65C1702.38 3962.79 1698.96 3965.13 1695.1 3967.05L1684.09 3972.91L1672.66 3978.01C1668.87 3979.7 1664.88 3980.94 1660.97 3982.44C1645.19 3987.89 1628.86 3991.61 1612.27 3993.51C1578.99 3997.26 1545.31 3993.2 1513.88 3981.65C1495.75 3974.69 1478.83 3964.92 1463.74 3952.7C1476.3 3958.74 1489.44 3963.53 1502.95 3966.97C1527.72 3973.51 1553.55 3975.04 1578.92 3971.48C1595.26 3969.25 1611.1 3964.23 1625.75 3956.63C1635.87 3951.21 1640.62 3946.65 1640.54 3944.99C1640.46 3943.34 1632.94 3946.38 1620.19 3950.42C1603.18 3955.85 1585.5 3958.9 1567.66 3959.48C1544.77 3960.17 1521.93 3956.96 1500.12 3949.99C1479.18 3943.38 1459.42 3933.47 1441.6 3920.63C1435.3 3916.11 1429.3 3911.19 1423.64 3905.89C1409.93 3883.4 1401.2 3858.22 1398.05 3832.06C1396.1 3815.63 1396.54 3798.99 1399.35 3782.68L1402.06 3770.63C1403.18 3766.67 1404.56 3762.82 1405.75 3758.89C1408.44 3751.14 1411.82 3743.66 1415.85 3736.53C1432.56 3707.81 1457.69 3684.91 1487.83 3670.92C1502.75 3663.85 1518.69 3659.17 1535.07 3657.05C1543.17 3656.02 1551.34 3655.69 1559.49 3656.05C1567.65 3656.44 1575.75 3657.59 1583.69 3659.5C1615.52 3666.74 1643.14 3688.07 1661.3 3715.39C1670.45 3729.1 1677.29 3744.21 1681.56 3760.13C1685.8 3775.96 1687.13 3792.43 1685.5 3808.73C1683.75 3824.87 1678.55 3840.44 1670.25 3854.39C1661.65 3868.15 1650.14 3879.85 1636.52 3888.66C1608.73 3906.57 1575.35 3913.69 1542.67 3908.69C1526.61 3906.31 1511.29 3900.35 1497.84 3891.24C1491.26 3886.67 1485.26 3881.31 1479.96 3875.29C1474.7 3869.22 1470.22 3862.52 1466.61 3855.34C1452.1 3826.48 1451.47 3790.98 1462.71 3760.38C1468.24 3745.11 1477.03 3731.22 1488.46 3719.68C1494.14 3713.99 1500.52 3709.05 1507.45 3704.97C1514.44 3700.97 1521.84 3697.75 1529.54 3695.37C1554.74 3688.07 1583.12 3689.94 1605.89 3702.23C1611.55 3705.24 1616.86 3708.88 1621.71 3713.09C1622.9 3714.14 1623.99 3715.34 1625.13 3716.42C1626.29 3717.51 1627.4 3718.66 1628.44 3719.87L1631.37 3723.53C1631.86 3724.16 1632.37 3724.75 1632.83 3725.38L1634.08 3727.38C1640.98 3738.11 1645.24 3750.32 1646.51 3763.01C1647.74 3775.71 1646.14 3788.53 1641.81 3800.54C1637.66 3812.31 1630.18 3822.62 1620.27 3830.22C1610.42 3837.75 1598.32 3841.74 1585.92 3841.56C1573.16 3841.55 1560.61 3838.34 1549.43 3832.2C1548.31 3831.58 1545.93 3830.16 1544.79 3829.35C1539.86 3826.05 1535.31 3822.22 1531.22 3817.93C1528.51 3815.21 1527.12 3813.7 1526.12 3812.8C1524.06 3811.01 1523.4 3811.88 1520.37 3807.37C1517.73 3803.16 1515.56 3798.66 1513.91 3793.97C1513.33 3791.84 1512.42 3789.81 1511.19 3787.97C1510.57 3787.48 1510.14 3788.54 1509.92 3791.34C1509.72 3795.86 1510.28 3800.38 1511.6 3804.71C1513.81 3812.45 1517.56 3819.66 1522.64 3825.91C1529.83 3834.84 1538.9 3842.08 1549.21 3847.1C1562.69 3853.89 1577.74 3856.96 1592.81 3856C1604.38 3855.28 1615.58 3851.65 1625.37 3845.44C1627.41 3844.06 1629.33 3842.54 1631.31 3841.05C1633.35 3839.57 1635.24 3837.89 1636.96 3836.05C1638.85 3834.32 1640.61 3832.43 1642.19 3830.41L1646.4 3824.98C1647.62 3823.08 1648.79 3821.13 1649.98 3819.2C1650.55 3818.23 1651.23 3817.3 1651.72 3816.27L1653.18 3813.21C1654.11 3811.14 1655.22 3809.14 1655.9 3806.99C1659.14 3798.48 1661.24 3789.57 1662.16 3780.51C1662.33 3778.23 1662.38 3775.95 1662.49 3773.7C1662.49 3772.56 1662.62 3771.42 1662.49 3770.28L1662.33 3766.86C1662.19 3764.58 1662.19 3762.3 1661.89 3760.05L1660.89 3753.27C1659.34 3744.27 1656.48 3735.55 1652.4 3727.38C1647.29 3717.15 1640.23 3708.02 1631.61 3700.5C1622.05 3692.17 1611 3685.73 1599.05 3681.5C1573.18 3672.51 1545.02 3672.51 1519.14 3681.5C1499.49 3688.33 1482.1 3700.46 1468.89 3716.53C1466.67 3719.05 1464.8 3721.8 1462.82 3724.45C1460.83 3727.11 1459.1 3729.88 1457.52 3732.59C1445.6 3753.01 1439 3776.09 1438.34 3799.72C1437.92 3812.37 1439.26 3825.02 1442.33 3837.3C1445.52 3849.89 1450.71 3861.88 1457.71 3872.82C1464.84 3883.86 1473.87 3893.54 1484.39 3901.42C1494.82 3909.21 1506.47 3915.2 1518.87 3919.16C1530.96 3923.13 1543.55 3925.35 1556.26 3925.76C1568.63 3926.22 1581.01 3925.2 1593.14 3922.72C1616.36 3917.96 1638.12 3907.72 1656.6 3892.87C1675.58 3877.44 1689.45 3856.63 1696.41 3833.18C1703.07 3809.95 1703.76 3785.41 1698.41 3761.84C1693.18 3738.48 1683 3716.51 1668.57 3697.4C1654.1 3678.1 1635.21 3662.55 1613.49 3652.06C1591.48 3641.98 1567.32 3637.5 1543.16 3639.04C1519.25 3640.62 1495.93 3647.08 1474.62 3658.03C1453.32 3668.89 1434.35 3683.79 1418.75 3701.91C1410.97 3711.03 1404.18 3720.97 1398.51 3731.54C1395.66 3736.81 1393.13 3742.24 1390.94 3747.82C1388.8 3753.43 1387.14 3759.18 1385.24 3764.88C1379.16 3788.05 1377.68 3812.18 1380.87 3835.92C1381.69 3842.16 1382.83 3848.37 1384.21 3854.5C1383.29 3852.85 1382.37 3851.19 1381.5 3849.46C1367.22 3821.46 1358.48 3790.98 1355.75 3759.67C1355.23 3754.03 1354.96 3748.39 1354.8 3742.71C1359.21 3708.04 1371.45 3674.83 1390.59 3645.58C1412.94 3610.89 1443.75 3582.45 1480.13 3562.96C1498.21 3553.34 1517.58 3546.39 1537.65 3542.31C1547.67 3540.35 1557.82 3539.11 1568.01 3538.59C1578.24 3538.16 1588.48 3538.4 1598.67 3539.3C1639.75 3543.46 1679.09 3558.04 1712.96 3581.65C1747.07 3604.85 1774.26 3636.87 1791.64 3674.28C1808.29 3711.98 1813.93 3753.61 1807.92 3794.38C1803.27 3827.66 1791.89 3859.65 1774.47 3888.39C1765.76 3902.68 1755.57 3916.01 1744.08 3928.17C1732.65 3940.41 1719.86 3951.31 1705.96 3960.65V3960.65ZM2066.15 3743.39C2056.02 3806.17 2028.99 3865 1987.95 3913.57C1978.82 3924.3 1968.99 3934.41 1958.54 3943.85L1941.74 3958.18C1935.83 3962.71 1929.7 3967.11 1923.59 3971.75C1897.7 3989.72 1869.76 4004.53 1840.35 4015.86C1809.97 4027.57 1778.4 4035.88 1746.2 4040.64C1684.42 4049.89 1621.42 4046.85 1560.82 4031.68C1534.83 4025.23 1509.48 4016.42 1485.09 4005.36C1465.11 3996.39 1445.92 3985.75 1427.73 3973.54C1423.74 3970.99 1420.16 3968.11 1416.61 3965.67L1411.45 3961.95C1409.82 3960.7 1408.28 3959.4 1406.73 3958.21L1398.1 3951.26C1395.39 3949.06 1393.08 3946.81 1390.83 3944.83C1383.21 3938.32 1376.59 3931.26 1370.35 3925.16C1364.11 3919.05 1358.92 3912.84 1354.91 3907.36C1348.17 3898.92 1341.93 3890.09 1336.21 3880.93L1328.07 3866.96C1325.66 3862.1 1323.27 3857.22 1320.85 3852.36C1311.76 3832.47 1304.91 3811.61 1300.45 3790.2C1295.94 3768.55 1293.96 3746.45 1294.54 3724.35C1294.98 3702.09 1297.9 3679.94 1303.25 3658.33C1314.27 3614.69 1335.96 3574.47 1366.36 3541.28C1381.76 3524.71 1399.01 3509.96 1417.77 3497.32C1436.59 3484.55 1456.84 3474.05 1478.12 3466.04C1484.52 3463.62 1491.03 3461.48 1497.57 3459.5C1494.86 3461.45 1492.15 3463.38 1489.43 3465.39C1454.08 3491.12 1423.07 3522.35 1397.59 3557.88C1371.85 3593.6 1353.75 3634.24 1344.43 3677.27C1340.43 3696.91 1338.46 3716.92 1338.57 3736.96C1337.67 3743.47 1337.05 3750.02 1336.73 3756.61L1336.46 3761.74V3771.99L1336.7 3777.12C1336.92 3780.54 1336.94 3783.96 1337.35 3787.35L1338.49 3797.55C1340.45 3811.07 1343.55 3824.41 1347.74 3837.41C1352.05 3850.34 1357.4 3862.9 1363.73 3874.96C1370.04 3886.98 1377.3 3898.47 1385.43 3909.34C1389.42 3914.77 1393.79 3920.03 1398.13 3925.24C1402.47 3930.45 1407.14 3935.33 1412.02 3940.05C1450.51 3978.73 1499.47 4005.29 1552.87 4016.46C1581.35 4022.19 1610.64 4022.67 1639.29 4017.9C1653.56 4015.54 1667.6 4011.99 1681.27 4007.26C1694.87 4002.47 1708.09 3996.63 1720.8 3989.82C1733.5 3983.04 1745.65 3975.26 1757.13 3966.56C1768.63 3957.95 1779.51 3948.54 1789.69 3938.4C1810.03 3918.05 1827.47 3895 1841.51 3869.89C1855.64 3844.78 1866.01 3817.72 1872.28 3789.6C1875.41 3775.51 1877.38 3761.19 1878.17 3746.78C1879.01 3732.42 1878.77 3718.02 1877.44 3703.7C1874.86 3675.02 1868.23 3646.86 1857.74 3620.05C1847.05 3593.28 1832.54 3568.21 1814.65 3545.62C1778.71 3500.35 1730.92 3465.93 1676.6 3446.18C1649.51 3436.3 1621.11 3430.51 1592.32 3429C1590.42 3429 1588.52 3429 1586.6 3428.84C1599.87 3423.17 1613.38 3417.98 1627.11 3413.64C1657.41 3404.13 1688.68 3398.05 1720.34 3395.52C1751.93 3393.22 1783.69 3394.96 1814.84 3400.67C1822.55 3402.41 1830.34 3403.71 1837.91 3406.1L1849.3 3409.25L1860.53 3412.99L1866.15 3414.86C1868 3415.51 1869.81 3416.3 1871.58 3417.01L1882.59 3421.38C1886.23 3422.87 1889.78 3424.66 1893.45 3426.26C1897.11 3427.86 1900.67 3429.46 1904.11 3431.42C1911.06 3435.13 1918.14 3438.66 1924.79 3442.92C1928.15 3444.98 1931.6 3446.94 1934.88 3449.11L1944.65 3455.81C1946.25 3456.92 1947.9 3458.01 1949.5 3459.17L1954.17 3462.78L1963.53 3470L1972.46 3477.73C1975.47 3480.45 1978.46 3482.89 1981.2 3485.71C2004.14 3507.28 2023.39 3532.47 2038.18 3560.27C2053 3588 2062.82 3618.13 2067.18 3649.27C2071.58 3680.51 2071.27 3712.24 2066.23 3743.39H2066.15Z" fill="#FFDDBE"/>
<path d="M-211.696 3062.91C-233.738 3070.78 -254.318 3082.25 -272.595 3096.87C-290.718 3111.54 -306.613 3128.76 -319.781 3147.99C-328.647 3161.17 -336.308 3175.13 -342.67 3189.69L-344.994 3195.15C-345.773 3196.98 -346.673 3198.81 -347.211 3200.68L-351.256 3211.9L-354.669 3223.3C-355.284 3225.2 -355.758 3227.13 -356.172 3229.06L-357.552 3234.86C-361.122 3250.36 -363.285 3266.16 -364.013 3282.05C-364.591 3297.93 -363.869 3313.82 -361.855 3329.58C-361.265 3333.51 -360.893 3337.46 -360.126 3341.37L-357.943 3353.11L-355.217 3364.69C-354.331 3368.59 -353.101 3372.35 -352.062 3376.18C-347.563 3391.41 -341.982 3406.3 -335.363 3420.74C-328.648 3435.13 -320.952 3449.04 -312.328 3462.38L-312.191 3462.58C-310.324 3471.69 -307.894 3480.68 -304.913 3489.49C-291.273 3529.41 -266.88 3564.8 -234.42 3591.75C-218.218 3605.18 -200.086 3616.1 -180.633 3624.13C-161.163 3632.07 -140.644 3637.14 -119.718 3639.18C-96.4548 3641.39 -72.992 3640.08 -50.1184 3635.3C-27.189 3630.64 -5.15959 3622.32 15.1251 3610.65C35.3162 3598.86 53.5186 3583.95 69.0603 3566.48C84.4019 3548.97 97.4013 3529.55 107.731 3508.69C117.932 3487.87 125.875 3466.03 131.425 3443.52C132.66 3437.89 134.157 3432.3 135.127 3426.59L136.737 3418.08L138.002 3409.51C138.974 3403.82 139.361 3398.04 139.991 3392.3C140.266 3389.43 140.621 3386.56 140.815 3383.68L141.219 3375.02C142.293 3351.93 141.201 3328.79 137.957 3305.9C134.595 3283.02 128.983 3260.52 121.202 3238.74C113.423 3216.91 103.313 3195.98 91.0466 3176.31C78.7586 3156.58 64.0265 3138.49 47.2008 3122.47C30.4668 3106.25 11.5134 3092.49 -9.09102 3081.6C-29.5926 3070.6 -51.4449 3062.33 -74.092 3057C-96.7329 3051.58 -120.004 3049.24 -143.27 3050.06C-166.596 3050.87 -189.665 3055.21 -211.696 3062.91ZM-302.792 3412.05C-301.021 3378.68 -291.311 3346.21 -274.47 3317.35C-266.082 3302.97 -256.097 3289.59 -244.708 3277.46L-240.372 3273C-238.906 3271.52 -237.504 3269.99 -235.928 3268.65L-226.684 3260.37L-216.887 3252.77C-213.556 3250.3 -210.033 3248.21 -206.64 3245.78C-178.737 3227.99 -146.938 3217.23 -113.967 3214.43C-79.2837 3211.55 -44.4607 3217.99 -13.1026 3233.08C12.2302 3245.05 34.9723 3261.86 53.8376 3282.57C49.319 3278.5 44.6211 3274.66 39.7443 3271.06C7.17811 3247.49 -31.9521 3234.72 -72.1493 3234.54C-92.1708 3234.38 -112.071 3237.66 -130.977 3244.25C-149.919 3250.97 -167.48 3261.08 -182.801 3274.09C-213.302 3300.24 -234.747 3335.37 -244.068 3374.45C-248.797 3393.87 -250.27 3413.94 -248.425 3433.85C-246.55 3453.84 -240.979 3473.3 -231.995 3491.25C-214.105 3527.07 -184.073 3555.95 -148.719 3573.92C-147.16 3574.73 -145.566 3575.47 -143.993 3576.21C-144.723 3576.03 -145.436 3575.83 -146.167 3575.66C-147.569 3575.3 -148.968 3574.98 -150.334 3574.58L-154.419 3573.29C-157.159 3572.39 -159.944 3571.67 -162.597 3570.62C-173.466 3566.79 -184.042 3562.17 -194.241 3556.81C-204.444 3551.39 -214.286 3545.32 -223.707 3538.63C-233.109 3531.87 -242.115 3524.58 -250.68 3516.79C-259.201 3508.92 -267.295 3500.6 -274.929 3491.87C-282.507 3483.08 -289.637 3473.91 -296.291 3464.41C-297.084 3463.26 -297.837 3462.11 -298.57 3460.96C-302.123 3444.91 -303.542 3428.47 -302.792 3412.05ZM63.3709 3312.41C65.1502 3314.88 67.0574 3317.23 68.6954 3319.91L73.6356 3327.57L78.0475 3335.57C79.5044 3338.23 80.6574 3341.05 81.9829 3343.81C86.9212 3354.95 90.6235 3366.61 93.0244 3378.56C97.795 3402.54 96.9074 3427.3 90.4314 3450.87C86.478 3464.49 80.4071 3477.4 72.4417 3489.13C76.07 3479.62 78.743 3469.77 80.4213 3459.73C83.6594 3441.31 83.1897 3422.42 79.0393 3404.18C76.4145 3392.42 71.7903 3381.2 65.3682 3371.01C60.7991 3363.98 57.1912 3360.81 55.9919 3360.97C54.7927 3361.13 57.4647 3366.41 61.1884 3375.44C66.1804 3387.48 69.4832 3400.16 71.0036 3413.11C72.9067 3429.72 71.9708 3446.53 68.2359 3462.83C64.7138 3478.47 58.7147 3493.46 50.4649 3507.21C47.563 3512.07 44.3499 3516.74 40.8463 3521.18C25.3179 3532.54 7.5353 3540.43 -11.3023 3544.33C-23.1427 3546.75 -35.2715 3547.45 -47.3125 3546.41L-56.2442 3545.17C-59.1948 3544.61 -62.0832 3543.84 -65.019 3543.21C-70.8166 3541.73 -76.4685 3539.73 -81.9054 3537.24C-103.829 3526.84 -122.032 3509.96 -134.056 3488.88C-140.119 3478.46 -144.501 3467.15 -147.042 3455.36C-148.29 3449.54 -149.035 3443.61 -149.27 3437.66C-149.49 3431.7 -149.148 3425.73 -148.247 3419.84C-144.928 3396.23 -131.105 3374.83 -112.338 3359.95C-102.924 3352.45 -92.3475 3346.54 -81.0266 3342.45C-69.7699 3338.4 -57.872 3336.42 -45.9097 3336.61C-34.0599 3336.9 -22.4102 3339.73 -11.749 3344.91C-1.21339 3350.32 8.00505 3357.98 15.2539 3367.34C29.9844 3386.47 37.2133 3410.32 35.5793 3434.4C34.8321 3446.23 31.4333 3457.75 25.6345 3468.09C22.7097 3473.16 19.1798 3477.86 15.1226 3482.08C11.0328 3486.28 6.43343 3489.95 1.43127 3493.01C-18.6839 3505.34 -44.4681 3507.97 -67.426 3501.68C-78.8759 3498.59 -89.5182 3493.05 -98.6182 3485.44C-103.104 3481.65 -107.091 3477.31 -110.483 3472.52C-113.825 3467.68 -116.623 3462.49 -118.826 3457.04C-125.683 3439.15 -126.061 3418.38 -118.514 3401.07C-116.671 3396.76 -114.348 3392.68 -111.588 3388.89C-110.891 3387.96 -110.089 3387.09 -109.369 3386.2C-108.649 3385.28 -107.88 3384.41 -107.065 3383.58L-104.58 3381.22C-104.156 3380.83 -103.753 3380.42 -103.327 3380.04L-101.943 3379.01C-94.5621 3373.33 -85.9399 3369.48 -76.7838 3367.78C-67.6178 3366.11 -58.1935 3366.49 -49.1926 3368.9C-40.3708 3371.2 -32.4078 3376.01 -26.2736 3382.75C-20.1903 3389.46 -16.5415 3398.02 -15.9149 3407.05C-15.1373 3416.33 -16.7098 3425.66 -20.4876 3434.18C-20.8734 3435.03 -21.7536 3436.85 -22.276 3437.73C-24.3758 3441.52 -26.8838 3445.06 -29.7552 3448.3C-31.563 3450.44 -32.5835 3451.54 -33.1734 3452.33C-34.3499 3453.94 -33.6782 3454.36 -36.769 3456.84C-39.676 3459.02 -42.814 3460.87 -46.1258 3462.37C-47.6415 3462.92 -49.0585 3463.71 -50.3223 3464.71C-50.6394 3465.19 -49.8429 3465.44 -47.7961 3465.43C-44.4934 3465.3 -41.2366 3464.61 -38.1662 3463.38C-32.6696 3461.31 -27.6542 3458.13 -23.4253 3454.05C-17.363 3448.28 -12.6538 3441.23 -9.6359 3433.42C-5.52197 3423.2 -4.2098 3412.06 -5.83472 3401.15C-7.06788 3392.78 -10.3966 3384.85 -15.5115 3378.11C-16.6432 3376.71 -17.8666 3375.4 -19.0739 3374.05C-20.2755 3372.66 -21.608 3371.39 -23.0528 3370.25C-24.4312 3368.98 -25.9117 3367.82 -27.4799 3366.79L-31.6863 3364.06C-33.1431 3363.29 -34.6363 3362.56 -36.1112 3361.81C-36.8569 3361.46 -37.5698 3361.02 -38.35 3360.73L-40.6705 3359.85C-42.2274 3359.31 -43.7567 3358.62 -45.3579 3358.26C-51.752 3356.42 -58.3594 3355.43 -65.0105 3355.32C-66.6788 3355.34 -68.3405 3355.44 -69.9857 3355.5C-70.8149 3355.57 -71.6524 3355.54 -72.4732 3355.71L-74.9507 3356.04C-76.6007 3356.28 -78.2591 3356.42 -79.8794 3356.77L-84.7533 3357.92C-91.204 3359.6 -97.3735 3362.22 -103.066 3365.69C-110.199 3370.03 -116.413 3375.73 -121.356 3382.46C-126.826 3389.92 -130.837 3398.36 -133.178 3407.31C-138.137 3426.69 -136.41 3447.18 -128.277 3465.45C-122.101 3479.33 -112.215 3491.24 -99.7083 3499.87C-97.7358 3501.33 -95.6272 3502.53 -93.571 3503.8C-91.5148 3505.08 -89.3946 3506.17 -87.3239 3507.15C-71.7407 3514.58 -54.54 3517.96 -37.3058 3516.99C-28.0751 3516.53 -18.955 3514.77 -10.2081 3511.79C-1.24424 3508.7 7.16323 3504.18 14.6908 3498.42C22.2881 3492.56 28.7804 3485.39 33.8631 3477.25C38.89 3469.19 42.5387 3460.34 44.6594 3451.07C46.8025 3442.04 47.6456 3432.74 47.1634 3423.47C46.7463 3414.44 45.2449 3405.49 42.691 3396.82C37.803 3380.21 29.0239 3365.01 17.0825 3352.48C4.68893 3339.61 -11.3005 3330.8 -28.7911 3327.18C-46.1014 3323.75 -63.9964 3324.75 -80.816 3330.09C-97.4948 3335.33 -112.858 3344.08 -125.873 3355.76C-139.032 3367.47 -149.187 3382.17 -155.483 3398.62C-161.471 3415.25 -163.245 3433.1 -160.646 3450.59C-158.032 3467.88 -151.898 3484.46 -142.623 3499.29C-133.418 3514.12 -121.411 3527.01 -107.274 3537.25C-100.156 3542.35 -92.5131 3546.68 -84.4747 3550.16C-80.4659 3551.91 -76.3553 3553.41 -72.1652 3554.67C-67.9472 3555.88 -63.6603 3556.73 -59.398 3557.77C-42.1695 3560.77 -24.5199 3560.37 -7.44521 3556.59C-2.95448 3555.61 1.49625 3554.4 5.87307 3553.02C4.72539 3553.79 3.57799 3554.57 2.36775 3555.3C-17.126 3567.41 -38.77 3575.64 -61.3794 3579.54C-65.4541 3580.27 -69.5438 3580.81 -73.6599 3581.28C-99.1582 3580.19 -124.076 3573.32 -146.531 3561.19C-173.143 3547.06 -195.72 3526.38 -212.137 3501.11C-220.24 3488.55 -226.488 3474.88 -230.689 3460.53C-232.727 3453.36 -234.253 3446.05 -235.255 3438.66C-236.195 3431.25 -236.652 3423.78 -236.622 3416.31C-236.113 3386.17 -227.919 3356.65 -212.815 3330.56C-198.024 3304.32 -176.401 3282.57 -150.241 3267.63C-123.837 3253.2 -93.8905 3246.54 -63.8617 3248.42C-39.3584 3249.76 -15.3857 3256.08 6.59588 3266.99C17.524 3272.45 27.8493 3279.05 37.4017 3286.66C47.0094 3294.23 55.7221 3302.87 63.3709 3312.41V3312.41ZM-116.794 3063.66C-70.4988 3067.18 -26.036 3083.24 11.8233 3110.12C20.1852 3116.11 28.1472 3122.64 35.6591 3129.66L47.113 3141C50.7727 3145.03 54.347 3149.22 58.0973 3153.38C72.7643 3171.11 85.2552 3190.54 95.3032 3211.24C105.686 3232.62 113.668 3255.09 119.102 3278.23C129.623 3322.61 131.273 3368.63 123.957 3413.65C120.856 3432.96 116.001 3451.94 109.451 3470.37C104.15 3485.46 97.58 3500.07 89.8121 3514.05C88.201 3517.11 86.3277 3519.89 84.7689 3522.63L82.3807 3526.61C81.5725 3527.87 80.7194 3529.07 79.9456 3530.27L75.4207 3536.98C73.9881 3539.09 72.4912 3540.9 71.1881 3542.66C66.9177 3548.61 62.1908 3553.86 58.1316 3558.77C54.0724 3563.69 49.8692 3567.84 46.1276 3571.1C40.3974 3576.52 34.3601 3581.6 28.0456 3586.32L18.3778 3593.1C14.9921 3595.16 11.5848 3597.19 8.19906 3599.25C-5.71818 3607.09 -20.469 3613.35 -35.7782 3617.91C-51.253 3622.52 -67.2098 3625.32 -83.3293 3626.25C-99.5529 3627.29 -115.842 3626.52 -131.896 3623.96C-164.324 3618.61 -194.917 3605.3 -220.933 3585.22C-233.933 3575.03 -245.721 3563.38 -256.069 3550.5C-266.512 3537.6 -275.395 3523.51 -282.532 3508.52C-284.682 3504.01 -286.641 3499.4 -288.483 3494.76C-286.896 3496.62 -285.327 3498.47 -283.7 3500.33C-262.808 3524.47 -238.186 3545.12 -210.767 3561.48C-183.202 3578.02 -152.521 3588.69 -120.642 3592.83C-106.105 3594.54 -91.4293 3594.74 -76.8503 3593.43C-72.0568 3593.69 -67.2546 3593.74 -62.4439 3593.57L-58.6958 3593.45L-51.2333 3592.83L-47.5172 3592.33C-45.0431 3591.97 -42.5572 3591.74 -40.1144 3591.23L-32.7613 3589.78C-23.0428 3587.52 -13.5315 3584.45 -4.32793 3580.6C4.81382 3576.67 13.6236 3572.02 22.015 3566.67C30.3698 3561.34 38.2884 3555.35 45.6966 3548.77C49.4004 3545.53 52.9626 3542.03 56.4868 3538.55C60.011 3535.08 63.2783 3531.38 66.4139 3527.54C92.1904 3497.16 108.513 3459.91 113.369 3420.37C115.788 3399.3 114.347 3377.96 109.115 3357.4C106.526 3347.17 103.076 3337.17 98.8018 3327.52C94.4775 3317.91 89.4233 3308.65 83.6833 3299.82C77.9697 3290.99 71.5672 3282.63 64.536 3274.81C57.5635 3266.97 50.0484 3259.63 42.0466 3252.85C25.996 3239.3 8.15219 3228.02 -10.9803 3219.34C-30.1188 3210.6 -50.4363 3204.72 -71.2836 3201.88C-81.7254 3200.47 -92.2653 3199.91 -102.798 3200.22C-113.298 3200.49 -123.763 3201.55 -134.103 3203.4C-154.81 3207.03 -174.895 3213.58 -193.759 3222.86C-212.576 3232.28 -229.927 3244.38 -245.269 3258.78C-276 3287.71 -298.113 3324.59 -309.156 3365.32C-314.68 3385.64 -317.15 3406.66 -316.484 3427.69C-316.368 3429.08 -316.251 3430.46 -316.251 3431.87C-321.191 3422.56 -325.791 3413.05 -329.792 3403.33C-338.573 3381.87 -344.914 3359.48 -348.697 3336.61C-352.304 3313.76 -352.991 3290.55 -350.742 3267.53C-349.951 3261.82 -349.481 3256.07 -348.208 3250.42L-346.617 3241.93L-344.582 3233.53L-343.564 3229.33C-343.204 3227.94 -342.742 3226.57 -342.337 3225.25L-339.834 3216.96C-338.971 3214.23 -337.887 3211.53 -336.947 3208.77C-336.007 3206 -335.06 3203.32 -333.849 3200.69C-331.571 3195.41 -329.439 3190.04 -326.747 3184.94C-325.453 3182.37 -324.243 3179.74 -322.865 3177.22L-318.588 3169.7C-317.876 3168.47 -317.188 3167.2 -316.437 3165.96L-314.098 3162.34L-309.421 3155.09L-304.342 3148.12C-302.552 3145.76 -300.959 3143.44 -299.073 3141.28C-284.784 3123.26 -267.638 3107.71 -248.317 3095.24C-229.049 3082.76 -207.731 3073.77 -185.342 3068.68C-162.878 3063.56 -139.773 3061.85 -116.799 3063.6L-116.794 3063.66Z" fill="#BED4E6"/>
</g>
<defs>
<clipPath id="clip0_5001_5328">
<rect width="1440" height="4000" fill="white"/>
</clipPath>
</defs>
</svg>
