<svg width="65" height="65" viewBox="0 0 65 65" fill="none" xmlns="http://www.w3.org/2000/svg">
<rect x="0.509766" y="0.514648" width="63.5641" height="63.5641" rx="15.891" fill="white"/>
<path fill-rule="evenodd" clip-rule="evenodd" d="M17.7246 20.1635C17.7246 19.5179 17.981 18.8988 18.4375 18.4424C18.894 17.9859 19.5131 17.7295 20.1586 17.7295H44.4215C44.7414 17.729 45.0583 17.7916 45.354 17.9137C45.6497 18.0358 45.9184 18.215 46.1447 18.4411C46.3711 18.6671 46.5506 18.9357 46.673 19.2312C46.7954 19.5268 46.8583 19.8436 46.8582 20.1635V44.4264C46.8585 44.7464 46.7958 45.0633 46.6735 45.359C46.5513 45.6547 46.3719 45.9234 46.1457 46.1497C45.9196 46.376 45.651 46.5555 45.3553 46.6779C45.0597 46.8003 44.7428 46.8632 44.4229 46.8631H20.1586C19.8388 46.8631 19.5222 46.8001 19.2268 46.6777C18.9314 46.5553 18.6631 46.3758 18.437 46.1497C18.211 45.9235 18.0317 45.6551 17.9095 45.3596C17.7873 45.0641 17.7244 44.7475 17.7246 44.4278V20.1635ZM29.2562 28.8373H33.2012V30.8184C33.7706 29.6796 35.2273 28.6546 37.4162 28.6546C41.6128 28.6546 42.6073 30.923 42.6073 35.0852V42.795H38.3604V36.0333C38.3604 33.6629 37.791 32.3254 36.3449 32.3254C34.3387 32.3254 33.5044 33.7675 33.5044 36.0333V42.795H29.2562V28.8373ZM21.9728 42.6135H26.221V28.6546H21.9728V42.6122V42.6135ZM26.8288 24.1018C26.8369 24.4655 26.7721 24.8272 26.6385 25.1656C26.5048 25.504 26.3049 25.8123 26.0505 26.0723C25.7961 26.3324 25.4923 26.5391 25.1569 26.6801C24.8216 26.8212 24.4614 26.8939 24.0976 26.8939C23.7338 26.8939 23.3736 26.8212 23.0382 26.6801C22.7029 26.5391 22.3991 26.3324 22.1447 26.0723C21.8902 25.8123 21.6903 25.504 21.5567 25.1656C21.423 24.8272 21.3583 24.4655 21.3663 24.1018C21.382 23.3878 21.6767 22.7084 22.1872 22.209C22.6977 21.7096 23.3834 21.43 24.0976 21.43C24.8117 21.43 25.4975 21.7096 26.008 22.209C26.5185 22.7084 26.8131 23.3878 26.8288 24.1018Z" fill="#FF902E"/>
</svg>
