<svg width="144" height="198" viewBox="0 0 144 198" fill="none" xmlns="http://www.w3.org/2000/svg">
<path d="M140.134 88.6037C140.064 89.9114 139.763 91.1504 139.272 92.2909L138.976 92.9239L138.214 94.554L137.526 96.0259L125.565 121.612L125.492 121.765L125.48 121.794C125.33 122.153 125.239 122.541 125.218 122.95C125.215 123.013 125.215 123.075 125.215 123.138V137.621H125.212C125.212 137.77 125.209 137.92 125.2 138.069C125.176 138.508 125.119 138.938 125.028 139.356C124.458 142.025 122.601 144.201 120.154 145.27C118.963 145.79 117.631 146.049 116.241 145.975C115.123 145.915 114.067 145.646 113.112 145.21C110.978 144.237 109.332 142.422 108.593 140.222C108.355 139.511 108.213 138.759 108.18 137.979V122.49C108.18 121.992 108.192 121.493 108.219 120.988C108.271 120.048 108.367 119.122 108.509 118.209C108.889 115.764 109.588 113.426 110.565 111.24L110.957 110.41L117.025 97.4351L117.022 97.4321C117.187 97.0887 117.29 96.7066 117.311 96.3006C117.395 94.7301 116.247 93.3717 114.694 93.1388L114.541 93.1179H114.538L113.588 92.9985L54.872 85.5763L42.8382 84.0567L42.6995 84.0387C37.189 83.3162 32.9477 78.9394 32.4111 73.5802C32.2513 71.9023 32.1699 70.2005 32.1699 68.4838C32.1699 38.5832 56.6445 14.3462 86.8346 14.3462C112.03 14.3462 133.243 31.2267 139.573 54.1918C139.706 54.6695 139.829 55.1502 139.95 55.6339C140.034 56.1146 140.076 56.6102 140.076 57.1177C140.076 61.9663 136.109 65.8953 131.214 65.8953C127.105 65.8953 123.648 63.1247 122.644 59.3659C122.62 59.2643 122.592 59.1628 122.568 59.0613C118.559 43.2944 104.147 31.6238 86.9823 31.6238C68.5729 31.6238 53.3286 45.05 50.6909 62.5574C50.6728 62.6619 50.6578 62.7664 50.6427 62.8739C50.6336 62.9426 50.6216 63.0142 50.6156 63.0859C50.6095 63.1546 50.6035 63.2202 50.6005 63.2889C50.495 65.2534 51.8214 66.9642 53.6813 67.4508L54.7695 67.5882L55.1614 67.6389L122.74 76.1807L130.37 77.145L130.466 77.157C134.488 77.6794 137.788 80.2888 139.284 83.7909C139.914 85.2658 140.227 86.8989 140.134 88.6037Z" fill="#2E75AD"/>
<path d="M90.3098 4.12375C90.2948 4.41932 90.0385 4.64622 89.7371 4.63129C88.6971 4.58651 87.6511 4.56561 86.599 4.56561C46.0241 4.56561 13.133 37.1414 13.133 77.3274C13.133 107.765 32.0007 133.839 58.7874 144.697C58.9893 144.784 59.125 144.987 59.1099 145.214C59.0949 145.509 58.8386 145.736 58.5372 145.721C58.5191 145.721 58.501 145.718 58.4859 145.718C58.4859 145.718 58.4859 145.718 58.4829 145.718C58.4558 145.712 58.4256 145.706 58.3985 145.697C58.3955 145.694 58.3865 145.694 58.3804 145.691C26.2792 137.899 2.46777 109.216 2.46777 75.0225C2.46777 34.8365 35.3588 2.26074 75.9338 2.26074C80.6906 2.26074 85.342 2.71156 89.8456 3.56544C90.1079 3.60426 90.3098 3.85803 90.3098 4.12375Z" fill="#2E75AD"/>
<path d="M75.141 165.058C72.9434 165.058 70.8815 163.715 70.0857 161.553C69.0698 158.788 70.5077 155.731 73.2991 154.725L98.241 145.735C101.032 144.729 104.119 146.153 105.135 148.918C106.151 151.683 104.713 154.74 101.922 155.746L76.9798 164.736C76.3739 164.954 75.7529 165.058 75.141 165.058Z" fill="#2E75AD"/>
<path d="M88.0668 193.783C85.8692 193.783 83.8073 192.44 83.0115 190.278C81.9956 187.514 83.4335 184.456 86.2249 183.45L111.167 174.461C113.958 173.454 117.045 174.879 118.061 177.643C119.077 180.408 117.639 183.465 114.847 184.471L89.9056 193.461C89.2997 193.679 88.6787 193.783 88.0668 193.783Z" fill="#2E75AD"/>
<path d="M77.9144 180.729C75.7169 180.729 73.655 179.386 72.8591 177.224C71.8433 174.46 73.2812 171.402 76.0726 170.396L114.001 156.725C116.792 155.719 119.879 157.143 120.895 159.908C121.911 162.672 120.473 165.73 117.682 166.736L79.7533 180.407C79.1443 180.625 78.5234 180.729 77.9144 180.729Z" fill="#2E75AD"/>
</svg>
