<svg width="176" height="189" viewBox="0 0 176 189" fill="none" xmlns="http://www.w3.org/2000/svg">
<path fill-rule="evenodd" clip-rule="evenodd" d="M0.885742 27.6637C0.885742 24.2675 3.42047 21.4006 6.8033 20.9707L168.054 0.47719C172.104 -0.03746 175.687 3.10471 175.687 7.17014V160.166C175.687 164.119 172.291 167.225 168.336 166.889L133.653 163.944C131.135 163.73 129.504 161.174 129.602 158.648C129.611 158.423 129.615 158.197 129.615 157.97V106.691C129.615 97.1884 121.88 89.4853 112.339 89.4853C102.797 89.4853 95.0617 97.1884 95.0617 106.691V157.97C95.0617 159.356 93.9402 160.571 92.5591 160.454L81.6793 159.53C79.6686 159.359 78.1236 157.677 78.1236 155.66V118.161C78.1236 109.777 71.2984 102.98 62.8792 102.98C54.46 102.98 47.6349 109.777 47.6349 118.161V159.424L46.664 188.669L21.1992 154.394L7.08534 153.196C3.57934 152.898 0.885742 149.977 0.885742 146.473V27.6637ZM81.5112 80.0392C81.5112 89.3551 73.9277 96.9072 64.5731 96.9072C55.2184 96.9072 47.6349 89.3551 47.6349 80.0392C47.6349 70.7232 55.2184 63.1711 64.5731 63.1711C73.9277 63.1711 81.5112 70.7232 81.5112 80.0392ZM112.677 78.015C122.032 78.015 129.615 70.4629 129.615 61.1469C129.615 51.8309 122.032 44.2789 112.677 44.2789C103.323 44.2789 95.7392 51.8309 95.7392 61.1469C95.7392 70.4629 103.323 78.015 112.677 78.015Z" fill="#FF902E"/>
</svg>
