<svg width="65" height="65" viewBox="0 0 65 65" fill="none" xmlns="http://www.w3.org/2000/svg">
<rect x="0.678711" y="0.514648" width="63.5641" height="63.5641" rx="15.891" fill="white"/>
<path d="M47.879 22.9434C46.7733 23.4334 45.5854 23.7645 44.3367 23.9141C45.6251 23.1431 46.5891 21.9297 47.0487 20.5002C45.8381 21.2192 44.5132 21.7254 43.1316 21.9966C42.2025 21.0045 40.9718 20.347 39.6307 20.126C38.2896 19.9051 36.913 20.1331 35.7148 20.7746C34.5165 21.4162 33.5636 22.4354 33.0039 23.674C32.4442 24.9126 32.3092 26.3014 32.6197 27.6247C30.1667 27.5015 27.7671 26.8639 25.5765 25.7534C23.3859 24.6428 21.4534 23.084 19.9042 21.1782C19.3745 22.0919 19.0699 23.1513 19.0699 24.2796C19.0693 25.2953 19.3194 26.2954 19.7981 27.1913C20.2767 28.0871 20.9691 28.851 21.8138 29.415C20.8342 29.3839 19.8762 29.1192 19.0196 28.643V28.7225C19.0195 30.147 19.5123 31.5277 20.4143 32.6303C21.3163 33.7329 22.572 34.4895 23.9683 34.7716C23.0596 35.0176 22.1069 35.0538 21.1821 34.8776C21.5761 36.1033 22.3435 37.1752 23.3769 37.9431C24.4103 38.7111 25.658 39.1366 26.9452 39.1602C24.76 40.8757 22.0612 41.8062 19.2831 41.8021C18.791 41.8022 18.2993 41.7735 17.8105 41.716C20.6305 43.5292 23.9132 44.4914 27.2657 44.4877C38.6146 44.4877 44.8187 35.0881 44.8187 26.936C44.8187 26.6712 44.8121 26.4037 44.8001 26.1388C46.0069 25.2661 47.0486 24.1854 47.8764 22.9474L47.879 22.9434Z" fill="#FF902E"/>
</svg>
