<svg width="64" height="65" viewBox="0 0 64 65" fill="none" xmlns="http://www.w3.org/2000/svg">
<rect x="0.09375" y="0.514648" width="63.5641" height="63.5641" rx="15.891" fill="white"/>
<g clip-path="url(#clip0_1708_2592)">
<path d="M47.1042 25.0223C46.9242 24.3803 46.5737 23.7991 46.0898 23.3405C45.5922 22.8677 44.9824 22.5295 44.3179 22.3579C41.831 21.7024 31.8673 21.7024 31.8673 21.7024C27.7136 21.6551 23.5608 21.863 19.4326 22.3248C18.768 22.5091 18.1594 22.8548 17.6607 23.3312C17.1707 23.8026 16.8158 24.384 16.6305 25.0209C16.1851 27.4202 15.9687 29.8562 15.9842 32.2964C15.9683 34.7343 16.1842 37.1696 16.6305 39.5718C16.8119 40.2061 17.1654 40.7848 17.6567 41.2523C18.148 41.7198 18.7598 42.0575 19.4326 42.2362C21.9526 42.8904 31.8673 42.8904 31.8673 42.8904C36.0263 42.9377 40.1844 42.7299 44.3179 42.268C44.9824 42.0963 45.5922 41.7582 46.0898 41.2854C46.5735 40.8269 46.9236 40.2456 47.1028 39.6036C47.5598 37.2053 47.782 34.7682 47.7663 32.3268C47.8007 29.8751 47.5787 27.4265 47.1042 25.0209V25.0223ZM28.6997 36.8306V27.7635L36.9895 32.2977L28.6997 36.8306Z" fill="#FF902E"/>
</g>
<defs>
<clipPath id="clip0_1708_2592">
<rect width="31.7821" height="31.7821" fill="white" transform="translate(15.9844 16.4058)"/>
</clipPath>
</defs>
</svg>
