<svg width="1440" height="781" viewBox="0 0 1440 781" fill="none" xmlns="http://www.w3.org/2000/svg">
<path d="M-109.933 -126.502C-141.863 -129.3 -174.036 -126.768 -205.136 -119.01C-236.069 -111.109 -265.689 -98.7539 -293.067 -82.3313C-311.632 -70.9858 -329.138 -57.9916 -345.372 -43.506L-351.385 -38.0311C-353.404 -36.192 -355.566 -34.4337 -357.306 -32.4077L-368.748 -20.7556L-379.508 -8.5128C-381.36 -6.49801 -383.051 -4.3675 -384.666 -2.20961L-389.698 4.22459C-402.996 21.4825 -414.709 39.9073 -424.692 59.273C-434.48 78.7061 -442.662 98.9077 -449.156 119.675C-450.665 124.9 -452.454 130.023 -453.734 135.331L-457.725 151.198L-460.946 167.169C-462.072 172.532 -462.684 177.906 -463.579 183.266C-466.678 204.796 -468.237 226.519 -468.243 248.271C-468.105 270.02 -466.472 291.734 -463.354 313.259L-463.302 313.595C-466.181 326.001 -468.287 338.573 -469.608 351.24C-475.433 408.725 -465.28 466.703 -440.267 518.788C-427.773 544.764 -411.439 568.711 -391.813 589.823C-372.113 610.824 -349.466 628.853 -324.583 643.343C-296.887 659.377 -266.934 671.151 -235.733 678.268C-204.529 685.561 -172.355 687.785 -140.444 684.853C-108.576 681.705 -77.4035 673.546 -48.0795 660.676C-18.9835 647.646 8.29422 630.887 33.0667 610.821C57.6517 590.739 80.0163 568.084 99.7786 543.242C104.533 536.938 109.591 530.829 114.059 524.278L120.92 514.609L127.394 504.656C131.853 498.13 135.636 491.158 139.698 484.374C141.678 480.963 143.76 477.589 145.647 474.116L151.096 463.564C165.621 435.437 177.478 406.01 186.512 375.671C195.396 345.265 201.26 314.058 204.015 282.501C206.803 250.88 206.174 219.05 202.139 187.564C198.108 155.994 190.103 125.061 178.314 95.4995C166.748 65.7535 151.014 37.8016 131.585 12.4815C112.349 -12.9206 89.8722 -35.6974 64.7272 -55.2689C39.6418 -74.9498 12.0076 -91.1439 -17.4227 -103.41C-46.9198 -115.725 -78.1086 -123.51 -109.933 -126.502ZM-422.737 256.056C-401.472 215.53 -370.843 180.663 -333.394 154.353C-314.743 141.254 -294.673 130.301 -273.566 121.703L-265.621 118.626C-262.953 117.627 -260.334 116.523 -257.603 115.748L-241.371 110.728L-224.832 106.857C-219.276 105.687 -213.7 105.102 -208.086 104.011C-163.194 97.8082 -117.468 102.579 -74.8241 117.916C-30.0064 134.14 9.66048 162.047 40.0711 198.749C64.7705 228.111 83.4754 262.03 95.128 298.587C91.8296 290.936 88.1747 283.474 84.1634 276.201C57.0856 228.269 15.6717 190.024 -34.2602 166.839C-59.0878 155.198 -85.7349 147.921 -113.033 145.326C-140.448 142.871 -168.082 145.426 -194.582 152.867C-247.484 167.997 -294.243 199.476 -328.166 242.798C-345.146 264.272 -358.443 288.416 -367.516 314.245C-376.598 340.196 -380.781 367.608 -379.853 395.086C-378.037 449.88 -357.152 502.985 -323.411 545.553C-321.929 547.443 -320.369 549.275 -318.834 551.097C-319.642 550.46 -320.416 549.806 -321.225 549.168C-322.765 547.921 -324.324 546.724 -325.795 545.444L-330.145 541.51C-333.04 538.821 -336.095 536.335 -338.799 533.515C-350.14 522.537 -360.667 510.749 -370.297 498.244C-379.903 485.673 -388.687 472.496 -396.595 458.793C-404.439 445.011 -411.484 430.788 -417.694 416.197C-423.806 401.537 -429.131 386.561 -433.646 371.332C-438.058 356.062 -441.698 340.579 -444.55 324.943C-444.882 323.064 -445.163 321.203 -445.418 319.352C-440.675 297.347 -433.049 276.065 -422.737 256.056ZM89.9543 341.169C90.7558 345.265 91.7907 349.272 92.296 353.55L94.0726 365.902L94.9958 378.378C95.2897 382.522 95.1111 386.698 95.1895 390.879C94.9692 407.577 92.9206 424.199 89.0812 440.451C81.3246 473.022 66.0779 503.334 44.5523 528.98C31.8537 543.672 16.9228 556.275 0.307719 566.327C10.2569 556.56 19.2097 545.827 27.0339 534.286C41.5883 513.201 51.7909 489.423 57.0435 464.346C60.4908 448.214 61.142 431.609 58.9686 415.256C57.2969 403.895 54.6194 397.882 53.0348 397.397C51.4502 396.912 51.7593 405.013 51.2364 418.381C50.572 436.222 47.4439 453.886 41.9416 470.87C34.8233 492.633 24.0553 513.027 10.0983 531.179C-3.2227 548.644 -19.2478 563.868 -37.3723 576.276C-43.7602 580.668 -50.4256 584.642 -57.3258 588.175C-83.1399 593.439 -109.783 593.106 -135.457 587.199C-151.581 583.456 -167.079 577.401 -181.47 569.222L-191.882 562.583C-195.231 560.193 -198.386 557.584 -201.682 555.126C-208.055 549.976 -213.949 544.26 -219.29 538.047C-240.64 512.581 -253.659 481.176 -256.589 448.074C-258.183 431.639 -257.177 415.055 -253.607 398.933C-251.832 390.967 -249.376 383.167 -246.267 375.621C-243.138 368.077 -239.304 360.845 -234.815 354.022C-217.204 326.54 -187.772 307.79 -155.911 299.983C-139.91 296.026 -123.37 294.712 -106.946 296.094C-90.6196 297.48 -74.679 301.811 -59.8967 308.879C-45.3096 316.002 -32.424 326.176 -22.1124 338.714C-12.0887 351.467 -4.9891 366.267 -1.31597 382.066C6.09694 414.285 1.4728 448.102 -14.3171 477.147C-22.0049 491.448 -32.8107 503.836 -45.9347 513.395C-52.4717 518.037 -59.5486 521.868 -67.0091 524.804C-74.5001 527.699 -82.3234 529.645 -90.2976 530.597C-122.38 534.459 -155.977 523.006 -180.958 502.057C-193.444 491.668 -203.527 478.693 -210.51 464.027C-213.931 456.752 -216.414 449.072 -217.901 441.172C-219.297 433.241 -219.815 425.181 -219.444 417.137C-217.759 390.949 -206.37 364.885 -187.085 347.64C-182.331 343.332 -177.106 339.576 -171.51 336.441C-170.109 335.677 -168.618 335.061 -167.21 334.357C-165.792 333.63 -164.335 332.981 -162.846 332.412L-158.406 330.898C-157.653 330.65 -156.917 330.367 -156.174 330.145L-153.861 329.653C-141.43 326.799 -128.5 326.934 -116.132 330.047C-103.765 333.195 -92.2509 339.051 -82.424 347.193C-72.7554 355.091 -65.593 365.632 -61.809 377.529C-58.067 389.351 -58.4135 402.089 -62.7926 413.69C-67.1267 425.689 -74.4125 436.403 -83.9782 444.845C-84.9426 445.68 -87.08 447.447 -88.2323 448.243C-93.0086 451.757 -98.1552 454.737 -103.58 457.13C-107.053 458.762 -108.952 459.549 -110.135 460.189C-112.519 461.522 -111.923 462.429 -117.191 463.759C-122.053 464.81 -127.017 465.322 -131.991 465.287C-134.192 465.106 -136.407 465.281 -138.552 465.806C-139.223 466.227 -138.375 466.994 -135.82 468.147C-131.635 469.872 -127.186 470.871 -122.665 471.102C-114.636 471.654 -106.579 470.566 -98.9849 467.902C-88.141 464.178 -78.2558 458.099 -70.0391 450.102C-59.0766 439.721 -51.0806 426.604 -46.8755 412.104C-43.628 400.976 -43.2443 389.209 -45.7596 377.894C-46.371 375.51 -47.1466 373.183 -47.8785 370.813C-48.5797 368.395 -49.5114 366.05 -50.6607 363.81C-51.6488 361.437 -52.8299 359.149 -54.1929 356.97L-57.8711 351.173C-59.2436 349.38 -60.6858 347.619 -62.093 345.842C-62.8186 344.975 -63.4566 344.024 -64.2609 343.215L-66.6478 340.797C-68.2747 339.229 -69.7862 337.502 -71.5725 336.136C-78.4838 330.201 -86.1444 325.198 -94.358 321.257C-96.4469 320.33 -98.5726 319.506 -100.654 318.64C-101.726 318.254 -102.752 317.74 -103.87 317.481L-107.142 316.474C-109.332 315.829 -111.476 315.055 -113.696 314.572L-120.417 313.216C-129.407 311.624 -138.581 311.357 -147.648 312.424C-159.007 313.755 -169.996 317.298 -179.993 322.853C-191.067 329.024 -200.876 337.23 -208.906 347.04C-226.147 368.33 -235.698 394.816 -236.013 422.209C-236.252 443.015 -230.748 463.484 -220.107 481.363C-218.488 484.312 -216.545 487.003 -214.716 489.768C-212.886 492.534 -210.872 495.106 -208.853 497.507C-193.696 515.649 -174.219 529.685 -152.213 538.324C-140.456 543.013 -128.103 546.04 -115.51 547.32C-102.586 548.592 -89.5422 547.773 -76.8792 544.896C-64.0765 541.943 -51.9024 536.732 -40.9284 529.507C-30.0636 522.337 -20.4685 513.407 -12.5367 503.085C-4.70742 493.06 1.65183 481.97 6.34922 470.149C10.9866 458.673 14.2267 446.681 15.9994 434.431C19.401 410.966 17.1564 387.028 9.4518 364.605C1.37101 341.516 -13.4951 321.407 -33.199 306.911C-52.7901 292.761 -75.6374 283.788 -99.6216 280.824C-123.377 277.823 -147.499 279.943 -170.367 287.04C-193.434 294.099 -214.469 306.594 -231.703 323.474C-248.655 340.756 -261.061 361.968 -267.812 385.215C-274.436 408.238 -276.268 432.374 -273.195 456.133C-270.207 479.849 -262.626 502.755 -250.875 523.571C-244.93 533.99 -237.888 543.742 -229.869 552.663C-225.878 557.13 -221.621 561.353 -217.122 565.307C-212.566 569.229 -207.716 572.737 -203 576.457C-183.269 590.032 -161.071 599.615 -137.659 604.664C-131.512 606.015 -125.281 607.05 -119.043 607.829C-120.913 608.135 -122.782 608.442 -124.71 608.669C-155.887 612.599 -187.53 610.483 -217.906 602.435C-223.39 601.005 -228.791 599.346 -234.18 597.575C-265.299 581.66 -292.394 558.88 -313.417 530.957C-338.468 498.16 -354.761 459.529 -360.764 418.699C-363.673 398.429 -363.643 377.845 -360.675 357.583C-359.118 347.493 -356.844 337.528 -353.872 327.761C-350.808 317.996 -347.112 308.442 -342.808 299.157C-324.957 261.926 -297.899 229.867 -264.196 206.016C-230.795 181.796 -191.458 167.076 -150.362 163.419C-109.257 160.548 -68.1779 169.361 -31.8689 188.843C-2.13658 204.513 24.0935 226.073 45.2236 252.208C55.7068 265.249 64.7935 279.353 72.3339 294.289C79.9716 309.194 85.8833 324.923 89.9543 341.169ZM7.76865 -71.3668C63.3835 -40.541 109.555 4.8462 141.33 59.9244C148.318 72.1553 154.5 84.8285 159.838 97.8644L167.617 118.524C169.873 125.626 171.928 132.885 174.222 140.202C182.35 170.653 186.803 201.967 187.485 233.477C188.197 266.021 185.301 298.544 178.85 330.45C166.597 391.704 142.364 449.933 107.543 501.795C92.6559 524.056 75.7701 544.912 57.0949 564.105C41.8767 579.861 25.3516 594.3 7.69671 607.267C3.94437 610.154 0.0235374 612.547 -3.47943 615.063L-8.72491 618.652C-10.4513 619.76 -12.2014 620.773 -13.8491 621.823L-23.3104 627.583C-26.2984 629.39 -29.1989 630.795 -31.8261 632.242C-40.5384 637.205 -49.4206 641.04 -57.2806 644.84C-65.1406 648.639 -72.7438 651.407 -79.262 653.325C-89.4887 656.795 -99.9069 659.674 -110.465 661.946L-126.371 664.864C-131.759 665.488 -137.163 666.077 -142.551 666.701C-164.353 668.511 -186.289 667.877 -207.949 664.808C-229.844 661.706 -251.305 656.077 -271.903 648.033C-292.692 640.061 -312.529 629.802 -331.05 617.446C-368.361 592.269 -398.839 558.226 -419.752 518.368C-430.112 498.257 -438.133 477.026 -443.659 455.089C-449.288 433.06 -452.295 410.444 -452.618 387.71C-452.718 380.867 -452.526 374.014 -452.171 367.191C-451.253 370.406 -450.361 373.612 -449.393 376.846C-437.179 418.834 -418.322 458.596 -393.537 494.623C-368.673 530.954 -336.578 561.764 -299.262 585.124C-282.143 595.556 -263.991 604.19 -245.096 610.887C-239.277 613.947 -233.326 616.747 -227.243 619.287L-222.51 621.282L-212.862 624.761L-207.955 626.271C-204.665 627.227 -201.44 628.361 -198.112 629.129L-188.128 631.517C-174.742 634.26 -161.15 635.872 -147.494 636.335C-133.872 636.668 -120.245 635.901 -106.746 634.039C-93.3014 632.175 -80.0257 629.246 -67.0438 625.282C-60.5859 623.371 -54.1521 621.047 -47.7787 618.73C-41.4053 616.414 -35.228 613.681 -29.1299 610.688C20.3034 587.603 61.8989 550.554 90.5265 504.11C105.574 479.261 115.967 451.878 121.195 423.303C123.819 409.083 125.235 394.667 125.429 380.209C125.532 365.784 124.529 351.373 122.428 337.101C120.358 322.85 117.164 308.784 112.878 295.036C108.676 281.296 103.513 267.868 97.4286 254.852C85.1911 228.814 69.4194 204.588 50.5598 182.86C31.7291 161.05 9.79955 142.121 -14.5285 126.68C-26.7194 118.958 -39.5224 112.248 -52.8088 106.617C-66.0322 100.953 -79.6651 96.2975 -93.5903 92.6891C-121.439 85.3829 -150.183 82.0679 -178.964 82.8429C-207.765 83.8174 -236.272 88.9656 -263.594 98.1276C-318.37 116.587 -366.96 149.863 -403.973 194.262C-422.45 216.39 -437.53 241.145 -448.718 267.714C-449.363 269.5 -450.006 271.287 -450.813 273.044C-451.647 258.639 -451.938 244.17 -451.365 229.782C-450.037 198.052 -445.147 166.57 -436.789 135.932C-428.23 105.434 -415.828 76.1486 -399.881 48.7796C-395.633 42.1198 -391.766 35.2361 -386.952 28.9248L-380.125 19.2719L-372.792 9.97523L-369.126 5.32651C-367.887 3.81176 -366.53 2.3686 -365.268 0.948831L-357.422 -7.93218C-354.785 -10.8462 -351.895 -13.5826 -349.146 -16.4853C-346.398 -19.3881 -343.686 -22.1884 -340.679 -24.7672C-334.826 -30.0405 -329.105 -35.5055 -322.843 -40.3139C-319.762 -42.7794 -316.755 -45.3587 -313.599 -47.7108L-303.981 -54.6258C-302.392 -55.7543 -300.809 -56.9433 -299.169 -58.0534L-294.191 -61.2193L-284.226 -67.5768L-273.923 -73.351C-270.349 -75.2638 -267.039 -77.2431 -263.455 -78.8638C-235.379 -93.1259 -205.155 -102.689 -173.985 -107.171C-142.87 -111.708 -111.199 -110.724 -80.4255 -104.266C-49.5392 -97.8093 -19.7994 -86.7449 7.79629 -71.4435L7.76865 -71.3668Z" fill="#FFDDBE"/>
<path d="M1340.3 -219.09C1318.26 -211.223 1297.68 -199.745 1279.4 -185.127C1261.28 -170.464 1245.39 -153.245 1232.22 -134.009C1223.35 -120.826 1215.69 -106.872 1209.33 -92.3149L1207.01 -86.8505C1206.23 -85.0152 1205.33 -83.1899 1204.79 -81.3154L1200.74 -70.0984L1197.33 -58.6968C1196.72 -56.7959 1196.24 -54.867 1195.83 -52.9433L1194.45 -47.1409C1190.88 -31.6381 1188.72 -15.8441 1187.99 0.0478538C1187.41 15.9254 1188.13 31.8236 1190.15 47.5833C1190.73 51.5101 1191.11 55.4552 1191.87 59.3669L1194.06 71.1123L1196.78 82.6925C1197.67 86.5943 1198.9 90.3475 1199.94 94.1768C1204.44 109.409 1210.02 124.3 1216.64 138.737C1223.35 153.129 1231.05 167.042 1239.67 180.377L1239.81 180.585C1241.68 189.694 1244.11 198.679 1247.09 207.488C1260.73 247.411 1285.12 282.796 1317.58 309.745C1333.78 323.18 1351.91 334.098 1371.37 342.132C1390.84 350.071 1411.36 355.14 1432.28 357.178C1455.55 359.386 1479.01 358.078 1501.88 353.3C1524.81 348.638 1546.84 340.316 1567.13 328.654C1587.32 316.86 1605.52 301.953 1621.06 284.482C1636.4 266.975 1649.4 247.546 1659.73 226.685C1669.93 205.872 1677.87 184.027 1683.43 161.522C1684.66 155.891 1686.16 150.297 1687.13 144.588L1688.74 136.082L1690 127.506C1690.97 121.817 1691.36 116.038 1691.99 110.299C1692.27 107.433 1692.62 104.56 1692.82 101.68L1693.22 93.0175C1694.29 69.9281 1693.2 46.7886 1689.96 23.903C1686.59 1.01926 1680.98 -21.4769 1673.2 -43.2585C1665.42 -65.0927 1655.31 -86.0246 1643.05 -105.692C1630.76 -125.415 1616.03 -143.506 1599.2 -159.535C1582.47 -175.754 1563.51 -189.513 1542.91 -200.4C1522.41 -211.4 1500.56 -219.671 1477.91 -225.003C1455.27 -230.425 1432 -232.757 1408.73 -231.936C1385.4 -231.126 1362.34 -226.795 1340.3 -219.09ZM1249.21 130.047C1250.98 96.6762 1260.69 64.2098 1277.53 35.3459C1285.92 20.9728 1295.9 7.59272 1307.29 -4.54106L1311.63 -9.0024C1313.09 -10.478 1314.5 -12.0078 1316.07 -13.3535L1325.32 -21.6283L1335.11 -29.2338C1338.44 -31.7017 1341.97 -33.7882 1345.36 -36.2215C1373.26 -54.0084 1405.06 -64.7664 1438.03 -67.5739C1472.72 -70.4547 1507.54 -64.0131 1538.9 -48.9166C1564.23 -36.952 1586.97 -20.1381 1605.84 0.574284C1601.32 -3.49847 1596.62 -7.33765 1591.74 -10.9428C1559.18 -34.5074 1520.05 -47.2771 1479.85 -47.4586C1459.83 -47.6237 1439.93 -44.339 1421.02 -37.7481C1402.08 -31.0293 1384.52 -20.9185 1369.2 -7.91049C1338.7 18.24 1317.25 53.3695 1307.93 92.4498C1303.2 111.872 1301.73 131.944 1303.57 151.848C1305.45 171.836 1311.02 191.301 1320 209.254C1337.9 245.065 1367.93 273.948 1403.28 291.924C1404.84 292.727 1406.43 293.467 1408.01 294.209C1407.28 294.032 1406.56 293.834 1405.83 293.657C1404.43 293.298 1403.03 292.979 1401.67 292.577L1397.58 291.291C1394.84 290.389 1392.06 289.669 1389.4 288.62C1378.53 284.789 1367.96 280.171 1357.76 274.805C1347.56 269.388 1337.71 263.317 1328.29 256.631C1318.89 249.874 1309.88 242.58 1301.32 234.788C1292.8 226.92 1284.71 218.602 1277.07 209.871C1269.49 201.081 1262.36 191.914 1255.71 182.405C1254.92 181.259 1254.16 180.11 1253.43 178.959C1249.88 162.912 1248.46 146.466 1249.21 130.047ZM1615.37 30.4091C1617.15 32.8835 1619.06 35.2279 1620.7 37.9131L1625.64 45.569L1630.05 53.5675C1631.5 56.2282 1632.66 59.0538 1633.98 61.8051C1638.92 72.9533 1642.62 84.6087 1645.02 96.563C1649.8 120.541 1648.91 145.3 1642.43 168.875C1638.48 182.492 1632.41 195.403 1624.44 207.133C1628.07 197.621 1630.74 187.772 1632.42 177.731C1635.66 159.305 1635.19 140.419 1631.04 122.177C1628.41 110.421 1623.79 99.2034 1617.37 89.0127C1612.8 81.9818 1609.19 78.8066 1607.99 78.9674C1606.79 79.1281 1609.46 84.4103 1613.19 93.441C1618.18 105.484 1621.48 118.158 1623 131.105C1624.91 147.716 1623.97 164.529 1620.24 180.826C1616.71 196.473 1610.71 211.456 1602.46 225.21C1599.56 230.069 1596.35 234.737 1592.85 239.183C1577.32 250.537 1559.54 258.429 1540.7 262.327C1528.86 264.753 1516.73 265.454 1504.69 264.408L1495.76 263.173C1492.81 262.607 1489.92 261.836 1486.98 261.208C1481.18 259.732 1475.53 257.732 1470.09 255.236C1448.17 244.837 1429.97 227.96 1417.94 206.884C1411.88 196.462 1407.5 185.15 1404.96 173.364C1403.71 167.536 1402.97 161.612 1402.73 155.658C1402.51 149.698 1402.85 143.731 1403.75 137.836C1407.07 114.235 1420.9 92.8293 1439.66 77.9462C1449.08 70.4476 1459.65 64.5392 1470.97 60.4549C1482.23 56.4026 1494.13 54.423 1506.09 54.6119C1517.94 54.8971 1529.59 57.7255 1540.25 62.906C1550.79 68.3171 1560.01 75.9772 1567.25 85.3438C1581.98 104.468 1589.21 128.319 1587.58 152.403C1586.83 164.235 1583.43 175.747 1577.63 186.087C1574.71 191.158 1571.18 195.855 1567.12 200.075C1563.03 204.278 1558.43 207.951 1553.43 211.011C1533.32 223.344 1507.53 225.975 1484.57 219.678C1473.12 216.586 1462.48 211.046 1453.38 203.44C1448.9 199.653 1444.91 195.313 1441.52 190.522C1438.18 185.684 1435.38 180.493 1433.17 175.041C1426.32 157.149 1425.94 136.384 1433.49 119.066C1435.33 114.76 1437.65 110.676 1440.41 106.891C1441.11 105.958 1441.91 105.095 1442.63 104.199C1443.35 103.285 1444.12 102.41 1444.94 101.579L1447.42 99.2224C1447.84 98.8288 1448.25 98.417 1448.67 98.0431L1450.06 97.0119C1457.44 91.3327 1466.06 87.485 1475.22 85.7849C1484.38 84.1074 1493.81 84.4878 1502.81 86.8988C1511.63 89.1963 1519.59 94.0104 1525.73 100.754C1531.81 107.46 1535.46 116.019 1536.09 125.051C1536.86 134.334 1535.29 143.663 1531.51 152.178C1531.13 153.026 1530.25 154.85 1529.72 155.729C1527.62 159.515 1525.12 163.06 1522.24 166.3C1520.44 168.441 1519.42 169.541 1518.83 170.327C1517.65 171.937 1518.32 172.357 1515.23 174.845C1512.32 177.022 1509.19 178.874 1505.87 180.365C1504.36 180.915 1502.94 181.706 1501.68 182.707C1501.36 183.191 1502.16 183.442 1504.2 183.429C1507.51 183.3 1510.76 182.608 1513.83 181.384C1519.33 179.306 1524.35 176.13 1528.57 172.05C1534.64 166.276 1539.35 159.232 1542.36 151.423C1546.48 141.195 1547.79 130.055 1546.17 119.151C1544.93 110.778 1541.6 102.852 1536.49 96.1085C1535.36 94.7127 1534.13 93.4043 1532.93 92.0547C1531.72 90.6636 1530.39 89.3909 1528.95 88.2544C1527.57 86.9803 1526.09 85.8219 1524.52 84.7904L1520.31 82.0632C1518.86 81.2913 1517.36 80.5621 1515.89 79.8116C1515.14 79.4569 1514.43 79.0201 1513.65 78.728L1511.33 77.8499C1509.77 77.3051 1508.24 76.6189 1506.64 76.2568C1500.25 74.4222 1493.64 73.4349 1486.99 73.3204C1485.32 73.3418 1483.66 73.4423 1482.01 73.5015C1481.19 73.5714 1480.35 73.5426 1479.53 73.7112L1477.05 74.0394C1475.4 74.2779 1473.74 74.4175 1472.12 74.7728L1467.25 75.9195C1460.8 77.6005 1454.63 80.2169 1448.93 83.686C1441.8 88.0288 1435.59 93.7264 1430.64 100.457C1425.17 107.925 1421.16 116.357 1418.82 125.313C1413.86 144.692 1415.59 165.178 1423.72 183.453C1429.9 197.334 1439.79 209.241 1452.29 217.867C1454.26 219.331 1456.37 220.525 1458.43 221.803C1460.49 223.081 1462.61 224.175 1464.68 225.154C1480.26 232.578 1497.46 235.961 1514.69 234.994C1523.92 234.525 1533.04 232.773 1541.79 229.787C1550.76 226.696 1559.16 222.181 1566.69 216.415C1574.29 210.557 1580.78 203.391 1585.86 195.255C1590.89 187.188 1594.54 178.34 1596.66 169.074C1598.8 160.037 1599.65 150.741 1599.16 141.465C1598.75 132.437 1597.24 123.492 1594.69 114.823C1589.8 98.2146 1581.02 83.0116 1569.08 70.4765C1556.69 57.6147 1540.7 48.7963 1523.21 45.1763C1505.9 41.7516 1488 42.754 1471.18 48.0903C1454.51 53.3326 1439.14 62.0848 1426.13 73.7588C1412.97 85.4675 1402.81 100.165 1396.52 116.616C1390.53 133.247 1388.76 151.102 1391.35 168.586C1393.97 185.882 1400.1 202.457 1409.38 217.289C1418.58 232.118 1430.59 245.011 1444.73 255.247C1451.84 260.351 1459.49 264.679 1467.53 268.157C1471.53 269.907 1475.64 271.413 1479.83 272.667C1484.05 273.882 1488.34 274.733 1492.6 275.766C1509.83 278.767 1527.48 278.367 1544.55 274.588C1549.05 273.613 1553.5 272.403 1557.87 271.02C1556.73 271.792 1555.58 272.565 1554.37 273.303C1534.87 285.405 1513.23 293.636 1490.62 297.545C1486.55 298.266 1482.46 298.809 1478.34 299.276C1452.84 298.19 1427.92 291.323 1405.47 279.194C1378.86 265.057 1356.28 244.381 1339.86 219.112C1331.76 206.546 1325.51 192.876 1321.31 178.526C1319.27 171.356 1317.75 164.049 1316.74 156.663C1315.8 149.25 1315.35 141.783 1315.38 134.311C1315.89 104.167 1324.08 74.6517 1339.19 48.5598C1353.98 22.3152 1375.6 0.567299 1401.76 -14.3732C1428.16 -28.7963 1458.11 -35.4562 1488.14 -33.5838C1512.64 -32.2387 1536.61 -25.9182 1558.6 -15.0079C1569.52 -9.5459 1579.85 -2.9528 1589.4 4.66341C1599.01 12.2294 1607.72 20.8673 1615.37 30.4091ZM1435.21 -218.341C1481.5 -214.819 1525.96 -198.758 1563.82 -171.882C1572.19 -165.893 1580.15 -159.365 1587.66 -152.339L1599.11 -140.997C1602.77 -136.971 1606.35 -132.779 1610.1 -128.622C1624.76 -110.889 1637.26 -91.4628 1647.3 -70.7595C1657.69 -49.3785 1665.67 -26.9131 1671.1 -3.77423C1681.62 40.6077 1683.27 86.6309 1675.96 131.652C1672.86 150.959 1668 169.942 1661.45 188.366C1656.15 203.457 1649.58 218.071 1641.81 232.053C1640.2 235.111 1638.33 237.893 1636.77 240.629L1634.38 244.609C1633.57 245.87 1632.72 247.075 1631.95 248.273L1627.42 254.977C1625.99 257.086 1624.49 258.902 1623.19 260.662C1618.92 266.609 1614.19 271.859 1610.13 276.774C1606.07 281.689 1601.87 285.841 1598.13 289.099C1592.4 294.516 1586.36 299.599 1580.05 304.322L1570.38 311.102C1566.99 313.157 1563.58 315.193 1560.2 317.248C1546.28 325.089 1531.53 331.347 1516.22 335.907C1500.75 340.516 1484.79 343.315 1468.67 344.249C1452.45 345.289 1436.16 344.521 1420.1 341.961C1387.68 336.614 1357.08 323.303 1331.07 303.22C1318.07 293.028 1306.28 281.381 1295.93 268.505C1285.49 255.6 1276.61 241.506 1269.47 226.517C1267.32 222.006 1265.36 217.4 1263.52 212.764C1265.1 214.618 1266.67 216.474 1268.3 218.325C1289.19 242.471 1313.81 263.117 1341.23 279.479C1368.8 296.018 1399.48 306.692 1431.36 310.831C1445.9 312.541 1460.57 312.743 1475.15 311.434C1479.94 311.693 1484.75 311.739 1489.56 311.572L1493.3 311.455L1500.77 310.826L1504.48 310.334C1506.96 309.966 1509.44 309.737 1511.89 309.233L1519.24 307.778C1528.96 305.522 1538.47 302.452 1547.67 298.601C1556.81 294.674 1565.62 290.015 1574.01 284.67C1582.37 279.338 1590.29 273.352 1597.7 266.768C1601.4 263.533 1604.96 260.032 1608.49 256.553C1612.01 253.075 1615.28 249.38 1618.41 245.537C1644.19 215.164 1660.51 177.91 1665.37 138.37C1667.79 117.297 1666.35 95.96 1661.11 75.404C1658.53 65.1682 1655.08 55.1698 1650.8 45.5155C1646.48 35.9113 1641.42 26.6527 1635.68 17.8213C1629.97 8.99384 1623.57 0.631429 1616.54 -7.1873C1609.56 -15.0262 1602.05 -22.3653 1594.05 -29.1503C1578 -42.7043 1560.15 -53.9788 1541.02 -62.6553C1521.88 -71.3954 1501.56 -77.2795 1480.72 -80.1188C1470.27 -81.5309 1459.73 -82.0852 1449.2 -81.7767C1438.7 -81.5084 1428.24 -80.4467 1417.9 -78.601C1397.19 -74.9694 1377.1 -68.4163 1358.24 -59.1379C1339.42 -49.7209 1322.07 -37.6234 1306.73 -23.2232C1276 5.70753 1253.89 42.5874 1242.84 83.3232C1237.32 103.635 1234.85 124.656 1235.52 145.695C1235.63 147.077 1235.75 148.459 1235.75 149.871C1230.81 140.565 1226.21 131.051 1222.21 121.328C1213.43 99.8656 1207.09 77.4843 1203.3 54.6058C1199.7 31.7597 1199.01 8.54806 1201.26 -14.4714C1202.05 -20.1846 1202.52 -25.9304 1203.79 -31.5849L1205.38 -40.07L1207.42 -48.4725L1208.44 -52.6741C1208.8 -54.0565 1209.26 -55.4275 1209.66 -56.754L1212.17 -65.0373C1213.03 -67.7742 1214.11 -70.4702 1215.05 -73.2335C1215.99 -75.9969 1216.94 -78.6812 1218.15 -81.3082C1220.43 -86.5901 1222.56 -91.9589 1225.25 -97.0569C1226.55 -99.6314 1227.76 -102.259 1229.14 -104.781L1233.41 -112.299C1234.12 -113.532 1234.81 -114.803 1235.56 -116.039L1237.9 -119.656L1242.58 -126.909L1247.66 -133.879C1249.45 -136.237 1251.04 -138.558 1252.93 -140.725C1267.22 -158.739 1284.36 -174.289 1303.68 -186.756C1322.95 -199.241 1344.27 -208.233 1366.66 -213.318C1389.12 -218.439 1412.23 -220.152 1435.2 -218.4L1435.21 -218.341Z" fill="#BED4E6"/>
</svg>
