<svg width="285" height="140" viewBox="0 0 285 140" fill="none" xmlns="http://www.w3.org/2000/svg">
<path d="M148.578 129.695C158.042 128.674 167.464 127.285 176.804 125.515C185.627 123.827 194.437 121.934 203.083 119.47L206.337 118.585L209.564 117.604C211.715 116.937 213.867 116.311 216.004 115.616C220.253 114.159 224.555 112.784 228.722 111.178C237.068 108.032 245.088 104.342 252.25 99.5632C255.831 97.1804 259.126 94.4844 262.108 91.5026C265.062 88.5479 267.636 85.2801 269.719 81.6719C270.128 80.9366 270.509 80.1741 270.849 79.4116L271.789 77.0697L271.707 77.1922C275.819 68.1649 276.786 57.8168 272.973 49.1298C269.256 40.3476 261.196 33.6485 252.005 28.9783C246.64 26.2959 240.922 24.1174 235.012 22.3745C229.076 20.6998 222.935 19.1612 216.821 17.9085C204.553 15.376 192.095 13.7693 179.596 13.0749C154.569 11.686 129.353 13.9463 104.939 19.7194C103.02 20.1143 100.8 20.7542 98.5263 21.3261C96.2525 21.9252 93.897 22.4154 91.8138 22.9328C87.6201 23.8859 84.2432 24.1855 83.8619 22.6877C83.045 19.6786 91.1055 14.6135 104.885 11.2912C113.191 9.22157 121.646 7.80551 130.102 6.60731C134.35 6.13075 138.584 5.53165 142.86 5.27295C144.998 5.12318 147.122 4.90532 149.259 4.79639L155.659 4.51046C157.796 4.38792 159.92 4.38792 162.058 4.3743C164.196 4.3743 166.32 4.30622 168.457 4.33345C172.719 4.48323 176.981 4.46961 181.243 4.78278C189.753 5.16402 198.208 6.15799 206.637 7.22003L215.841 8.69055L224.977 10.5287L234.046 12.7345C237.068 13.5242 240.105 14.4228 243.1 15.444C249.077 17.5 255 19.9509 260.569 23.2868C261.958 24.131 263.347 24.9616 264.681 25.9283C266.043 26.827 267.336 27.8481 268.616 28.8966C269.923 29.9041 271.081 31.116 272.32 32.2189L274.022 34.057C274.607 34.6561 275.152 35.296 275.656 35.9768C279.876 41.2326 282.968 47.5776 284.057 54.3583C285.228 61.1118 284.52 67.9879 282.641 74.3601C281.66 77.5326 280.421 80.6098 278.924 83.5645C277.385 86.4919 275.628 89.2832 273.668 91.9247C269.651 97.194 264.831 101.646 259.616 105.445C250.235 112.294 239.71 116.883 229.253 120.75C218.768 124.535 208.121 127.816 197.31 130.512C175.701 135.931 153.507 138.9 131.259 139.798C110.331 140.493 89.4037 139.431 68.5986 136.054C63.37 135.128 58.1688 134.011 53.0084 132.568C47.8616 131.084 42.7554 129.328 37.7719 127.149C32.8157 124.902 27.9821 122.261 23.4343 119.075C18.9002 115.848 14.7474 111.967 11.1664 107.542L8.94715 104.601C8.25274 103.593 7.64011 102.504 7.00017 101.456L6.04712 99.8764C5.74757 99.3453 5.50235 98.7735 5.23003 98.2152L3.66433 94.8657C1.77172 90.2771 0.641532 85.389 0.192207 80.4737C-0.243502 75.5583 0.083027 70.6294 0.954446 65.8638C1.8531 61.0982 3.33742 56.496 5.23003 52.1117C9.06972 43.3703 14.5842 35.5139 21.2287 28.8557C24.551 25.5198 28.1592 22.4699 32.0397 19.7875C33.9731 18.4395 35.9749 17.1869 38.0445 16.0295C40.1141 14.913 42.1699 13.8782 44.2668 12.857C52.2185 9.15349 61.0688 6.55285 68.8163 3.66627H68.6667C73.7046 3.29864 78.9466 2.07321 84.2432 1.24264C89.5262 0.357604 94.8092 -0.187033 99.6157 0.575459C102.938 0.4393 106.328 0.507379 109.528 0.289524C124.247 -0.609126 128.1 0.561843 123.253 4.1156C122.191 4.90532 123.457 5.89928 119.917 6.48477C119.903 6.48477 119.645 6.4303 119.645 6.4303L119.753 6.48477C114.824 7.76466 109.351 8.20037 103.728 8.47269C98.1179 8.75863 92.3719 8.9084 86.9664 9.52112C73.7181 11.0461 60.6741 13.9735 48.8146 19.4744C47.3032 20.1143 45.8872 20.8904 44.4303 21.6529C42.9598 22.3882 41.5708 23.1915 40.2092 24.0221C37.4861 25.6968 34.8855 27.6167 32.421 29.6863C27.492 33.8391 23.1213 38.6592 19.4859 43.9694C12.2558 54.549 7.92585 67.3479 9.17851 79.7793C9.49168 82.8701 10.1319 85.9064 11.1258 88.8338L11.9426 90.9988C12.2421 91.7068 12.6097 92.4012 12.9365 93.1092L13.9305 95.2197C14.3117 95.9005 14.734 96.5541 15.1425 97.2076C18.3694 102.518 22.7808 107.12 27.8868 110.905C34.1229 115.63 41.4346 119.048 48.9778 121.771C56.5483 124.494 64.5 126.332 72.5334 127.666C88.75 130.294 105.266 131.397 121.673 131.234C130.674 131.016 139.633 130.24 148.728 129.654L148.578 129.695Z" fill="#73A3C8"/>
</svg>
