<svg width="71" height="72" viewBox="0 0 71 72" fill="none" xmlns="http://www.w3.org/2000/svg">
<path d="M25.0451 35.9312H42.5918M64.5253 35.9312C64.5253 19.7794 51.4325 6.68664 35.2807 6.68664C19.1289 6.68664 6.03613 19.7794 6.03613 35.9312C6.03613 52.083 19.1289 65.1758 35.2807 65.1758C51.4325 65.1758 64.5253 52.083 64.5253 35.9312Z" stroke="#262626" stroke-width="2.12688" stroke-linecap="round" stroke-linejoin="round"/>
<path d="M25.0451 35.9312H42.5918M64.5253 35.9312C64.5253 19.7794 51.4325 6.68664 35.2807 6.68664C19.1289 6.68664 6.03613 19.7794 6.03613 35.9312C6.03613 52.083 19.1289 65.1758 35.2807 65.1758C51.4325 65.1758 64.5253 52.083 64.5253 35.9312Z" stroke="#2E75AD" stroke-opacity="0.09" stroke-width="2.12688" stroke-linecap="round" stroke-linejoin="round"/>
<path d="M36.7432 44.7046L45.5165 35.9312L36.7432 27.1579" stroke="#262626" stroke-width="2.12688" stroke-linecap="round" stroke-linejoin="round"/>
<path d="M36.7432 44.7046L45.5165 35.9312L36.7432 27.1579" stroke="#2E75AD" stroke-opacity="0.09" stroke-width="2.12688" stroke-linecap="round" stroke-linejoin="round"/>
</svg>
