<svg width="71" height="72" viewBox="0 0 71 72" fill="none" xmlns="http://www.w3.org/2000/svg">
<path d="M45.3289 35.9311H27.7822M5.84875 35.9311C5.84875 52.0829 18.9415 65.1757 35.0933 65.1757C51.2451 65.1757 64.3379 52.0829 64.3379 35.9311C64.3379 19.7793 51.2451 6.68652 35.0933 6.68652C18.9415 6.68652 5.84875 19.7793 5.84875 35.9311Z" stroke="#262626" stroke-width="2.12688" stroke-linecap="round" stroke-linejoin="round"/>
<path d="M45.3289 35.9311H27.7822M5.84875 35.9311C5.84875 52.0829 18.9415 65.1757 35.0933 65.1757C51.2451 65.1757 64.3379 52.0829 64.3379 35.9311C64.3379 19.7793 51.2451 6.68652 35.0933 6.68652C18.9415 6.68652 5.84875 19.7793 5.84875 35.9311Z" stroke="#2E75AD" stroke-opacity="0.09" stroke-width="2.12688" stroke-linecap="round" stroke-linejoin="round"/>
<path d="M33.6309 27.1577L24.8575 35.9311L33.6309 44.7045" stroke="#262626" stroke-width="2.12688" stroke-linecap="round" stroke-linejoin="round"/>
<path d="M33.6309 27.1577L24.8575 35.9311L33.6309 44.7045" stroke="#2E75AD" stroke-opacity="0.09" stroke-width="2.12688" stroke-linecap="round" stroke-linejoin="round"/>
</svg>
