<svg width="48" height="48" viewBox="0 0 48 48" fill="none" xmlns="http://www.w3.org/2000/svg">
<path d="M34.8013 20.2933C32.388 20.2933 31.4013 18.5867 32.6013 16.4933C33.2946 15.28 32.8813 13.7333 31.668 13.04L29.3613 11.72C28.308 11.0933 26.948 11.4667 26.3213 12.52L26.1746 12.7733C24.9746 14.8667 23.0013 14.8667 21.788 12.7733L21.6413 12.52C21.0413 11.4667 19.6813 11.0933 18.628 11.72L16.3213 13.04C15.108 13.7333 14.6946 15.2933 15.388 16.5067C16.6013 18.5867 15.6146 20.2933 13.2013 20.2933C11.8146 20.2933 10.668 21.4267 10.668 22.8267V25.1733C10.668 26.56 11.8013 27.7067 13.2013 27.7067C15.6146 27.7067 16.6013 29.4133 15.388 31.5067C14.6946 32.72 15.108 34.2667 16.3213 34.96L18.628 36.28C19.6813 36.9067 21.0413 36.5333 21.668 35.48L21.8146 35.2267C23.0146 33.1333 24.988 33.1333 26.2013 35.2267L26.348 35.48C26.9746 36.5333 28.3346 36.9067 29.388 36.28L31.6946 34.96C32.908 34.2667 33.3213 32.7067 32.628 31.5067C31.4146 29.4133 32.4013 27.7067 34.8146 27.7067C36.2013 27.7067 37.348 26.5733 37.348 25.1733V22.8267C37.3346 21.44 36.2013 20.2933 34.8013 20.2933ZM24.0013 28.3333C21.6146 28.3333 19.668 26.3867 19.668 24C19.668 21.6133 21.6146 19.6667 24.0013 19.6667C26.388 19.6667 28.3346 21.6133 28.3346 24C28.3346 26.3867 26.388 28.3333 24.0013 28.3333Z" fill="white"/>
</svg>
