<svg width="48" height="48" viewBox="0 0 48 48" fill="none" xmlns="http://www.w3.org/2000/svg">
<rect width="48" height="48" rx="24" fill="white"/>
<path d="M23.9987 7.33337C19.632 7.33337 16.082 10.8834 16.082 15.25C16.082 19.5334 19.432 23 23.7987 23.15C23.932 23.1334 24.0654 23.1334 24.1654 23.15C24.1987 23.15 24.2154 23.15 24.2487 23.15C24.2654 23.15 24.2654 23.15 24.282 23.15C28.5487 23 31.8987 19.5334 31.9154 15.25C31.9154 10.8834 28.3654 7.33337 23.9987 7.33337Z" fill="#262626"/>
<path d="M23.9987 7.33337C19.632 7.33337 16.082 10.8834 16.082 15.25C16.082 19.5334 19.432 23 23.7987 23.15C23.932 23.1334 24.0654 23.1334 24.1654 23.15C24.1987 23.15 24.2154 23.15 24.2487 23.15C24.2654 23.15 24.2654 23.15 24.282 23.15C28.5487 23 31.8987 19.5334 31.9154 15.25C31.9154 10.8834 28.3654 7.33337 23.9987 7.33337Z" fill="#2E75AD" fill-opacity="0.09"/>
<path d="M32.4656 27.5833C27.8156 24.4833 20.2323 24.4833 15.549 27.5833C13.4323 29 12.2656 30.9166 12.2656 32.9666C12.2656 35.0166 13.4323 36.9166 15.5323 38.3166C17.8656 39.8833 20.9323 40.6666 23.999 40.6666C27.0656 40.6666 30.1323 39.8833 32.4656 38.3166C34.5656 36.9 35.7323 35 35.7323 32.9333C35.7156 30.8833 34.5656 28.9833 32.4656 27.5833Z" fill="#262626"/>
<path d="M32.4656 27.5833C27.8156 24.4833 20.2323 24.4833 15.549 27.5833C13.4323 29 12.2656 30.9166 12.2656 32.9666C12.2656 35.0166 13.4323 36.9166 15.5323 38.3166C17.8656 39.8833 20.9323 40.6666 23.999 40.6666C27.0656 40.6666 30.1323 39.8833 32.4656 38.3166C34.5656 36.9 35.7323 35 35.7323 32.9333C35.7156 30.8833 34.5656 28.9833 32.4656 27.5833Z" fill="#2E75AD" fill-opacity="0.09"/>
</svg>
