<svg width="141" height="175" viewBox="0 0 141 175" fill="none" xmlns="http://www.w3.org/2000/svg">
<path d="M32.4633 82.8617C36.24 76.8379 40.071 70.8407 43.8839 64.8346C46.2349 61.152 48.7626 57.5895 50.7922 53.716C51.346 52.6527 51.6054 51.3891 52.5034 50.539L52.4946 50.5571C53.0931 49.4483 53.6053 48.2637 54.317 47.2215C56.9764 43.2525 59.484 38.9289 62.2631 35.2651C62.379 35.12 62.3855 34.8316 62.5368 34.6141C63.2439 33.5584 65.8563 29.8915 67.4117 27.4456C71.0206 21.8107 74.6976 16.2427 79.2309 11.2394C79.9404 10.454 88.785 -1.25345 91.4539 0.556787C94.2359 2.43362 87.347 14.7502 86.2423 16.1832C83.561 19.693 80.4765 22.9495 78.5559 26.9211C75.7459 32.7338 71.8259 37.8129 68.4495 43.2476C65.4107 48.1299 62.1 52.8343 59.0927 57.7208C56.2722 62.3174 53.9047 67.2253 50.9074 71.7018C48.3193 75.5711 45.0651 78.9912 42.2459 82.7139C41.5823 83.589 41.3515 85.0235 40.6437 85.9891C40.0605 86.7914 39.1309 88.1644 38.353 88.8378C38.0177 89.1335 37.6462 89.4115 37.5146 89.8181C36.9139 91.7107 27.6974 104.178 24.5022 101.931C21.3887 99.7461 29.1843 88.0974 32.4633 82.8617Z" fill="#FF902E"/>
<path d="M50.8433 103.709C53.7885 101.012 56.761 98.3509 59.7381 95.7035C61.5573 94.0706 63.5267 92.612 65.1137 90.6974C65.5506 90.1711 65.7465 89.3811 66.4517 89.1542L66.4382 89.1588C66.9021 88.6233 67.3066 88.0027 67.8567 87.5429C69.9231 85.8403 71.8831 83.8278 74.0419 82.3947C74.127 82.3354 74.1343 82.1371 74.2505 82.037C74.8052 81.5907 76.8327 80.0822 78.0441 79.0041C80.8515 76.5203 83.7135 74.1081 87.2401 72.492C87.7875 72.244 94.6669 67.6708 96.7334 70.1394C98.8818 72.7154 93.5182 78.5908 92.6536 79.1433C90.5753 80.5037 88.1785 81.5065 86.6735 83.5285C84.4829 86.4935 81.4503 88.4522 78.8093 90.8941C76.4454 93.0902 73.872 95.027 71.5309 97.2455C69.3237 99.3277 67.4849 101.826 65.1502 103.756C63.142 105.408 60.6105 106.457 58.4113 107.904C57.8962 108.247 57.7196 109.181 57.1599 109.568C56.6988 109.892 55.9785 110.47 55.3807 110.615C55.1155 110.676 54.8275 110.715 54.7305 110.959C54.2671 112.066 47.0982 117.025 44.626 113.988C42.2264 111.031 48.3004 106.041 50.8433 103.709Z" fill="#FF902E"/>
<path d="M73.0898 120.938C75.4638 119.386 77.847 117.861 80.2348 116.349C81.7088 115.422 83.2744 114.674 84.552 113.438C84.9004 113.093 85.0705 112.447 85.6291 112.451L85.6156 112.456C85.9909 112.101 86.325 111.67 86.7554 111.432C88.4095 110.504 89.9889 109.269 91.7086 108.619C91.7759 108.596 91.7878 108.411 91.8775 108.366C92.3214 108.123 93.9409 107.357 94.9221 106.749C97.1756 105.329 99.4796 104.011 102.282 103.577C102.723 103.501 108.223 101.404 109.828 104.196C111.489 107.106 107.169 110.801 106.487 111.05C104.816 111.668 102.913 111.869 101.699 113.249C99.9194 115.26 97.4945 116.137 95.3761 117.556C93.4818 118.838 91.4092 119.82 89.5241 121.129C87.7599 122.352 86.2656 124.054 84.3963 125.102C82.7779 126.003 80.7707 126.21 79.0107 126.874C78.5976 127.03 78.4421 127.806 77.9979 128.004C77.6299 128.16 77.0606 128.476 76.5782 128.431C76.3753 128.41 76.1497 128.367 76.0612 128.548C75.6767 129.403 69.9358 131.763 68.0278 128.352C66.1745 125.012 71.0384 122.289 73.0898 120.938Z" fill="#FF902E"/>
<path d="M78.5285 154.93C80.2419 154.086 81.9692 153.283 83.7011 152.493C84.769 152.007 85.9016 151.709 86.8224 150.881C87.0772 150.658 87.1984 150.089 87.6096 150.234C87.8779 150.007 88.1138 149.685 88.4372 149.574C89.6406 149.131 90.7873 148.391 92.0246 148.223C92.0697 148.223 92.0862 148.051 92.1536 148.028C92.4769 147.917 93.6545 147.619 94.359 147.302C95.9878 146.563 97.6624 145.913 99.6966 146.224C100.012 146.266 104.008 145.709 105.16 148.717C106.367 151.842 103.239 154.18 102.748 154.243C101.547 154.384 100.152 154.094 99.2822 155.07C97.9927 156.491 96.2376 156.687 94.7128 157.466C93.3405 158.162 91.8395 158.572 90.4764 159.295C89.1895 159.978 88.1144 161.19 86.7628 161.683C85.5998 162.112 84.133 161.787 82.8688 161.965C82.5673 162.008 82.4561 162.694 82.1459 162.755C81.8806 162.816 81.4583 162.945 81.1191 162.791C80.9744 162.72 80.8023 162.613 80.7361 162.772C80.4628 163.468 76.3025 164.202 74.915 160.552C73.5098 156.938 77.0302 155.655 78.5285 154.93Z" fill="#FF902E"/>
</svg>
