<svg width="651" height="39" viewBox="0 0 651 39" fill="none" xmlns="http://www.w3.org/2000/svg">
<path d="M649.89 14.221C649.408 13.664 648.811 13.2125 648.137 12.8961C647.897 12.7821 647.65 12.6832 647.397 12.6002C646.977 12.4592 646.789 12.4169 646.513 12.3465L645.296 12.1069C644.557 11.98 643.846 11.8954 643.223 11.825C641.89 11.6699 640.614 11.5431 639.339 11.4444C634.251 11.0639 629.193 10.8806 624.236 10.7679C616.09 10.6176 607.949 10.6786 599.813 10.9511C599.876 10.0714 599.648 9.19518 599.163 8.44994C598.678 7.70471 597.962 7.12929 597.117 6.80745C596.74 6.64506 596.347 6.52225 595.943 6.44103C595.23 6.30875 594.509 6.22396 593.784 6.1873C592.61 6.1873 591.552 6.11685 590.508 6.11685C586.334 6.11685 582.304 6.2437 578.26 6.34236C570.187 6.56787 562.157 6.75109 554.157 6.73699H545.185C542.025 6.73699 538.88 6.73699 535.778 6.73699H535.039H528.169C527.575 5.59537 527.125 4.7356 526.792 4.11546C563.23 0.873812 523.545 -0.112755 391.33 0.394634C361.081 0.507387 329.005 0.394625 298.118 0.253684L166.222 0L130.32 0L95.5341 0.197295H91.3018C89.8524 0.197295 88.5624 0.197306 86.9536 0.295965H86.5478H86.0839C85.881 0.549659 86.6782 -0.366461 83.6634 1.39531C81.8951 3.0866 80.7646 5.62356 84.2287 8.76655C87.3884 10.035 85.2723 9.14707 86.0549 9.44304H86.3448H86.6347H87.0116H88.1711H90.2872L93.4179 9.51354C93.1054 10.0661 92.876 10.6594 92.7367 11.2753C92.618 11.9043 92.618 12.549 92.7367 13.178H80.0979C78.431 13.178 76.7932 13.178 75.0104 13.2766L73.561 13.3613L72.5899 13.4881C72.2903 13.5377 71.9949 13.6084 71.7058 13.6995C71.5029 13.3753 67.7199 17.4063 68.4301 18.2942C68.4301 18.421 68.4301 18.5197 68.4301 18.6466H40.6014L28.8757 18.4492L22.2808 18.2519C18.6428 18.1391 15.0338 18.0264 11.2073 18.0405C10.2362 18.0405 9.30862 18.0405 8.30853 18.1391C7.78674 18.1391 7.32293 18.1391 6.74316 18.2519C6.1634 18.3646 6.00398 18.3224 5.58365 18.3928L4.91691 18.5197L4.38064 18.6324C4.15295 18.6794 3.92986 18.7454 3.7139 18.8297C3.04557 19.0705 2.41599 19.4027 1.84417 19.8163C1.12302 20.3383 0.573986 21.0534 0.264292 21.8741C-1.08366 25.6654 3.16311 28.1178 3.16311 27.5963C3.54136 27.7331 3.93582 27.823 4.33716 27.8641L4.96039 27.9346C6.25037 28.0051 7.09103 27.9346 8.04764 27.9346C11.7291 27.9346 15.2947 27.8218 18.8892 27.8359H24.281H25.3681C30.8324 28.0191 35.8908 28.1601 40.384 28.1319H55.0231C55.9797 28.1319 56.9942 28.1319 58.1103 28.1319H64.5022L102.97 28.4138L145.162 28.6956H147.713H149.017H144.466H137.045H47.1093L42.6886 28.7661H42.1233H41.703C38.2534 28.4702 39.6593 32.4024 44.0945 32.346H44.5003C45.9497 32.4306 47.1528 32.4447 48.4282 32.4588H55.9072L85.8085 32.6843L145.597 32.8111L226.851 32.6702C226.3 39.2381 230.01 37.1521 229.126 37.8145C229.334 37.8914 229.547 37.9526 229.764 37.9978L230.242 38.0964C230.706 38.1669 230.967 38.181 231.257 38.2092L232.822 38.3078C234.808 38.4206 236.692 38.477 238.62 38.5334C246.186 38.7448 253.491 38.8293 260.593 38.8998H281.276C307.989 38.8998 331.237 38.7589 350.442 38.4629C368.632 38.1951 383.184 37.7863 393.605 37.279H432.551C462.858 37.1662 493.108 37.6595 523.444 38.0542L568.955 38.5756C584.145 38.6884 599.291 38.8293 614.641 38.4206C616.568 38.4206 618.496 38.2796 620.438 38.1669C622.54 38.0733 624.636 37.8663 626.714 37.5467C627.076 37.4846 627.434 37.4046 627.787 37.3072C628.033 37.2511 628.275 37.1805 628.512 37.0958C628.939 36.9451 629.352 36.7563 629.743 36.532C630.062 36.1232 631.802 35.9682 632.381 32.191C632.005 28.7661 630.048 27.8641 629.83 27.7514C629.229 27.3762 628.568 27.1 627.874 26.9339C627.232 26.7494 626.579 26.6081 625.917 26.5111C625.366 26.4265 624.83 26.3419 624.323 26.2855C622.25 26.0319 620.322 25.8909 618.38 25.75C610.655 25.2426 603.06 25.0171 595.436 24.7916H592.436C592.349 23.7486 592.247 22.8607 592.131 22.1137H606.524H622.786C628.178 22.1137 633.642 22.1842 639.208 22.015C640.484 22.015 641.759 21.9164 643.093 21.8318L645.194 21.6345C645.586 21.6345 645.991 21.5217 646.499 21.4231L646.963 21.3103C647.186 21.2647 647.404 21.1987 647.615 21.113C648.134 20.9358 648.622 20.684 649.064 20.366C649.687 21.1412 652.543 16.6874 649.89 14.221Z" fill="#FFB573"/>
</svg>
