<svg width="32" height="32" viewBox="0 0 32 32" fill="none" xmlns="http://www.w3.org/2000/svg">
<path d="M14.9596 28.8333C15.4676 29.4667 16.5343 29.4667 17.0423 28.8333L27.7089 15.5C27.8654 15.3037 27.9634 15.0673 27.9916 14.8179C28.0197 14.5684 27.977 14.3161 27.8683 14.0899C27.7595 13.8636 27.5892 13.6726 27.3768 13.5388C27.1644 13.405 26.9186 13.3338 26.6676 13.3334H22.3343C21.8629 13.3334 21.6272 13.3334 21.4807 13.1869C21.3343 13.0405 21.3343 12.8048 21.3343 12.3334L21.3343 4.00002C21.3343 3.64639 21.1938 3.30725 20.9437 3.05721C20.6937 2.80716 20.3546 2.66668 20.0009 2.66668L12.0009 2.66668C11.6473 2.66668 11.3082 2.80716 11.0581 3.05721C10.8081 3.30725 10.6676 3.64639 10.6676 4.00002V12.3334C10.6676 12.8048 10.6676 13.0405 10.5212 13.1869C10.3747 13.3334 10.139 13.3334 9.6676 13.3334L5.33427 13.3334C5.08325 13.3338 4.83744 13.405 4.62506 13.5388C4.41267 13.6726 4.24234 13.8636 4.1336 14.0899C4.02486 14.3161 3.98213 14.5684 4.01031 14.8179C4.0385 15.0673 4.13646 15.3037 4.29294 15.5L14.9596 28.8333ZM12.0009 16H12.3343C12.8057 16 13.0414 16 13.1878 15.8536C13.3343 15.7071 13.3343 15.4714 13.3343 15L13.3343 6.33335C13.3343 5.86195 13.3343 5.62624 13.4807 5.4798C13.6272 5.33335 13.8629 5.33335 14.3343 5.33335H17.6676C18.139 5.33335 18.3747 5.33335 18.5212 5.4798C18.6676 5.62624 18.6676 5.86195 18.6676 6.33335L18.6676 15C18.6676 15.4714 18.6676 15.7071 18.814 15.8536C18.9605 16 19.1962 16 19.6676 16H21.8124C22.7155 16 23.1671 16 23.3033 16.2834C23.4395 16.5668 23.1574 16.9194 22.5932 17.6247L16.7818 24.8892C16.4214 25.3397 16.2413 25.5649 16.0009 25.5649C15.7606 25.5649 15.5804 25.3397 15.2201 24.8892L9.40864 17.6247C8.84446 16.9194 8.56236 16.5668 8.69858 16.2834C8.83479 16 9.28637 16 10.1895 16H12.0009Z" fill="#262626"/>
<path d="M14.9596 28.8333C15.4676 29.4667 16.5343 29.4667 17.0423 28.8333L27.7089 15.5C27.8654 15.3037 27.9634 15.0673 27.9916 14.8179C28.0197 14.5684 27.977 14.3161 27.8683 14.0899C27.7595 13.8636 27.5892 13.6726 27.3768 13.5388C27.1644 13.405 26.9186 13.3338 26.6676 13.3334H22.3343C21.8629 13.3334 21.6272 13.3334 21.4807 13.1869C21.3343 13.0405 21.3343 12.8048 21.3343 12.3334L21.3343 4.00002C21.3343 3.64639 21.1938 3.30725 20.9437 3.05721C20.6937 2.80716 20.3546 2.66668 20.0009 2.66668L12.0009 2.66668C11.6473 2.66668 11.3082 2.80716 11.0581 3.05721C10.8081 3.30725 10.6676 3.64639 10.6676 4.00002V12.3334C10.6676 12.8048 10.6676 13.0405 10.5212 13.1869C10.3747 13.3334 10.139 13.3334 9.6676 13.3334L5.33427 13.3334C5.08325 13.3338 4.83744 13.405 4.62506 13.5388C4.41267 13.6726 4.24234 13.8636 4.1336 14.0899C4.02486 14.3161 3.98213 14.5684 4.01031 14.8179C4.0385 15.0673 4.13646 15.3037 4.29294 15.5L14.9596 28.8333ZM12.0009 16H12.3343C12.8057 16 13.0414 16 13.1878 15.8536C13.3343 15.7071 13.3343 15.4714 13.3343 15L13.3343 6.33335C13.3343 5.86195 13.3343 5.62624 13.4807 5.4798C13.6272 5.33335 13.8629 5.33335 14.3343 5.33335H17.6676C18.139 5.33335 18.3747 5.33335 18.5212 5.4798C18.6676 5.62624 18.6676 5.86195 18.6676 6.33335L18.6676 15C18.6676 15.4714 18.6676 15.7071 18.814 15.8536C18.9605 16 19.1962 16 19.6676 16H21.8124C22.7155 16 23.1671 16 23.3033 16.2834C23.4395 16.5668 23.1574 16.9194 22.5932 17.6247L16.7818 24.8892C16.4214 25.3397 16.2413 25.5649 16.0009 25.5649C15.7606 25.5649 15.5804 25.3397 15.2201 24.8892L9.40864 17.6247C8.84446 16.9194 8.56236 16.5668 8.69858 16.2834C8.83479 16 9.28637 16 10.1895 16H12.0009Z" fill="#2E75AD" fill-opacity="0.09"/>
</svg>
