<svg width="24" height="25" viewBox="0 0 24 25" fill="none" xmlns="http://www.w3.org/2000/svg">
<path d="M12.0007 11.0801C10.9807 11.0801 9.96074 10.9001 8.99074 10.5501C8.60074 10.4101 8.40074 9.9801 8.54074 9.5901C8.69074 9.2001 9.12074 9.0001 9.51074 9.1401C11.1207 9.7201 12.8907 9.7201 14.5007 9.1401C14.8907 9.0001 15.3207 9.2001 15.4607 9.5901C15.6007 9.9801 15.4007 10.4101 15.0107 10.5501C14.0407 10.9001 13.0207 11.0801 12.0007 11.0801Z" fill="#808080"/>
<path d="M12.0007 11.0801C10.9807 11.0801 9.96074 10.9001 8.99074 10.5501C8.60074 10.4101 8.40074 9.9801 8.54074 9.5901C8.69074 9.2001 9.12074 9.0001 9.51074 9.1401C11.1207 9.7201 12.8907 9.7201 14.5007 9.1401C14.8907 9.0001 15.3207 9.2001 15.4607 9.5901C15.6007 9.9801 15.4007 10.4101 15.0107 10.5501C14.0407 10.9001 13.0207 11.0801 12.0007 11.0801Z" fill="#2E75AD" fill-opacity="0.05"/>
<path d="M19.0703 23.55C18.5603 23.55 18.0003 23.4 17.4603 23.09L12.5803 20.38C12.2903 20.22 11.7203 20.22 11.4303 20.38L6.55031 23.09C5.56031 23.64 4.55031 23.7 3.78031 23.24C3.01031 22.79 2.57031 21.88 2.57031 20.75V6.66005C2.57031 4.12005 4.64031 2.05005 7.18031 2.05005H16.8303C19.3703 2.05005 21.4403 4.12005 21.4403 6.66005V20.75C21.4403 21.88 21.0003 22.79 20.2303 23.24C19.8803 23.45 19.4803 23.55 19.0703 23.55ZM12.0003 18.76C12.4703 18.76 12.9303 18.8601 13.3003 19.07L18.1803 21.78C18.6903 22.07 19.1603 22.13 19.4603 21.95C19.7603 21.77 19.9303 21.34 19.9303 20.75V6.66005C19.9303 4.95005 18.5303 3.55005 16.8203 3.55005H7.18031C5.47031 3.55005 4.07031 4.95005 4.07031 6.66005V20.75C4.07031 21.34 4.24031 21.78 4.54031 21.95C4.84031 22.12 5.30031 22.07 5.82031 21.78L10.7003 19.07C11.0703 18.8601 11.5303 18.76 12.0003 18.76Z" fill="#808080"/>
<path d="M19.0703 23.55C18.5603 23.55 18.0003 23.4 17.4603 23.09L12.5803 20.38C12.2903 20.22 11.7203 20.22 11.4303 20.38L6.55031 23.09C5.56031 23.64 4.55031 23.7 3.78031 23.24C3.01031 22.79 2.57031 21.88 2.57031 20.75V6.66005C2.57031 4.12005 4.64031 2.05005 7.18031 2.05005H16.8303C19.3703 2.05005 21.4403 4.12005 21.4403 6.66005V20.75C21.4403 21.88 21.0003 22.79 20.2303 23.24C19.8803 23.45 19.4803 23.55 19.0703 23.55ZM12.0003 18.76C12.4703 18.76 12.9303 18.8601 13.3003 19.07L18.1803 21.78C18.6903 22.07 19.1603 22.13 19.4603 21.95C19.7603 21.77 19.9303 21.34 19.9303 20.75V6.66005C19.9303 4.95005 18.5303 3.55005 16.8203 3.55005H7.18031C5.47031 3.55005 4.07031 4.95005 4.07031 6.66005V20.75C4.07031 21.34 4.24031 21.78 4.54031 21.95C4.84031 22.12 5.30031 22.07 5.82031 21.78L10.7003 19.07C11.0703 18.8601 11.5303 18.76 12.0003 18.76Z" fill="#2E75AD" fill-opacity="0.05"/>
<path d="M19.0703 23.55C18.5603 23.55 18.0003 23.4 17.4603 23.09L12.5803 20.38C12.2903 20.22 11.7203 20.22 11.4303 20.38L6.55031 23.09C5.56031 23.64 4.55031 23.7 3.78031 23.24C3.01031 22.79 2.57031 21.88 2.57031 20.75V6.66005C2.57031 4.12005 4.64031 2.05005 7.18031 2.05005H16.8303C19.3703 2.05005 21.4403 4.12005 21.4403 6.66005V20.75C21.4403 21.88 21.0003 22.79 20.2303 23.24C19.8803 23.45 19.4803 23.55 19.0703 23.55ZM12.0003 18.76C12.4703 18.76 12.9303 18.8601 13.3003 19.07L18.1803 21.78C18.6903 22.07 19.1603 22.13 19.4603 21.95C19.7603 21.77 19.9303 21.34 19.9303 20.75V6.66005C19.9303 4.95005 18.5303 3.55005 16.8203 3.55005H7.18031C5.47031 3.55005 4.07031 4.95005 4.07031 6.66005V20.75C4.07031 21.34 4.24031 21.78 4.54031 21.95C4.84031 22.12 5.30031 22.07 5.82031 21.78L10.7003 19.07C11.0703 18.8601 11.5303 18.76 12.0003 18.76Z" fill="#808080"/>
<path d="M19.0703 23.55C18.5603 23.55 18.0003 23.4 17.4603 23.09L12.5803 20.38C12.2903 20.22 11.7203 20.22 11.4303 20.38L6.55031 23.09C5.56031 23.64 4.55031 23.7 3.78031 23.24C3.01031 22.79 2.57031 21.88 2.57031 20.75V6.66005C2.57031 4.12005 4.64031 2.05005 7.18031 2.05005H16.8303C19.3703 2.05005 21.4403 4.12005 21.4403 6.66005V20.75C21.4403 21.88 21.0003 22.79 20.2303 23.24C19.8803 23.45 19.4803 23.55 19.0703 23.55ZM12.0003 18.76C12.4703 18.76 12.9303 18.8601 13.3003 19.07L18.1803 21.78C18.6903 22.07 19.1603 22.13 19.4603 21.95C19.7603 21.77 19.9303 21.34 19.9303 20.75V6.66005C19.9303 4.95005 18.5303 3.55005 16.8203 3.55005H7.18031C5.47031 3.55005 4.07031 4.95005 4.07031 6.66005V20.75C4.07031 21.34 4.24031 21.78 4.54031 21.95C4.84031 22.12 5.30031 22.07 5.82031 21.78L10.7003 19.07C11.0703 18.8601 11.5303 18.76 12.0003 18.76Z" fill="#2E75AD" fill-opacity="0.05"/>
</svg>
