<svg width="32" height="64" viewBox="0 0 32 64" fill="none" xmlns="http://www.w3.org/2000/svg">
<path d="M17.0404 3.16665C16.5324 2.53332 15.4657 2.53332 14.9577 3.16665L4.29106 16.5C4.13458 16.6963 4.03663 16.9327 4.00844 17.1821C3.98026 17.4316 4.02299 17.6839 4.13172 17.9101C4.24046 18.1364 4.4108 18.3274 4.62318 18.4612C4.83556 18.595 5.08138 18.6662 5.3324 18.6666H9.66573C10.1371 18.6666 10.3728 18.6666 10.5193 18.8131C10.6657 18.9595 10.6657 19.1952 10.6657 19.6666V28C10.6657 28.3536 10.8062 28.6927 11.0563 28.9428C11.3063 29.1928 11.6454 29.3333 11.9991 29.3333H19.9991C20.3527 29.3333 20.6918 29.1928 20.9419 28.9428C21.1919 28.6927 21.3324 28.3536 21.3324 28V19.6666C21.3324 19.1952 21.3324 18.9595 21.4788 18.8131C21.6253 18.6666 21.861 18.6666 22.3324 18.6666H26.6657C26.9168 18.6662 27.1626 18.595 27.3749 18.4612C27.5873 18.3274 27.7577 18.1364 27.8664 17.9101C27.9751 17.6839 28.0179 17.4316 27.9897 17.1821C27.9615 16.9327 27.8635 16.6963 27.7071 16.5L17.0404 3.16665ZM19.9991 16H19.6657C19.1943 16 18.9586 16 18.8122 16.1464C18.6657 16.2929 18.6657 16.5286 18.6657 17V25.6666C18.6657 26.1381 18.6657 26.3738 18.5193 26.5202C18.3728 26.6667 18.1371 26.6667 17.6657 26.6667H14.3324C13.861 26.6667 13.6253 26.6667 13.4788 26.5202C13.3324 26.3738 13.3324 26.1381 13.3324 25.6667V17C13.3324 16.5286 13.3324 16.2929 13.186 16.1464C13.0395 16 12.8038 16 12.3324 16H10.1876C9.28449 16 8.83292 16 8.6967 15.7166C8.56049 15.4332 8.84258 15.0806 9.40677 14.3753L15.2182 7.11078C15.5786 6.6603 15.7587 6.43506 15.9991 6.43506C16.2394 6.43506 16.4196 6.6603 16.7799 7.11078L22.5914 14.3753C23.1555 15.0806 23.4376 15.4332 23.3014 15.7166C23.1652 16 22.7136 16 21.8105 16H19.9991Z" fill="#262626"/>
<path d="M17.0404 3.16665C16.5324 2.53332 15.4657 2.53332 14.9577 3.16665L4.29106 16.5C4.13458 16.6963 4.03663 16.9327 4.00844 17.1821C3.98026 17.4316 4.02299 17.6839 4.13172 17.9101C4.24046 18.1364 4.4108 18.3274 4.62318 18.4612C4.83556 18.595 5.08138 18.6662 5.3324 18.6666H9.66573C10.1371 18.6666 10.3728 18.6666 10.5193 18.8131C10.6657 18.9595 10.6657 19.1952 10.6657 19.6666V28C10.6657 28.3536 10.8062 28.6927 11.0563 28.9428C11.3063 29.1928 11.6454 29.3333 11.9991 29.3333H19.9991C20.3527 29.3333 20.6918 29.1928 20.9419 28.9428C21.1919 28.6927 21.3324 28.3536 21.3324 28V19.6666C21.3324 19.1952 21.3324 18.9595 21.4788 18.8131C21.6253 18.6666 21.861 18.6666 22.3324 18.6666H26.6657C26.9168 18.6662 27.1626 18.595 27.3749 18.4612C27.5873 18.3274 27.7577 18.1364 27.8664 17.9101C27.9751 17.6839 28.0179 17.4316 27.9897 17.1821C27.9615 16.9327 27.8635 16.6963 27.7071 16.5L17.0404 3.16665ZM19.9991 16H19.6657C19.1943 16 18.9586 16 18.8122 16.1464C18.6657 16.2929 18.6657 16.5286 18.6657 17V25.6666C18.6657 26.1381 18.6657 26.3738 18.5193 26.5202C18.3728 26.6667 18.1371 26.6667 17.6657 26.6667H14.3324C13.861 26.6667 13.6253 26.6667 13.4788 26.5202C13.3324 26.3738 13.3324 26.1381 13.3324 25.6667V17C13.3324 16.5286 13.3324 16.2929 13.186 16.1464C13.0395 16 12.8038 16 12.3324 16H10.1876C9.28449 16 8.83292 16 8.6967 15.7166C8.56049 15.4332 8.84258 15.0806 9.40677 14.3753L15.2182 7.11078C15.5786 6.6603 15.7587 6.43506 15.9991 6.43506C16.2394 6.43506 16.4196 6.6603 16.7799 7.11078L22.5914 14.3753C23.1555 15.0806 23.4376 15.4332 23.3014 15.7166C23.1652 16 22.7136 16 21.8105 16H19.9991Z" fill="#2E75AD" fill-opacity="0.09"/>
<path d="M14.9596 60.8333C15.4676 61.4667 16.5343 61.4667 17.0423 60.8333L27.7089 47.5C27.8654 47.3037 27.9634 47.0673 27.9916 46.8179C28.0197 46.5684 27.977 46.3161 27.8683 46.0899C27.7595 45.8636 27.5892 45.6726 27.3768 45.5388C27.1644 45.405 26.9186 45.3338 26.6676 45.3334H22.3343C21.8629 45.3334 21.6272 45.3334 21.4807 45.1869C21.3343 45.0405 21.3343 44.8048 21.3343 44.3334L21.3343 36C21.3343 35.6464 21.1938 35.3073 20.9437 35.0572C20.6937 34.8072 20.3546 34.6667 20.0009 34.6667H12.0009C11.6473 34.6667 11.3082 34.8072 11.0581 35.0572C10.8081 35.3073 10.6676 35.6464 10.6676 36V44.3334C10.6676 44.8048 10.6676 45.0405 10.5212 45.1869C10.3747 45.3334 10.139 45.3334 9.6676 45.3334H5.33427C5.08325 45.3338 4.83744 45.405 4.62506 45.5388C4.41267 45.6726 4.24234 45.8636 4.1336 46.0899C4.02486 46.3161 3.98213 46.5684 4.01031 46.8179C4.0385 47.0673 4.13646 47.3037 4.29294 47.5L14.9596 60.8333ZM12.0009 48H12.3343C12.8057 48 13.0414 48 13.1878 47.8536C13.3343 47.7071 13.3343 47.4714 13.3343 47L13.3343 38.3334C13.3343 37.8619 13.3343 37.6262 13.4807 37.4798C13.6272 37.3333 13.8629 37.3333 14.3343 37.3333H17.6676C18.139 37.3333 18.3747 37.3333 18.5212 37.4798C18.6676 37.6262 18.6676 37.8619 18.6676 38.3333L18.6676 47C18.6676 47.4714 18.6676 47.7071 18.814 47.8536C18.9605 48 19.1962 48 19.6676 48H21.8124C22.7155 48 23.1671 48 23.3033 48.2834C23.4395 48.5668 23.1574 48.9194 22.5932 49.6247L16.7818 56.8892C16.4214 57.3397 16.2413 57.5649 16.0009 57.5649C15.7606 57.5649 15.5804 57.3397 15.2201 56.8892L9.40864 49.6247C8.84446 48.9194 8.56236 48.5668 8.69858 48.2834C8.83479 48 9.28637 48 10.1895 48H12.0009Z" fill="#262626"/>
<path d="M14.9596 60.8333C15.4676 61.4667 16.5343 61.4667 17.0423 60.8333L27.7089 47.5C27.8654 47.3037 27.9634 47.0673 27.9916 46.8179C28.0197 46.5684 27.977 46.3161 27.8683 46.0899C27.7595 45.8636 27.5892 45.6726 27.3768 45.5388C27.1644 45.405 26.9186 45.3338 26.6676 45.3334H22.3343C21.8629 45.3334 21.6272 45.3334 21.4807 45.1869C21.3343 45.0405 21.3343 44.8048 21.3343 44.3334L21.3343 36C21.3343 35.6464 21.1938 35.3073 20.9437 35.0572C20.6937 34.8072 20.3546 34.6667 20.0009 34.6667H12.0009C11.6473 34.6667 11.3082 34.8072 11.0581 35.0572C10.8081 35.3073 10.6676 35.6464 10.6676 36V44.3334C10.6676 44.8048 10.6676 45.0405 10.5212 45.1869C10.3747 45.3334 10.139 45.3334 9.6676 45.3334H5.33427C5.08325 45.3338 4.83744 45.405 4.62506 45.5388C4.41267 45.6726 4.24234 45.8636 4.1336 46.0899C4.02486 46.3161 3.98213 46.5684 4.01031 46.8179C4.0385 47.0673 4.13646 47.3037 4.29294 47.5L14.9596 60.8333ZM12.0009 48H12.3343C12.8057 48 13.0414 48 13.1878 47.8536C13.3343 47.7071 13.3343 47.4714 13.3343 47L13.3343 38.3334C13.3343 37.8619 13.3343 37.6262 13.4807 37.4798C13.6272 37.3333 13.8629 37.3333 14.3343 37.3333H17.6676C18.139 37.3333 18.3747 37.3333 18.5212 37.4798C18.6676 37.6262 18.6676 37.8619 18.6676 38.3333L18.6676 47C18.6676 47.4714 18.6676 47.7071 18.814 47.8536C18.9605 48 19.1962 48 19.6676 48H21.8124C22.7155 48 23.1671 48 23.3033 48.2834C23.4395 48.5668 23.1574 48.9194 22.5932 49.6247L16.7818 56.8892C16.4214 57.3397 16.2413 57.5649 16.0009 57.5649C15.7606 57.5649 15.5804 57.3397 15.2201 56.8892L9.40864 49.6247C8.84446 48.9194 8.56236 48.5668 8.69858 48.2834C8.83479 48 9.28637 48 10.1895 48H12.0009Z" fill="#2E75AD" fill-opacity="0.09"/>
</svg>
