<svg width="65" height="65" viewBox="0 0 65 65" fill="none" xmlns="http://www.w3.org/2000/svg">
<rect x="0.847656" y="0.514648" width="63.5641" height="63.5641" rx="15.891" fill="white"/>
<g clip-path="url(#clip0_1708_2577)">
<path fill-rule="evenodd" clip-rule="evenodd" d="M16.7383 32.3855C16.7383 40.286 22.4763 46.8556 29.9808 48.1878V36.7105H26.008V32.2968H29.9808V28.765C29.9808 24.7923 32.5406 22.586 36.1611 22.586C37.3079 22.586 38.5447 22.7622 39.6916 22.9383V26.9998H37.6615C35.7188 26.9998 35.2778 27.9705 35.2778 29.2073V32.2968H39.5154L38.8096 36.7105H35.2778V48.1878C42.7824 46.8556 48.5203 40.2873 48.5203 32.3855C48.5203 23.5965 41.3694 16.4058 32.6293 16.4058C23.8892 16.4058 16.7383 23.5965 16.7383 32.3855Z" fill="#FF902E"/>
</g>
<defs>
<clipPath id="clip0_1708_2577">
<rect width="31.7821" height="31.7821" fill="white" transform="translate(16.7383 16.4058)"/>
</clipPath>
</defs>
</svg>
