<svg width="64" height="65" viewBox="0 0 64 65" fill="none" xmlns="http://www.w3.org/2000/svg">
<rect x="0.263672" y="0.514648" width="63.5641" height="63.5641" rx="15.891" fill="white"/>
<path fill-rule="evenodd" clip-rule="evenodd" d="M26.0398 17.8169C27.5932 17.7454 28.0884 17.7295 32.0453 17.7295C36.0022 17.7295 36.4974 17.7467 38.0495 17.8169C39.6015 17.8871 40.6609 18.1347 41.5879 18.4936C42.5585 18.8604 43.4392 19.4338 44.1675 20.1754C44.9091 20.9024 45.4812 21.7817 45.8467 22.7537C46.2069 23.6807 46.4532 24.7401 46.5247 26.2895C46.5962 27.8455 46.6121 28.3407 46.6121 32.2963C46.6121 36.2531 46.5949 36.7484 46.5247 38.3018C46.4545 39.8511 46.2069 40.9105 45.8467 41.8375C45.4812 42.8096 44.9081 43.6904 44.1675 44.4185C43.4392 45.1601 42.5585 45.7321 41.5879 46.0976C40.6609 46.4578 39.6015 46.7041 38.0521 46.7757C36.4974 46.8472 36.0022 46.8631 32.0453 46.8631C28.0884 46.8631 27.5932 46.8458 26.0398 46.7757C24.4904 46.7055 23.431 46.4578 22.5041 46.0976C21.5319 45.7321 20.6512 45.1591 19.9231 44.4185C19.182 43.691 18.6085 42.8107 18.2426 41.8388C17.8837 40.9119 17.6374 39.8525 17.5659 38.3031C17.4944 36.7471 17.4785 36.2518 17.4785 32.2963C17.4785 28.3394 17.4957 27.8441 17.5659 26.2921C17.6361 24.7401 17.8837 23.6807 18.2426 22.7537C18.6091 21.7818 19.183 20.9015 19.9244 20.1741C20.6515 19.4331 21.5314 18.8597 22.5027 18.4936C23.4297 18.1347 24.4891 17.8884 26.0385 17.8169H26.0398ZM37.9316 20.4389C36.3955 20.3687 35.9346 20.3542 32.0453 20.3542C28.156 20.3542 27.6951 20.3687 26.159 20.4389C24.7381 20.5038 23.9674 20.7408 23.4535 20.9408C22.7742 21.2057 22.2882 21.5195 21.7784 22.0293C21.2951 22.4995 20.9231 23.0719 20.6898 23.7045C20.4899 24.2183 20.2528 24.989 20.1879 26.41C20.1178 27.9461 20.1032 28.4069 20.1032 32.2963C20.1032 36.1856 20.1178 36.6464 20.1879 38.1826C20.2528 39.6035 20.4899 40.3742 20.6898 40.888C20.9229 41.5197 21.295 42.0931 21.7784 42.5632C22.2485 43.0466 22.8219 43.4187 23.4535 43.6517C23.9674 43.8517 24.7381 44.0887 26.159 44.1536C27.6951 44.2238 28.1546 44.2384 32.0453 44.2384C35.9359 44.2384 36.3955 44.2238 37.9316 44.1536C39.3525 44.0887 40.1232 43.8517 40.637 43.6517C41.3164 43.3869 41.8024 43.073 42.3122 42.5632C42.7956 42.0931 43.1677 41.5197 43.4008 40.888C43.6007 40.3742 43.8378 39.6035 43.9027 38.1826C43.9728 36.6464 43.9874 36.1856 43.9874 32.2963C43.9874 28.4069 43.9728 27.9461 43.9027 26.41C43.8378 24.989 43.6007 24.2183 43.4008 23.7045C43.1359 23.0252 42.8221 22.5392 42.3122 22.0293C41.842 21.5461 41.2696 21.1742 40.637 20.9408C40.1232 20.7408 39.3525 20.5038 37.9316 20.4389ZM30.1847 36.7868C31.2238 37.2194 32.3808 37.2777 33.4582 36.952C34.5355 36.6262 35.4664 35.9365 36.0917 35.0007C36.717 34.0649 36.9981 32.941 36.8868 31.821C36.7756 30.701 36.2789 29.6544 35.4817 28.8598C34.9735 28.352 34.359 27.9631 33.6825 27.7212C33.006 27.4793 32.2842 27.3904 31.5692 27.4609C30.8542 27.5314 30.1637 27.7596 29.5475 28.129C28.9313 28.4984 28.4046 28.9999 28.0054 29.5972C27.6062 30.1946 27.3444 30.8731 27.2389 31.5838C27.1334 32.2945 27.1868 33.0197 27.3952 33.7073C27.6037 34.3949 27.9619 35.0277 28.4443 35.5602C28.9266 36.0927 29.521 36.5116 30.1847 36.7868ZM26.7509 27.0019C27.4462 26.3066 28.2716 25.7551 29.18 25.3789C30.0884 25.0026 31.062 24.8089 32.0453 24.8089C33.0285 24.8089 34.0022 25.0026 34.9106 25.3789C35.819 25.7551 36.6444 26.3066 37.3397 27.0019C38.0349 27.6972 38.5864 28.5226 38.9627 29.431C39.339 30.3394 39.5327 31.313 39.5327 32.2963C39.5327 33.2795 39.339 34.2532 38.9627 35.1616C38.5864 36.07 38.0349 36.8954 37.3397 37.5906C35.9355 38.9948 34.0311 39.7836 32.0453 39.7836C30.0595 39.7836 28.1551 38.9948 26.7509 37.5906C25.3468 36.1865 24.5579 34.282 24.5579 32.2963C24.5579 30.3105 25.3468 28.4061 26.7509 27.0019ZM41.1932 25.924C41.3655 25.7614 41.5035 25.566 41.5989 25.3492C41.6943 25.1324 41.7452 24.8987 41.7486 24.6619C41.7521 24.425 41.708 24.1899 41.619 23.9704C41.5299 23.751 41.3977 23.5516 41.2303 23.3841C41.0628 23.2166 40.8634 23.0844 40.6439 22.9954C40.4244 22.9064 40.1893 22.8623 39.9525 22.8657C39.7157 22.8692 39.4819 22.9201 39.2652 23.0155C39.0484 23.1109 38.8529 23.2488 38.6904 23.4211C38.3743 23.7562 38.2013 24.2013 38.208 24.6619C38.2147 25.1224 38.4006 25.5623 38.7264 25.888C39.0521 26.2137 39.4919 26.3997 39.9525 26.4064C40.4131 26.4131 40.8582 26.2401 41.1932 25.924Z" fill="#FF902E"/>
</svg>
