<svg width="40" height="41" viewBox="0 0 40 41" fill="none" xmlns="http://www.w3.org/2000/svg">
<path d="M26.984 4.1333H13.0173C6.95065 4.1333 3.33398 7.74997 3.33398 13.8166V27.7666C3.33398 33.85 6.95065 37.4666 13.0173 37.4666H26.9673C33.034 37.4666 36.6507 33.85 36.6507 27.7833V13.8166C36.6673 7.74997 33.0507 4.1333 26.984 4.1333ZM27.9673 16.9666L18.5173 26.4166C18.284 26.65 17.9673 26.7833 17.634 26.7833C17.3007 26.7833 16.984 26.65 16.7507 26.4166L12.034 21.7C11.5507 21.2166 11.5507 20.4166 12.034 19.9333C12.5173 19.45 13.3173 19.45 13.8007 19.9333L17.634 23.7666L26.2007 15.2C26.684 14.7166 27.484 14.7166 27.9673 15.2C28.4507 15.6833 28.4507 16.4666 27.9673 16.9666Z" fill="#22C014"/>
</svg>
