<svg width="40" height="41" viewBox="0 0 40 41" fill="none" xmlns="http://www.w3.org/2000/svg">
<path d="M15.0007 36.9979H25.0007C33.334 36.9979 36.6673 33.6646 36.6673 25.3312V15.3312C36.6673 6.99788 33.334 3.66455 25.0007 3.66455H15.0007C6.66732 3.66455 3.33398 6.99788 3.33398 15.3312V25.3312C3.33398 33.6646 6.66732 36.9979 15.0007 36.9979Z" stroke="#262626" stroke-width="1.5" stroke-linecap="round" stroke-linejoin="round"/>
<path d="M15.0007 36.9979H25.0007C33.334 36.9979 36.6673 33.6646 36.6673 25.3312V15.3312C36.6673 6.99788 33.334 3.66455 25.0007 3.66455H15.0007C6.66732 3.66455 3.33398 6.99788 3.33398 15.3312V25.3312C3.33398 33.6646 6.66732 36.9979 15.0007 36.9979Z" stroke="#2E75AD" stroke-opacity="0.09" stroke-width="1.5" stroke-linecap="round" stroke-linejoin="round"/>
</svg>
