<svg width="24" height="25" viewBox="0 0 24 25" fill="none" xmlns="http://www.w3.org/2000/svg">
<path d="M18 22.8C17.1667 22.8 16.4583 22.5084 15.875 21.925C15.2917 21.3417 15 20.6334 15 19.8C15 19.6834 15.0083 19.5624 15.025 19.437C15.0417 19.3117 15.0667 19.1994 15.1 19.1L8.05 15C7.76667 15.25 7.45 15.446 7.1 15.588C6.75 15.73 6.38333 15.8007 6 15.8C5.16667 15.8 4.45833 15.5084 3.875 14.925C3.29167 14.3417 3 13.6334 3 12.8C3 11.9667 3.29167 11.2584 3.875 10.675C4.45833 10.0917 5.16667 9.80005 6 9.80005C6.38333 9.80005 6.75 9.87105 7.1 10.013C7.45 10.155 7.76667 10.3507 8.05 10.6L15.1 6.50005C15.0667 6.40005 15.0417 6.28772 15.025 6.16305C15.0083 6.03838 15 5.91738 15 5.80005C15 4.96672 15.2917 4.25838 15.875 3.67505C16.4583 3.09172 17.1667 2.80005 18 2.80005C18.8333 2.80005 19.5417 3.09172 20.125 3.67505C20.7083 4.25838 21 4.96672 21 5.80005C21 6.63338 20.7083 7.34172 20.125 7.92505C19.5417 8.50838 18.8333 8.80005 18 8.80005C17.6167 8.80005 17.25 8.72938 16.9 8.58805C16.55 8.44672 16.2333 8.25072 15.95 8.00005L8.9 12.1C8.93333 12.2 8.95833 12.3127 8.975 12.438C8.99167 12.5634 9 12.684 9 12.8C9 12.9167 8.99167 13.0377 8.975 13.163C8.95833 13.2884 8.93333 13.4007 8.9 13.5L15.95 17.6C16.2333 17.35 16.55 17.1544 16.9 17.013C17.25 16.8717 17.6167 16.8007 18 16.8C18.8333 16.8 19.5417 17.0917 20.125 17.675C20.7083 18.2584 21 18.9667 21 19.8C21 20.6334 20.7083 21.3417 20.125 21.925C19.5417 22.5084 18.8333 22.8 18 22.8ZM18 6.80005C18.2833 6.80005 18.521 6.70405 18.713 6.51205C18.905 6.32005 19.0007 6.08272 19 5.80005C19 5.51672 18.904 5.27905 18.712 5.08705C18.52 4.89505 18.2827 4.79938 18 4.80005C17.7167 4.80005 17.479 4.89605 17.287 5.08805C17.095 5.28005 16.9993 5.51738 17 5.80005C17 6.08338 17.096 6.32105 17.288 6.51305C17.48 6.70505 17.7173 6.80072 18 6.80005ZM6 13.8C6.28333 13.8 6.521 13.704 6.713 13.512C6.905 13.32 7.00067 13.0827 7 12.8C7 12.5167 6.904 12.279 6.712 12.087C6.52 11.895 6.28267 11.7994 6 11.8C5.71667 11.8 5.479 11.896 5.287 12.088C5.095 12.28 4.99933 12.5174 5 12.8C5 13.0834 5.096 13.321 5.288 13.513C5.48 13.705 5.71733 13.8007 6 13.8ZM18 20.8C18.2833 20.8 18.521 20.704 18.713 20.512C18.905 20.32 19.0007 20.0827 19 19.8C19 19.5167 18.904 19.279 18.712 19.087C18.52 18.8951 18.2827 18.7994 18 18.8C17.7167 18.8 17.479 18.896 17.287 19.088C17.095 19.28 16.9993 19.5174 17 19.8C17 20.0834 17.096 20.321 17.288 20.513C17.48 20.705 17.7173 20.8007 18 20.8Z" fill="#808080"/>
<path d="M18 22.8C17.1667 22.8 16.4583 22.5084 15.875 21.925C15.2917 21.3417 15 20.6334 15 19.8C15 19.6834 15.0083 19.5624 15.025 19.437C15.0417 19.3117 15.0667 19.1994 15.1 19.1L8.05 15C7.76667 15.25 7.45 15.446 7.1 15.588C6.75 15.73 6.38333 15.8007 6 15.8C5.16667 15.8 4.45833 15.5084 3.875 14.925C3.29167 14.3417 3 13.6334 3 12.8C3 11.9667 3.29167 11.2584 3.875 10.675C4.45833 10.0917 5.16667 9.80005 6 9.80005C6.38333 9.80005 6.75 9.87105 7.1 10.013C7.45 10.155 7.76667 10.3507 8.05 10.6L15.1 6.50005C15.0667 6.40005 15.0417 6.28772 15.025 6.16305C15.0083 6.03838 15 5.91738 15 5.80005C15 4.96672 15.2917 4.25838 15.875 3.67505C16.4583 3.09172 17.1667 2.80005 18 2.80005C18.8333 2.80005 19.5417 3.09172 20.125 3.67505C20.7083 4.25838 21 4.96672 21 5.80005C21 6.63338 20.7083 7.34172 20.125 7.92505C19.5417 8.50838 18.8333 8.80005 18 8.80005C17.6167 8.80005 17.25 8.72938 16.9 8.58805C16.55 8.44672 16.2333 8.25072 15.95 8.00005L8.9 12.1C8.93333 12.2 8.95833 12.3127 8.975 12.438C8.99167 12.5634 9 12.684 9 12.8C9 12.9167 8.99167 13.0377 8.975 13.163C8.95833 13.2884 8.93333 13.4007 8.9 13.5L15.95 17.6C16.2333 17.35 16.55 17.1544 16.9 17.013C17.25 16.8717 17.6167 16.8007 18 16.8C18.8333 16.8 19.5417 17.0917 20.125 17.675C20.7083 18.2584 21 18.9667 21 19.8C21 20.6334 20.7083 21.3417 20.125 21.925C19.5417 22.5084 18.8333 22.8 18 22.8ZM18 6.80005C18.2833 6.80005 18.521 6.70405 18.713 6.51205C18.905 6.32005 19.0007 6.08272 19 5.80005C19 5.51672 18.904 5.27905 18.712 5.08705C18.52 4.89505 18.2827 4.79938 18 4.80005C17.7167 4.80005 17.479 4.89605 17.287 5.08805C17.095 5.28005 16.9993 5.51738 17 5.80005C17 6.08338 17.096 6.32105 17.288 6.51305C17.48 6.70505 17.7173 6.80072 18 6.80005ZM6 13.8C6.28333 13.8 6.521 13.704 6.713 13.512C6.905 13.32 7.00067 13.0827 7 12.8C7 12.5167 6.904 12.279 6.712 12.087C6.52 11.895 6.28267 11.7994 6 11.8C5.71667 11.8 5.479 11.896 5.287 12.088C5.095 12.28 4.99933 12.5174 5 12.8C5 13.0834 5.096 13.321 5.288 13.513C5.48 13.705 5.71733 13.8007 6 13.8ZM18 20.8C18.2833 20.8 18.521 20.704 18.713 20.512C18.905 20.32 19.0007 20.0827 19 19.8C19 19.5167 18.904 19.279 18.712 19.087C18.52 18.8951 18.2827 18.7994 18 18.8C17.7167 18.8 17.479 18.896 17.287 19.088C17.095 19.28 16.9993 19.5174 17 19.8C17 20.0834 17.096 20.321 17.288 20.513C17.48 20.705 17.7173 20.8007 18 20.8Z" fill="#2E75AD" fill-opacity="0.05"/>
</svg>
