<svg width="33" height="33" viewBox="0 0 33 33" fill="none" xmlns="http://www.w3.org/2000/svg">
<path d="M28.5009 9.77343C28.4742 9.77343 28.4342 9.77343 28.3942 9.77343C21.3409 9.06677 14.3009 8.8001 7.32753 9.50677L4.60753 9.77343C4.04753 9.82677 3.5542 9.42677 3.50086 8.86677C3.44753 8.30677 3.84753 7.82676 4.3942 7.77343L7.1142 7.50677C14.2075 6.78677 21.3942 7.06676 28.5942 7.77343C29.1409 7.82676 29.5409 8.3201 29.4875 8.86677C29.4475 9.38677 29.0075 9.77343 28.5009 9.77343Z" fill="white"/>
<path d="M11.833 8.4268C11.7797 8.4268 11.7264 8.4268 11.6597 8.41346C11.1264 8.32013 10.753 7.80013 10.8464 7.2668L11.1397 5.52013C11.353 4.24013 11.6464 2.4668 14.753 2.4668H18.2464C21.3664 2.4668 21.6597 4.3068 21.8597 5.53346L22.153 7.2668C22.2464 7.81346 21.873 8.33346 21.3397 8.41346C20.793 8.5068 20.273 8.13346 20.193 7.60013L19.8997 5.8668C19.713 4.7068 19.673 4.48013 18.2597 4.48013H14.7664C13.353 4.48013 13.3264 4.6668 13.1264 5.85346L12.8197 7.5868C12.7397 8.08013 12.313 8.4268 11.833 8.4268Z" fill="white"/>
<path d="M20.7792 31.1335H12.2192C7.56588 31.1335 7.37921 28.5602 7.23255 26.4802L6.36588 13.0535C6.32588 12.5068 6.75255 12.0268 7.29921 11.9868C7.85921 11.9601 8.32588 12.3735 8.36588 12.9201L9.23255 26.3468C9.37921 28.3735 9.43255 29.1335 12.2192 29.1335H20.7792C23.5792 29.1335 23.6325 28.3735 23.7659 26.3468L24.6325 12.9201C24.6725 12.3735 25.1525 11.9601 25.6992 11.9868C26.2459 12.0268 26.6725 12.4935 26.6325 13.0535L25.7659 26.4802C25.6192 28.5602 25.4325 31.1335 20.7792 31.1335Z" fill="white"/>
<path d="M18.7134 23.8H14.2734C13.7268 23.8 13.2734 23.3467 13.2734 22.8C13.2734 22.2534 13.7268 21.8 14.2734 21.8H18.7134C19.2601 21.8 19.7134 22.2534 19.7134 22.8C19.7134 23.3467 19.2601 23.8 18.7134 23.8Z" fill="white"/>
<path d="M19.8327 18.4668H13.166C12.6193 18.4668 12.166 18.0135 12.166 17.4668C12.166 16.9201 12.6193 16.4668 13.166 16.4668H19.8327C20.3793 16.4668 20.8327 16.9201 20.8327 17.4668C20.8327 18.0135 20.3793 18.4668 19.8327 18.4668Z" fill="white"/>
</svg>
