<svg width="48" height="49" viewBox="0 0 48 49" fill="none" xmlns="http://www.w3.org/2000/svg">
<rect x="0.5" y="1.30005" width="47" height="47" rx="23.5" fill="white"/>
<rect x="0.5" y="1.30005" width="47" height="47" rx="23.5" stroke="#FF902E"/>
<path d="M24.0007 8.1333C19.634 8.1333 16.084 11.6833 16.084 16.05C16.084 20.3333 19.434 23.8 23.8007 23.95C23.934 23.9333 24.0673 23.9333 24.1673 23.95C24.2007 23.95 24.2173 23.95 24.2507 23.95C24.2673 23.95 24.2673 23.95 24.284 23.95C28.5507 23.8 31.9007 20.3333 31.9173 16.05C31.9173 11.6833 28.3673 8.1333 24.0007 8.1333Z" fill="#FF902E"/>
<path d="M32.4676 28.3833C27.8176 25.2833 20.2342 25.2833 15.5509 28.3833C13.4342 29.8 12.2676 31.7167 12.2676 33.7667C12.2676 35.8167 13.4342 37.7167 15.5342 39.1167C17.8676 40.6834 20.9342 41.4667 24.0009 41.4667C27.0676 41.4667 30.1342 40.6834 32.4676 39.1167C34.5676 37.7 35.7342 35.8 35.7342 33.7334C35.7176 31.6834 34.5676 29.7833 32.4676 28.3833Z" fill="#FF902E"/>
</svg>
