<svg width="390" height="318" viewBox="0 0 390 318" fill="none" xmlns="http://www.w3.org/2000/svg">
<path d="M346.953 -17.6824C340.516 -15.385 334.505 -12.0331 329.167 -7.76387C323.875 -3.48166 319.233 1.54715 315.387 7.16488C312.798 11.0148 310.561 15.0901 308.702 19.3413L308.024 20.9372C307.796 21.4731 307.534 22.0062 307.376 22.5536L306.195 25.8295L305.198 29.1592C305.019 29.7144 304.88 30.2777 304.759 30.8395L304.356 32.5341C303.314 37.0616 302.682 41.6741 302.47 46.3152C302.301 50.9522 302.511 55.5951 303.1 60.1977C303.272 61.3445 303.381 62.4966 303.605 63.639L304.242 67.0692L305.038 70.4511C305.297 71.5906 305.656 72.6867 305.96 73.805C307.274 78.2533 308.903 82.6023 310.837 86.8185C312.797 91.0216 315.045 95.0847 317.564 98.9793L317.604 99.0398C318.149 101.7 318.859 104.324 319.729 106.897C323.713 118.556 330.836 128.89 340.316 136.76C345.048 140.684 350.343 143.872 356.025 146.219C361.71 148.537 367.703 150.018 373.814 150.613C380.608 151.257 387.46 150.876 394.14 149.48C400.837 148.119 407.27 145.688 413.194 142.282C419.091 138.838 424.407 134.485 428.946 129.382C433.426 124.269 437.223 118.596 440.239 112.503C443.218 106.425 445.538 100.045 447.159 93.4728C447.52 91.8282 447.957 90.1945 448.24 88.5274L448.71 86.0433L449.08 83.5385C449.364 81.8772 449.477 80.1895 449.661 78.5134C449.741 77.6763 449.844 76.8372 449.901 75.9963L450.019 73.4664C450.333 66.7233 450.014 59.9656 449.067 53.282C448.085 46.5989 446.446 40.0291 444.173 33.6679C441.902 27.2914 438.949 21.1783 435.367 15.4347C431.778 9.67455 427.476 4.39118 422.562 -0.289851C417.675 -5.02641 412.14 -9.04463 406.122 -12.2241C400.135 -15.4367 393.753 -17.8523 387.139 -19.4093C380.527 -20.9928 373.731 -21.6739 366.936 -21.434C360.124 -21.1975 353.387 -19.9326 346.953 -17.6824ZM320.349 84.2806C320.866 74.5349 323.702 65.0533 328.62 56.6238C331.07 52.4262 333.986 48.5187 337.312 44.9751L338.578 43.6722C339.006 43.2412 339.416 42.7945 339.876 42.4015L342.576 39.9849L345.437 37.7637C346.41 37.043 347.438 36.4337 348.429 35.723C356.578 30.5285 365.865 27.3866 375.494 26.5668C385.623 25.7254 395.793 27.6067 404.951 32.0155C412.349 35.5097 418.991 40.4201 424.5 46.469C423.18 45.2796 421.808 44.1584 420.384 43.1055C410.873 36.2236 399.446 32.4943 387.706 32.4413C381.859 32.3931 376.047 33.3524 370.526 35.2772C364.994 37.2394 359.866 40.1921 355.391 43.9911C346.484 51.6281 340.221 61.8875 337.499 73.3007C336.117 78.9726 335.687 84.8347 336.226 90.6475C336.774 96.4848 338.401 102.17 341.024 107.413C346.249 117.871 355.02 126.306 365.345 131.556C365.8 131.79 366.265 132.006 366.725 132.223C366.512 132.172 366.303 132.114 366.09 132.062C365.681 131.957 365.272 131.864 364.873 131.746L363.68 131.371C362.88 131.107 362.067 130.897 361.292 130.591C358.118 129.472 355.029 128.124 352.05 126.556C349.071 124.974 346.196 123.201 343.445 121.249C340.699 119.275 338.069 117.145 335.568 114.869C333.079 112.572 330.715 110.143 328.486 107.593C326.273 105.026 324.191 102.349 322.247 99.5716C322.016 99.2369 321.796 98.9013 321.582 98.5652C320.544 93.8786 320.13 89.0756 320.349 84.2806ZM427.284 55.182C427.804 55.9047 428.361 56.5894 428.839 57.3736L430.282 59.6094L431.57 61.9453C431.996 62.7223 432.333 63.5475 432.72 64.3511C434.162 67.6068 435.243 71.0107 435.944 74.5019C437.338 81.5043 437.078 88.7353 435.187 95.62C434.032 99.5968 432.259 103.367 429.933 106.793C430.993 104.015 431.774 101.139 432.264 98.2064C433.209 92.8254 433.072 87.3097 431.86 81.9823C431.093 78.5491 429.743 75.273 427.868 72.2969C426.533 70.2435 425.479 69.3162 425.129 69.3632C424.779 69.4101 425.559 70.9527 426.647 73.5901C428.105 77.1071 429.069 80.8086 429.513 84.5898C430.069 89.4407 429.796 94.351 428.705 99.1103C427.676 103.68 425.924 108.056 423.515 112.072C422.668 113.492 421.729 114.855 420.706 116.153C416.171 119.469 410.978 121.774 405.476 122.912C402.018 123.621 398.476 123.825 394.96 123.52L392.351 123.159C391.49 122.994 390.646 122.769 389.789 122.585C388.096 122.154 386.445 121.57 384.857 120.841C378.455 117.804 373.138 112.875 369.627 106.72C367.856 103.677 366.576 100.373 365.835 96.931C365.47 95.2292 365.252 93.4991 365.184 91.76C365.119 90.0196 365.219 88.2771 365.483 86.5555C366.452 79.6628 370.489 73.4115 375.97 69.0649C378.719 66.875 381.808 65.1495 385.114 63.9567C388.401 62.7733 391.876 62.1952 395.37 62.2503C398.83 62.3336 402.232 63.1596 405.346 64.6726C408.423 66.2528 411.115 68.4899 413.232 71.2254C417.534 76.8105 419.645 83.7759 419.168 90.8096C418.95 94.2649 417.957 97.6269 416.264 100.647C415.409 102.128 414.378 103.5 413.194 104.732C411.999 105.959 410.656 107.032 409.195 107.926C403.321 111.527 395.791 112.296 389.086 110.457C385.742 109.554 382.634 107.936 379.976 105.714C378.666 104.609 377.502 103.341 376.511 101.942C375.535 100.529 374.718 99.013 374.075 97.421C372.072 92.1955 371.962 86.1312 374.166 81.0738C374.704 79.8162 375.383 78.6235 376.189 77.5182C376.392 77.2455 376.626 76.9935 376.837 76.732C377.047 76.4649 377.272 76.2095 377.509 75.9669L378.235 75.2785C378.359 75.1636 378.477 75.0433 378.601 74.9341L379.005 74.633C381.161 72.9744 383.679 71.8507 386.353 71.3542C389.03 70.8643 391.782 70.9754 394.411 71.6795C396.987 72.3505 399.313 73.7564 401.104 75.7257C402.881 77.6843 403.946 80.1838 404.129 82.8217C404.356 85.5327 403.897 88.2572 402.794 90.744C402.681 90.9915 402.424 91.5241 402.272 91.7809C401.658 92.8866 400.926 93.9219 400.087 94.8682C399.559 95.4934 399.261 95.8147 399.089 96.0441C398.745 96.5143 398.942 96.6371 398.039 97.3635C397.19 97.9995 396.274 98.5402 395.306 98.9758C394.864 99.1365 394.45 99.3674 394.081 99.6598C393.988 99.8011 394.221 99.8744 394.819 99.8705C395.783 99.8327 396.734 99.6307 397.631 99.2734C399.236 98.6664 400.701 97.739 401.936 96.5473C403.706 94.8611 405.082 92.8039 405.963 90.5233C407.164 87.5364 407.548 84.283 407.073 81.0987C406.713 78.6533 405.741 76.3385 404.247 74.3691C403.917 73.9615 403.559 73.5794 403.207 73.1852C402.856 72.779 402.467 72.4073 402.045 72.0754C401.642 71.7033 401.21 71.365 400.752 71.0638L399.523 70.2673C399.098 70.0419 398.662 69.8289 398.231 69.6097C398.013 69.5061 397.805 69.3786 397.577 69.2933L396.9 69.0368C396.445 68.8777 395.998 68.6773 395.531 68.5716C393.663 68.0358 391.734 67.7475 389.791 67.714C389.304 67.7203 388.819 67.7496 388.338 67.7669C388.096 67.7873 387.852 67.7789 387.612 67.8281L386.888 67.924C386.406 67.9937 385.922 68.0344 385.449 68.1382L384.025 68.4731C382.142 68.964 380.34 69.7281 378.677 70.7412C376.594 72.0095 374.78 73.6734 373.336 75.6392C371.739 77.82 370.567 80.2827 369.883 82.898C368.435 88.5575 368.939 94.5403 371.315 99.8776C373.118 103.931 376.005 107.409 379.658 109.928C380.234 110.355 380.85 110.704 381.45 111.077C382.051 111.451 382.67 111.77 383.275 112.056C387.826 114.224 392.849 115.212 397.882 114.93C400.578 114.793 403.241 114.281 405.796 113.409C408.414 112.506 410.869 111.188 413.067 109.504C415.286 107.793 417.182 105.7 418.667 103.324C420.135 100.968 421.2 98.3843 421.82 95.6783C422.446 93.0391 422.692 90.3241 422.551 87.6153C422.429 84.9787 421.991 82.3664 421.245 79.8345C419.817 74.9842 417.253 70.5443 413.766 66.8835C410.147 63.1273 405.477 60.5519 400.369 59.4947C395.314 58.4946 390.087 58.7873 385.175 60.3457C380.304 61.8767 375.818 64.4327 372.017 67.842C368.174 71.2615 365.208 75.5539 363.369 80.3582C361.621 85.2151 361.103 90.4296 361.861 95.5356C362.625 100.587 364.416 105.428 367.125 109.759C369.813 114.09 373.32 117.855 377.448 120.845C379.527 122.335 381.759 123.599 384.107 124.615C385.278 125.126 386.478 125.566 387.702 125.932C388.934 126.287 390.186 126.535 391.43 126.837C396.462 127.713 401.616 127.596 406.603 126.493C407.914 126.208 409.214 125.855 410.492 125.451C410.157 125.676 409.822 125.902 409.469 126.118C403.776 129.652 397.455 132.056 390.852 133.197C389.662 133.408 388.467 133.567 387.265 133.703C379.819 133.386 372.541 131.38 365.984 127.838C358.212 123.709 351.618 117.671 346.824 110.292C344.457 106.622 342.633 102.63 341.406 98.4386C340.811 96.3446 340.365 94.2109 340.072 92.0536C339.798 89.8887 339.665 87.7081 339.673 85.5259C339.822 76.7226 342.215 68.1028 346.626 60.4828C350.945 52.8183 357.26 46.4669 364.9 42.1037C372.611 37.8915 381.357 35.9465 390.127 36.4933C397.283 36.8862 404.284 38.732 410.703 41.9183C413.895 43.5135 416.91 45.4389 419.7 47.6632C422.506 49.8728 425.05 52.3954 427.284 55.182ZM374.668 -17.4638C388.188 -16.4353 401.173 -11.7448 412.23 -3.89573C414.672 -2.14665 416.997 -0.240211 419.191 1.81164L422.536 5.124C423.605 6.29972 424.649 7.52395 425.744 8.73809C430.027 13.917 433.675 19.5901 436.61 25.6364C439.642 31.8806 441.973 38.4415 443.56 45.199C446.633 58.1605 447.114 71.6013 444.978 84.7495C444.072 90.3877 442.654 95.9316 440.742 101.312C439.193 105.719 437.275 109.988 435.006 114.071C434.536 114.964 433.989 115.777 433.533 116.576L432.836 117.738C432.6 118.106 432.351 118.458 432.125 118.808L430.803 120.766C430.385 121.382 429.948 121.912 429.567 122.426C428.32 124.163 426.94 125.696 425.754 127.131C424.569 128.567 423.341 129.779 422.248 130.731C420.575 132.313 418.812 133.797 416.968 135.177L414.144 137.157C413.155 137.757 412.16 138.351 411.172 138.952C407.107 141.241 402.799 143.069 398.328 144.401C393.809 145.747 389.149 146.564 384.441 146.837C379.703 147.141 374.946 146.917 370.258 146.169C360.787 144.607 351.853 140.72 344.255 134.855C340.459 131.878 337.016 128.477 333.994 124.716C330.944 120.948 328.35 116.832 326.265 112.454C325.638 111.137 325.065 109.792 324.527 108.438C324.991 108.979 325.449 109.521 325.924 110.062C332.026 117.113 339.217 123.143 347.224 127.921C355.274 132.751 364.234 135.869 373.544 137.077C377.79 137.577 382.076 137.636 386.334 137.254C387.733 137.329 389.136 137.343 390.541 137.294L391.635 137.26L393.815 137.076L394.9 136.932C395.623 136.825 396.349 136.758 397.062 136.611L399.209 136.186C402.048 135.527 404.825 134.631 407.513 133.506C410.183 132.359 412.756 130.998 415.206 129.437C417.646 127.88 419.959 126.132 422.123 124.209C423.204 123.264 424.245 122.242 425.274 121.226C426.303 120.21 427.257 119.131 428.173 118.009C435.701 109.138 440.468 98.2587 441.886 86.7114C442.592 80.5571 442.171 74.3258 440.643 68.3225C439.887 65.3332 438.88 62.4132 437.632 59.5938C436.369 56.7889 434.893 54.085 433.216 51.5059C431.548 48.9279 429.678 46.4857 427.624 44.2023C425.588 41.913 423.393 39.7696 421.057 37.7881C416.369 33.8298 411.158 30.5371 405.57 28.0032C399.981 25.4507 394.048 23.7323 387.959 22.9031C384.91 22.4907 381.832 22.3288 378.756 22.4189C375.689 22.4973 372.633 22.8073 369.613 23.3464C363.566 24.4069 357.7 26.3207 352.191 29.0304C346.696 31.7806 341.628 35.3136 337.148 39.5191C328.173 47.9681 321.715 58.7386 318.49 70.6353C316.877 76.5672 316.155 82.7062 316.35 88.8505C316.384 89.2541 316.418 89.6577 316.418 90.07C314.975 87.3522 313.632 84.5739 312.464 81.7343C309.899 75.4664 308.047 68.9301 306.942 62.2485C305.889 55.5765 305.688 48.7977 306.345 42.075C306.576 40.4065 306.713 38.7285 307.085 37.0771L307.55 34.5991L308.144 32.1452L308.441 30.9181C308.547 30.5144 308.681 30.114 308.8 29.7267L309.531 27.3076C309.783 26.5083 310.099 25.7209 310.374 24.9139C310.649 24.1069 310.925 23.323 311.279 22.5557C311.944 21.0132 312.567 19.4453 313.353 17.9564C313.731 17.2046 314.084 16.4372 314.487 15.7007L315.736 13.5052C315.943 13.1451 316.144 12.7739 316.364 12.4129L317.047 11.3566L318.413 9.23823L319.896 7.20284C320.419 6.51427 320.884 5.83635 321.435 5.20349C325.608 -0.0575445 330.615 -4.59881 336.258 -8.23961C341.885 -11.8859 348.111 -14.5118 354.649 -15.997C361.21 -17.4923 367.957 -17.9927 374.667 -17.4812L374.668 -17.4638Z" fill="#BED4E6"/>
<path d="M-31.3417 47.6807C-40.846 46.848 -50.4227 47.6016 -59.6798 49.9107C-68.8873 52.2625 -77.7039 55.9402 -85.8533 60.8285C-91.3794 64.2056 -96.5902 68.0735 -101.422 72.3852L-103.212 74.0149C-103.813 74.5623 -104.457 75.0857 -104.975 75.6888L-108.38 79.1571L-111.583 82.8013C-112.134 83.401 -112.638 84.0351 -113.118 84.6775L-114.616 86.5927C-118.575 91.7296 -122.061 97.2139 -125.033 102.978C-127.946 108.763 -130.382 114.776 -132.315 120.958C-132.764 122.513 -133.296 124.038 -133.677 125.618L-134.865 130.34L-135.824 135.094C-136.159 136.691 -136.341 138.291 -136.608 139.886C-137.53 146.294 -137.994 152.761 -137.996 159.235C-137.955 165.709 -137.469 172.172 -136.541 178.579L-136.525 178.679C-137.382 182.372 -138.009 186.114 -138.402 189.885C-140.136 206.996 -137.114 224.253 -129.669 239.757C-125.95 247.489 -121.088 254.617 -115.246 260.901C-109.382 267.152 -102.641 272.519 -95.2342 276.832C-86.9903 281.605 -78.0747 285.109 -68.7875 287.228C-59.4993 289.399 -49.9224 290.06 -40.4238 289.188C-30.9378 288.251 -21.6592 285.822 -12.9306 281.991C-4.26995 278.113 3.84952 273.124 11.2233 267.151C18.5412 261.174 25.1982 254.43 31.0807 247.036C32.4957 245.159 34.0014 243.341 35.3314 241.391L37.3737 238.513L39.3005 235.551C40.6278 233.608 41.7539 231.533 42.9629 229.513C43.5522 228.498 44.172 227.494 44.7336 226.46L46.3558 223.319C50.6793 214.947 54.2086 206.188 56.8975 197.157C59.5421 188.106 61.2874 178.817 62.1076 169.424C62.9374 160.012 62.7501 150.537 61.549 141.165C60.3494 131.768 57.9666 122.561 54.4575 113.761C51.0147 104.907 46.3314 96.5872 40.5482 89.0504C34.8222 81.4892 28.1319 74.7095 20.6473 68.8839C13.1804 63.0257 4.95483 58.2054 -3.80535 54.5541C-12.5854 50.8887 -21.8691 48.5714 -31.3417 47.6807ZM-124.451 161.553C-118.121 149.49 -109.004 139.111 -97.857 131.28C-92.3054 127.381 -86.3314 124.12 -80.0486 121.561L-77.6837 120.645C-76.8896 120.348 -76.1101 120.019 -75.2972 119.789L-70.4655 118.294L-65.5426 117.142C-63.8888 116.794 -62.2289 116.62 -60.5579 116.295C-47.1955 114.449 -33.5847 115.869 -20.8914 120.434C-7.55101 125.263 4.25619 133.57 13.3082 144.495C20.6602 153.235 26.2279 163.331 29.6964 174.212C28.7146 171.935 27.6266 169.714 26.4326 167.549C18.3727 153.281 6.04548 141.897 -8.81719 134.996C-16.2073 131.531 -24.1391 129.365 -32.2646 128.593C-40.425 127.862 -48.6504 128.623 -56.5384 130.838C-72.2852 135.341 -86.2034 144.711 -96.3009 157.606C-101.355 163.998 -105.313 171.185 -108.014 178.873C-110.717 186.598 -111.962 194.757 -111.686 202.936C-111.145 219.246 -104.929 235.053 -94.8855 247.724C-94.4444 248.287 -93.9799 248.832 -93.523 249.374C-93.7637 249.184 -93.994 248.99 -94.2347 248.8C-94.6932 248.429 -95.1572 248.072 -95.595 247.691L-96.8898 246.52C-97.7517 245.72 -98.6611 244.98 -99.4658 244.14C-102.842 240.873 -105.975 237.364 -108.842 233.642C-111.701 229.9 -114.316 225.978 -116.669 221.899C-119.004 217.797 -121.101 213.563 -122.95 209.22C-124.769 204.856 -126.354 200.398 -127.698 195.866C-129.011 191.32 -130.095 186.712 -130.944 182.057C-131.042 181.498 -131.126 180.944 -131.202 180.393C-129.79 173.843 -127.52 167.508 -124.451 161.553ZM28.1564 186.887C28.3949 188.106 28.703 189.299 28.8534 190.573L29.3822 194.249L29.657 197.963C29.7445 199.196 29.6913 200.439 29.7147 201.684C29.6491 206.654 29.0393 211.602 27.8965 216.439C25.5876 226.134 21.0493 235.157 14.6421 242.791C10.8622 247.164 6.4179 250.915 1.47227 253.908C4.43372 251 7.09861 247.805 9.42753 244.37C13.7598 238.094 16.7967 231.016 18.3602 223.552C19.3863 218.75 19.5801 213.807 18.9332 208.94C18.4356 205.558 17.6386 203.768 17.167 203.624C16.6953 203.48 16.7873 205.891 16.6316 209.87C16.4339 215.181 15.5028 220.438 13.865 225.494C11.7462 231.972 8.54094 238.042 4.38651 243.445C0.421414 248.644 -4.3486 253.175 -9.74352 256.869C-11.6449 258.176 -13.629 259.359 -15.6829 260.411C-23.3667 261.978 -31.2971 261.878 -38.9394 260.12C-43.7388 259.006 -48.3518 257.204 -52.6354 254.769L-55.7347 252.793C-56.7316 252.081 -57.6707 251.305 -58.6518 250.573C-60.5488 249.04 -62.3031 247.339 -63.893 245.489C-70.2481 237.909 -74.1233 228.561 -74.9952 218.708C-75.4697 213.816 -75.1702 208.88 -74.1078 204.081C-73.5794 201.71 -72.8484 199.388 -71.923 197.142C-70.9916 194.896 -69.8503 192.744 -68.5142 190.713C-63.2719 182.533 -54.5113 176.952 -45.0276 174.628C-40.2649 173.45 -35.3416 173.059 -30.4527 173.47C-25.5931 173.883 -20.8482 175.172 -16.4481 177.276C-12.1061 179.396 -8.27063 182.424 -5.20127 186.156C-2.21765 189.952 -0.10439 194.358 0.988962 199.061C3.19547 208.651 1.81905 218.717 -2.88093 227.362C-5.1693 231.619 -8.38573 235.307 -12.2922 238.152C-14.238 239.534 -16.3445 240.674 -18.5652 241.548C-20.7949 242.409 -23.1236 242.989 -25.4972 243.272C-35.0468 244.422 -45.0474 241.013 -52.4832 234.777C-56.1997 231.684 -59.2009 227.822 -61.2794 223.457C-62.2978 221.292 -63.037 219.006 -63.4794 216.654C-63.8951 214.293 -64.0492 211.894 -63.9388 209.5C-63.4374 201.705 -60.0473 193.946 -54.3069 188.813C-52.8919 187.531 -51.3366 186.413 -49.6707 185.48C-49.2538 185.252 -48.8099 185.069 -48.391 184.86C-47.9687 184.643 -47.535 184.45 -47.0918 184.281L-45.7703 183.83C-45.5463 183.756 -45.3271 183.672 -45.1058 183.606L-44.4174 183.459C-40.7173 182.61 -36.8686 182.65 -33.1871 183.577C-29.5058 184.513 -26.0786 186.257 -23.1536 188.68C-20.2756 191.031 -18.1437 194.169 -17.0173 197.71C-15.9035 201.229 -16.0066 205.02 -17.3101 208.474C-18.6002 212.045 -20.7689 215.235 -23.6162 217.747C-23.9033 217.996 -24.5395 218.522 -24.8825 218.759C-26.3042 219.804 -27.8361 220.692 -29.4509 221.404C-30.4846 221.89 -31.0498 222.124 -31.4019 222.315C-32.1115 222.711 -31.9341 222.981 -33.5022 223.377C-34.9495 223.69 -36.4269 223.842 -37.9076 223.832C-38.5627 223.778 -39.2221 223.83 -39.8606 223.986C-40.0604 224.112 -39.8079 224.34 -39.0473 224.683C-37.8016 225.197 -36.4773 225.494 -35.1316 225.563C-32.7418 225.727 -30.3436 225.403 -28.0831 224.61C-24.8553 223.502 -21.9129 221.692 -19.4671 219.312C-16.204 216.222 -13.8239 212.318 -12.5722 208.001C-11.6056 204.689 -11.4914 201.187 -12.2401 197.819C-12.4221 197.109 -12.6529 196.416 -12.8708 195.711C-13.0795 194.991 -13.3568 194.293 -13.6989 193.626C-13.993 192.92 -14.3446 192.239 -14.7503 191.59L-15.8452 189.865C-16.2537 189.331 -16.683 188.807 -17.1019 188.278C-17.3178 188.02 -17.5078 187.737 -17.7472 187.496L-18.4576 186.776C-18.9419 186.31 -19.3918 185.796 -19.9235 185.389C-21.9807 183.622 -24.261 182.133 -26.7058 180.96C-27.3276 180.684 -27.9603 180.439 -28.58 180.181C-28.8991 180.066 -29.2045 179.913 -29.5373 179.836L-30.511 179.536C-31.1629 179.344 -31.8011 179.114 -32.4618 178.97L-34.4626 178.567C-37.1385 178.093 -39.8692 178.013 -42.5681 178.331C-45.9492 178.727 -49.2202 179.782 -52.196 181.435C-55.4921 183.272 -58.4119 185.715 -60.802 188.635C-65.9339 194.972 -68.7769 202.856 -68.8706 211.01C-68.9419 217.202 -67.3036 223.295 -64.1361 228.617C-63.6542 229.495 -63.076 230.296 -62.5314 231.119C-61.9868 231.942 -61.3872 232.708 -60.7864 233.423C-56.2748 238.823 -50.477 243.001 -43.927 245.572C-40.4273 246.968 -36.7503 247.869 -33.0018 248.25C-29.155 248.628 -25.2724 248.385 -21.5031 247.528C-17.6923 246.649 -14.0685 245.098 -10.802 242.948C-7.56804 240.813 -4.71196 238.155 -2.35099 235.083C-0.020538 232.099 1.87235 228.798 3.27057 225.279C4.65092 221.863 5.61537 218.294 6.14304 214.647C7.15554 207.663 6.48741 200.538 4.19407 193.863C1.78875 186.99 -2.63628 181.005 -8.50132 176.69C-14.3328 172.478 -21.1335 169.807 -28.2726 168.925C-35.3435 168.032 -42.5237 168.663 -49.3305 170.775C-56.1968 172.876 -62.4581 176.596 -67.5877 181.62C-72.6336 186.764 -76.3264 193.078 -78.336 199.998C-80.3077 206.851 -80.8531 214.035 -79.9384 221.107C-79.0489 228.166 -76.7922 234.985 -73.2944 241.181C-71.5249 244.282 -69.4288 247.185 -67.0418 249.84C-65.8539 251.17 -64.5869 252.427 -63.2476 253.604C-61.8914 254.771 -60.4478 255.815 -59.0441 256.923C-53.1709 260.963 -46.5635 263.816 -39.5947 265.319C-37.7651 265.721 -35.9103 266.029 -34.0535 266.261C-34.6101 266.352 -35.1666 266.443 -35.7405 266.511C-45.0206 267.681 -54.4393 267.051 -63.4809 264.655C-65.1132 264.23 -66.7209 263.736 -68.3252 263.209C-77.5881 258.471 -85.6531 251.691 -91.9107 243.379C-99.3673 233.617 -104.217 222.118 -106.004 209.965C-106.87 203.931 -106.861 197.804 -105.978 191.773C-105.514 188.77 -104.837 185.803 -103.953 182.896C-103.04 179.99 -101.94 177.146 -100.659 174.382C-95.3455 163.3 -87.2915 153.757 -77.2595 146.658C-67.3176 139.448 -55.6084 135.067 -43.376 133.978C-31.1407 133.124 -18.9131 135.747 -8.10541 141.546C0.744691 146.21 8.55232 152.628 14.8419 160.407C17.9623 164.289 20.667 168.487 22.9115 172.933C25.1849 177.37 26.9446 182.051 28.1564 186.887ZM3.69307 64.0922C20.2473 73.2678 33.9908 86.7777 43.4489 103.172C45.5288 106.813 47.369 110.585 48.9578 114.465L51.2734 120.615C51.9449 122.729 52.5565 124.89 53.2393 127.068C55.6587 136.132 56.9842 145.453 57.1873 154.832C57.3992 164.519 56.5372 174.199 54.617 183.697C50.9696 201.929 43.7564 219.262 33.3917 234.699C28.9605 241.325 23.9343 247.533 18.3755 253.246C13.8456 257.936 8.92678 262.234 3.67165 266.094C2.55473 266.953 1.38768 267.665 0.344987 268.414L-1.21637 269.482C-1.73025 269.812 -2.25119 270.114 -2.74165 270.426L-5.55789 272.141C-6.44728 272.679 -7.31064 273.097 -8.09265 273.528C-10.6859 275.005 -13.3298 276.146 -15.6694 277.277C-18.009 278.408 -20.2722 279.232 -22.2124 279.803C-25.2564 280.836 -28.3575 281.693 -31.5001 282.369L-36.2347 283.238C-37.8385 283.423 -39.4472 283.599 -41.051 283.785C-47.5405 284.323 -54.0698 284.135 -60.5173 283.221C-67.0344 282.298 -73.4225 280.622 -79.5538 278.228C-85.7416 275.855 -91.6464 272.801 -97.1592 269.123C-108.265 261.629 -117.337 251.496 -123.562 239.632C-126.646 233.646 -129.034 227.326 -130.678 220.796C-132.354 214.239 -133.249 207.507 -133.345 200.74C-133.375 198.704 -133.318 196.664 -133.212 194.633C-132.939 195.59 -132.673 196.544 -132.385 197.507C-128.749 210.005 -123.137 221.84 -115.759 232.564C-108.358 243.378 -98.8048 252.549 -87.6972 259.503C-82.6017 262.608 -77.1986 265.178 -71.5744 267.171C-69.8423 268.082 -68.0709 268.915 -66.2601 269.671L-64.8514 270.265L-61.9795 271.301L-60.519 271.75C-59.5398 272.035 -58.5798 272.372 -57.589 272.601L-54.6172 273.312C-50.6329 274.128 -46.587 274.608 -42.5222 274.746C-38.4675 274.845 -34.4113 274.617 -30.3934 274.063C-26.3913 273.508 -22.4397 272.636 -18.5755 271.456C-16.6533 270.887 -14.7382 270.195 -12.8411 269.506C-10.944 268.816 -9.10525 268.003 -7.29012 267.112C7.42415 260.24 19.8054 249.212 28.3267 235.388C32.8057 227.992 35.8991 219.841 37.4555 211.335C38.2364 207.102 38.658 202.811 38.7157 198.508C38.7463 194.214 38.4477 189.924 37.8224 185.676C37.2062 181.434 36.2557 177.247 34.9798 173.155C33.7291 169.065 32.1924 165.069 30.3812 161.194C26.7385 153.444 22.044 146.233 16.4302 139.765C10.8251 133.273 4.2976 127.639 -2.94388 123.043C-6.57261 120.744 -10.3835 118.747 -14.3383 117.071C-18.2744 115.385 -22.3323 113.999 -26.4773 112.925C-34.7667 110.75 -43.3227 109.763 -51.8895 109.994C-60.4623 110.284 -68.9478 111.817 -77.0804 114.544C-93.385 120.038 -107.848 129.943 -118.865 143.159C-124.365 149.746 -128.854 157.114 -132.184 165.022C-132.376 165.554 -132.568 166.086 -132.808 166.609C-133.056 162.321 -133.143 158.015 -132.972 153.732C-132.577 144.287 -131.121 134.916 -128.633 125.796C-126.086 116.719 -122.394 108.001 -117.647 99.8549C-116.383 97.8725 -115.232 95.8235 -113.799 93.9449L-111.767 91.0716L-109.584 88.3044L-108.493 86.9207C-108.124 86.4698 -107.72 86.0402 -107.345 85.6176L-105.009 82.9741C-104.224 82.1067 -103.364 81.2922 -102.546 80.4282C-101.728 79.5641 -100.92 78.7306 -100.025 77.963C-98.2832 76.3934 -96.5804 74.7667 -94.7164 73.3354C-93.7992 72.6015 -92.9042 71.8337 -91.9649 71.1336L-89.102 69.0753C-88.6289 68.7394 -88.1578 68.3855 -87.6695 68.0551L-86.1877 67.1127L-83.2217 65.2203L-80.1549 63.5016C-79.091 62.9322 -78.1059 62.3431 -77.0391 61.8607C-68.682 57.6154 -59.6855 54.769 -50.4075 53.4347C-41.1459 52.0844 -31.7187 52.3772 -22.5587 54.2994C-13.3651 56.2214 -4.51281 59.5148 3.7013 64.0694L3.69307 64.0922Z" fill="#FFDDBE"/>
</svg>
