<svg width="48" height="48" viewBox="0 0 48 48" fill="none" xmlns="http://www.w3.org/2000/svg">
<path d="M19.1398 10.36C19.5198 10.36 19.8998 10.5 20.1998 10.8C20.7798 11.38 20.7798 12.34 20.1998 12.92L9.11976 24L20.1998 35.08C20.7798 35.66 20.7798 36.62 20.1998 37.2C19.6198 37.78 18.6598 37.78 18.0798 37.2L5.93976 25.06C5.35976 24.48 5.35976 23.52 5.93976 22.94L18.0798 10.8C18.3798 10.5 18.7598 10.36 19.1398 10.36Z" fill="#262626"/>
<path d="M19.1398 10.36C19.5198 10.36 19.8998 10.5 20.1998 10.8C20.7798 11.38 20.7798 12.34 20.1998 12.92L9.11976 24L20.1998 35.08C20.7798 35.66 20.7798 36.62 20.1998 37.2C19.6198 37.78 18.6598 37.78 18.0798 37.2L5.93976 25.06C5.35976 24.48 5.35976 23.52 5.93976 22.94L18.0798 10.8C18.3798 10.5 18.7598 10.36 19.1398 10.36Z" fill="#2E75AD" fill-opacity="0.09"/>
<path d="M7.34 22.5L41 22.5C41.82 22.5 42.5 23.18 42.5 24C42.5 24.82 41.82 25.5 41 25.5L7.34 25.5C6.52 25.5 5.84 24.82 5.84 24C5.84 23.18 6.52 22.5 7.34 22.5Z" fill="#262626"/>
<path d="M7.34 22.5L41 22.5C41.82 22.5 42.5 23.18 42.5 24C42.5 24.82 41.82 25.5 41 25.5L7.34 25.5C6.52 25.5 5.84 24.82 5.84 24C5.84 23.18 6.52 22.5 7.34 22.5Z" fill="#2E75AD" fill-opacity="0.09"/>
</svg>
